<svg width="457" height="457" xmlns="http://www.w3.org/2000/svg" xmlns:xlink="http://www.w3.org/1999/xlink" xml:space="preserve" overflow="hidden"><defs><clipPath id="clip0"><rect x="58" y="119" width="457" height="457"/></clipPath></defs><g clip-path="url(#clip0)" transform="translate(-58 -119)"><path d="M0.125065 556.992 1261.58 556.992 1261.58-0.104221 0.125065-0.104221Z" fill="#FFFFFF" fill-rule="evenodd" transform="matrix(1 0 0 1 9.66104 81.8738)"/><path d="M137.54 163.95 120.047 76.4772 90.0624 233.934Z" fill="#A4DFF9" fill-rule="evenodd" transform="matrix(1 0 0 1 9.66104 81.8738)"/><path d="M119.208 75.6382 160.083 58.15 137.54 165.617Z" fill="#E9F7FE" fill-rule="evenodd" transform="matrix(1 0 0 1 9.66104 81.8738)"/><path d="M144.726 247.691 182.282 105.8 160.083 58.15 136.805 166.034Z" fill="#91D1F3" fill-rule="evenodd" transform="matrix(1 0 0 1 9.66104 81.8738)"/><path d="M145.247 247.061 178.16 123.345 202.73 137.499 145.664 256.211Z" fill="#009BD9" fill-rule="evenodd" transform="matrix(1 0 0 1 9.66104 81.8738)"/><path d="M209.4 202.48 202.73 137.499 190.646 130 228.556 62.1 232.72 95.0077 229.812 201.652Z" fill="#9FDDF9" fill-rule="evenodd" transform="matrix(1 0 0 1 9.66104 81.8738)"/><path d="M233.147 95.4246 228.973 61.2714 261.469 57.9363Z" fill="#E0F2F5" fill-rule="evenodd" transform="matrix(1 0 0 1 9.66104 81.8738)"/><path d="M233.147 95.4246 281.464 111.256 261.469 57.9363Z" fill="#005BAA" fill-rule="evenodd" transform="matrix(1 0 0 1 9.66104 81.8738)"/><path d="M311.453 87.9259 282.292 113.767 271.886 85.8467 291.047 52.5221Z" fill="#7CC6EE" fill-rule="evenodd" transform="matrix(1 0 0 1 9.66104 81.8738)"/><path d="M311.453 87.5142 295.205 60.4324 344.366 85.8467Z" fill="#DCF1FA" fill-rule="evenodd" transform="matrix(1 0 0 1 9.66104 81.8738)"/><path d="M281.464 112.923 311.453 87.5142 345.195 85.4298 306.878 138.754Z" fill="#005691" fill-rule="evenodd" transform="matrix(1 0 0 1 9.66104 81.8738)"/><path d="M308.118 138.754 346.034 85.8467 302.704 248.301 282.709 113.34Z" fill="#0081C5" fill-rule="evenodd" transform="matrix(1 0 0 1 9.66104 81.8738)"/><path d="M376.847 307.04 345.195 85.4298 318.124 194.57Z" fill="#69C8F1" fill-rule="evenodd" transform="matrix(1 0 0 1 9.66104 81.8738)"/><path d="M361.443 196.649 345.195 85.8467 395.607 62.1 386.44 182.908 372.688 178.322Z" fill="#DCF2FD" fill-rule="evenodd" transform="matrix(1 0 0 1 9.66104 81.8738)"/><path d="M410.599 151.667 395.607 62.5273 435.586 74.1844Z" fill="#0061A8" fill-rule="evenodd" transform="matrix(1 0 0 1 9.66104 81.8738)"/><path d="M477.248 136.243 435.586 74.6012 498.488 97.9311Z" fill="#EAF6FD" fill-rule="evenodd" transform="matrix(1 0 0 1 9.66104 81.8738)"/><path d="M411.427 150.823 436.013 74.1844 477.248 136.67 468.082 229.557Z" fill="#A4DFF9" fill-rule="evenodd" transform="matrix(1 0 0 1 9.66104 81.8738)"/><path d="M476.836 135.831 498.91 97.5194 469.749 216.232Z" fill="#0BB9E6" fill-rule="evenodd" transform="matrix(1 0 0 1 9.66104 81.8738)"/><path d="M281.787 110.646 232.96 95.435 228.957 202.694 290.588 166.675Z" fill="#00A5E0" fill-rule="evenodd" transform="matrix(1 0 0 1 9.66104 81.8738)"/><path d="M427.462 241.11 395.445 61.0161 387.441 187.483Z" fill="#0092D1" fill-rule="evenodd" transform="matrix(1 0 0 1 9.66104 81.8738)"/><path d="M469.338 229.557 411.016 148.332 426.847 239.14Z" fill="#7FCDF2" fill-rule="evenodd" transform="matrix(1 0 0 1 9.66104 81.8738)"/><path d="M154.518 310.75 136.112 164.257 89.6872 235.508Z" fill="#005BAA" fill-rule="evenodd" transform="matrix(1 0 0 1 9.66104 81.8738)"/><path d="M204.148 137.056 145.716 253.903 220.156 305.945Z" fill="#005BAA" fill-rule="evenodd" transform="matrix(1 0 0 1 9.66104 81.8738)"/><path d="M220.953 309.145 208.15 201.876 230.557 203.491 224.158 309.145 154.518 310.75 147.316 251.516Z" fill="#009BD9" fill-rule="evenodd" transform="matrix(1 0 0 1 9.66104 81.8738)"/><path d="M292.991 166.675 230.557 201.876 223.356 309.932 301.797 309.145Z" fill="#005BAA" fill-rule="evenodd" transform="matrix(1 0 0 1 9.66104 81.8738)"/><path d="M378.634 306.748 317.806 196.274 300.198 256.305 303.397 309.145Z" fill="#0081C6" fill-rule="evenodd" transform="matrix(1 0 0 1 9.66104 81.8738)"/><path d="M372.235 179.479 361.829 197.874 377.837 309.145 389.041 184.268Z" fill="#00C1F3" fill-rule="evenodd" transform="matrix(1 0 0 1 9.66104 81.8738)"/><path d="M428.264 239.51 389.041 185.081 378.634 309.145Z" fill="#124986" fill-rule="evenodd" transform="matrix(1 0 0 1 9.66104 81.8738)"/><path d="M469.885 308.332 427.462 241.11 378.634 308.332Z" fill="#59CAF4" fill-rule="evenodd" transform="matrix(1 0 0 1 9.66104 81.8738)"/><path d="M470.593 308.639 425.57 238.405 469.775 229.598Z" fill="#E8F5FD" fill-rule="evenodd" transform="matrix(1 0 0 1 9.66104 81.8738)"/><path d="M497.79 307.441 470.176 215.794 470.593 307.842Z" fill="#E5F1FB" fill-rule="evenodd" transform="matrix(1 0 0 1 9.66104 81.8738)"/><path d="M127.707 282.131 88.0874 235.523 53.137 308.921Z" fill="#E9F3FB" fill-rule="evenodd" transform="matrix(1 0 0 1 9.66104 81.8738)"/><path d="M155.669 312.417 53.137 308.921 131.204 279.796Z" fill="#97DBF8" fill-rule="evenodd" transform="matrix(1 0 0 1 9.66104 81.8738)"/><path d="M469.338 395.283 411.016 476.513 426.847 385.695Z" fill="#7FCDF2" fill-rule="evenodd" transform="matrix(1 0 0 1 9.66104 81.8738)"/><path d="M154.518 314.095 136.112 460.573 89.6872 389.338Z" fill="#005BAA" fill-rule="evenodd" transform="matrix(1 0 0 1 9.66104 81.8738)"/><path d="M204.148 487.785 145.716 370.927 220.156 318.9Z" fill="#005BAA" fill-rule="evenodd" transform="matrix(1 0 0 1 9.66104 81.8738)"/><path d="M220.953 315.695 208.15 422.954 230.557 421.354 224.158 315.695 154.518 314.095 147.316 373.329Z" fill="#009BD9" fill-rule="evenodd" transform="matrix(1 0 0 1 9.66104 81.8738)"/><path d="M292.991 458.17 230.557 422.954 223.356 314.898 301.797 315.695Z" fill="#005BAA" fill-rule="evenodd" transform="matrix(1 0 0 1 9.66104 81.8738)"/><path d="M378.634 318.098 317.806 428.556 300.198 368.525 303.397 315.695Z" fill="#0081C6" fill-rule="evenodd" transform="matrix(1 0 0 1 9.66104 81.8738)"/><path d="M372.235 445.367 361.829 426.956 377.837 315.695 389.041 440.562Z" fill="#00C1F3" fill-rule="evenodd" transform="matrix(1 0 0 1 9.66104 81.8738)"/><path d="M428.264 385.336 389.041 439.76 378.634 315.695Z" fill="#124986" fill-rule="evenodd" transform="matrix(1 0 0 1 9.66104 81.8738)"/><path d="M469.885 316.498 427.462 383.731 378.634 316.498Z" fill="#59CAF4" fill-rule="evenodd" transform="matrix(1 0 0 1 9.66104 81.8738)"/><path d="M470.593 316.206 425.57 386.44 469.775 395.247Z" fill="#E8F5FD" fill-rule="evenodd" transform="matrix(1 0 0 1 9.66104 81.8738)"/><path d="M497.79 317.404 470.176 409.051 470.593 317.003Z" fill="#E5F1FB" fill-rule="evenodd" transform="matrix(1 0 0 1 9.66104 81.8738)"/><path d="M127.707 342.709 88.0874 389.322 53.137 315.909Z" fill="#E9F3FB" fill-rule="evenodd" transform="matrix(1 0 0 1 9.66104 81.8738)"/><path d="M155.669 312.417 53.137 315.909 131.204 345.044Z" fill="#97DBF8" fill-rule="evenodd" transform="matrix(1 0 0 1 9.66104 81.8738)"/><path d="M661.302 212.561C661.823 212.697 662.876 213.14 664.465 213.885 664.986 214.109 665.637 214.229 666.466 214.229 667.305 214.229 668.212 213.963 669.228 213.432L670.426 213.322C671.521 213.192 672.427 213.083 673.152 213.03L676.872 212.817 678.191 212.697 678.233 212.697C678.326 212.697 678.54 212.697 678.873 212.723 680.036 212.817 680.885 212.869 681.432 212.869 681.74 212.869 682.182 212.858 682.766 212.817L687.102 212.619C687.185 212.603 687.597 212.697 688.332 212.895 688.462 212.952 688.613 212.963 688.717 212.963 688.769 212.963 689.051 212.911 689.556 212.791 690.478 212.749 691.104 212.681 691.411 212.593 691.615 212.535 692.026 212.431 692.651 212.244 693.48 212.629 694.131 212.817 694.626 212.817 694.772 212.817 695.523 212.713 696.883 212.499L697.868 212.645C698.535 212.525 698.91 212.473 698.988 212.473L699.858 212.499 702.057 212.473 703.725 212.535 704.298 212.525C705.017 212.499 705.392 212.483 705.46 212.473L706.82 212.124C706.82 212.124 706.872 212.15 706.966 212.191L707.367 212.869C708.034 212.806 708.514 212.765 708.795 212.765L710.838 213.072 710.89 213.072C710.958 212.989 711.182 212.593 711.583 211.868L712.104 212.593C712.13 212.645 712.506 212.671 713.251 212.671 713.292 212.671 713.85 212.885 714.918 213.322 714.996 213.348 715.064 213.364 715.142 213.364 715.32 213.364 715.439 213.312 715.507 213.192L716.185 211.988 717.8 213.39 718.477 213.51 719.238 213.75C719.603 213.724 719.843 213.578 719.999 213.322L719.332 212.869 719.228 212.442C718.785 212.296 718.519 212.176 718.441 212.098L717.706 211.295C717.612 211.201 717.357 211.082 716.893 210.894 716.424 210.712 715.945 210.618 715.476 210.618 715.304 210.618 715.09 210.628 714.824 210.67 714.116 210.79 713.688 210.857 713.516 210.857 713.344 210.857 713.141 210.842 712.943 210.831 712.386 210.748 712.052 210.722 711.943 210.722 711.703 210.722 711.276 210.774 710.65 210.894 710.114 210.988 709.624 211.029 709.197 211.029 709.113 211.029 708.326 210.951 706.846 210.805 706.471 210.764 706.127 210.748 705.794 210.748 705.684 210.748 704.553 210.805 702.365 210.894L701.151 210.748 699.176 211.67 698.269 210.748 697.67 210.925 696.815 210.977 695.377 211.071C695.377 211.071 695.241 211.045 695.002 210.977 694.736 210.91 694.481 210.868 694.215 210.868L694.189 210.868C694.053 210.868 693.376 210.925 692.188 211.003 691.922 211.014 691.667 211.029 691.453 211.029 691.104 211.029 690.828 210.962 690.572 210.857 690.708 210.712 690.76 210.628 690.76 210.618 690.76 210.508 690.385 210.201 689.65 209.711 689.546 209.643 689.223 209.242 688.691 208.497 688.623 208.387 688.342 208.106 687.904 207.653 687.545 207.319 687.373 207.079 687.373 206.96 687.373 206.506 688.008 206.095 689.28 205.735 689.89 205.558 690.213 205.401 690.213 205.266 690.213 205.256 690.077 205.078 689.838 204.771 689.718 204.625 689.624 204.385 689.556 204.078L689.04 204.078 689.092 203.281 689.838 202.958C690.041 202.65 690.145 202.426 690.145 202.28 690.145 202.119 690.103 201.801 690.025 201.342 689.983 201.102 689.957 200.863 689.957 200.597 689.957 200.316 690.041 199.529 690.171 198.252L690.265 197.007C690.291 196.517 690.317 196.074 690.359 195.73 690.4 195.302 690.426 195.063 690.426 195.005 690.426 194.688 690.291 194.474 690.051 194.396 690.041 194.38 689.879 194.338 689.624 194.276 689.452 194.25 689.254 194.14 689.009 193.979L689.009 193.823 688.905 193.755 689.624 193.286 689.624 192.473 690.478 192.155C688.707 191.394 687.795 190.644 687.795 189.899 687.795 189.206 688.665 188.606 690.385 188.096 690.129 187.872 689.983 187.668 689.983 187.512 689.983 187.366 690.041 187.001 690.119 186.418 690.129 186.256 690.145 186.084 690.145 185.912 690.145 185.792 690.129 185.615 690.119 185.375L690.452 185.271C690.307 184.578 690.223 184.094 690.223 183.828L690.223 183.802 690.333 182.843C690.374 181.962 690.4 181.457 690.426 181.332 690.437 181.254 690.546 180.972 690.718 180.519 690.426 179.909 690.265 179.508 690.265 179.331 690.265 179.2 690.28 179.028 690.291 178.815L690.213 178.731C689.462 178.653 689.092 178.455 689.092 178.148L689.092 178.122 689.28 177.585 690.291 177.799C690.317 177.481 690.359 177.241 690.426 177.132 690.546 176.824 690.614 176.637 690.614 176.61 690.614 176.6 690.572 176.454 690.478 176.173 690.463 176.063 690.452 175.959 690.452 175.85 690.452 175.719 690.505 175.011 690.614 173.744 690.624 173.531 690.531 172.786 690.291 171.478 690.254 171.196 690.223 170.93 690.223 170.691 690.223 170.54 690.374 170.076 690.64 169.299 690.52 168.7 690.411 168.356 690.333 168.288 690.213 168.221 689.838 168.127 689.254 167.991 688.863 167.903 688.587 167.783 688.41 167.674L687.956 167.272C687.461 167.272 687.195 167.262 687.128 167.236 685.929 166.631 685.158 166.272 684.783 166.142 684.434 166.475 684.262 166.741 684.262 166.965 684.262 167.033 684.355 167.324 684.527 167.846L684.501 168.57 684.715 169.263 684.851 170.555 684.955 171.3C684.955 171.905 685.007 172.275 685.09 172.436 685.21 172.661 685.528 172.958 686.023 173.275 685.611 173.625 685.398 173.916 685.398 174.146L685.398 174.172 685.492 175.25 685.492 176.532C685.554 177.184 685.585 177.679 685.585 178.054L686.049 178.492C686.039 178.664 686.023 178.815 686.023 178.893 686.023 179.028 686.049 179.268 686.117 179.576L685.622 179.946 685.492 179.946 685.674 180.467 685.674 184.495C685.663 184.615 685.705 184.912 685.794 185.334 685.903 185.761 685.955 186.11 685.955 186.392 685.955 186.496 685.888 186.803 685.768 187.335L685.622 188.471C685.57 188.794 685.554 188.966 685.554 189.018 685.554 189.044 685.69 189.378 685.955 190.003 685.981 190.378 686.007 190.592 686.049 190.644 686.117 190.779 686.383 190.873 686.878 190.941L686.878 191.379 685.888 191.217C685.742 191.618 685.674 191.9 685.674 192.02 685.674 192.181 685.731 192.431 685.825 192.796 685.877 192.942 685.929 193.166 685.981 193.489 685.705 193.567 685.46 193.645 685.278 193.729L685.372 194.328 685.372 199.065C685.372 199.341 685.757 199.622 686.529 199.904 687.315 200.196 687.706 200.409 687.706 200.571 687.706 200.649 687.305 200.878 686.502 201.238 686.159 201.384 685.742 201.623 685.278 201.983 685.742 202.16 685.981 202.332 685.981 202.504 685.981 202.52 685.862 202.827 685.648 203.411 685.622 203.468 685.622 203.531 685.622 203.614 685.622 203.802 685.637 203.984 685.674 204.224 685.127 204.719 684.851 205.318 684.851 206.011 684.851 206.173 684.996 206.438 685.314 206.814 685.142 207.257 685.023 207.522 684.955 207.653 684.918 207.746 684.903 207.773 684.903 207.773 684.929 208.226 685.835 208.773 687.649 209.414 687.836 209.482 687.93 209.534 687.93 209.617 687.93 209.654 686.971 209.857 685.064 210.19 684.835 210.216 684.715 210.321 684.715 210.524 684.715 210.592 684.767 210.68 684.851 210.831 684.184 211.055 683.183 211.191 681.833 211.217 681.432 211.217 680.822 211.243 680.02 211.295 679.978 211.295 679.952 211.295 679.926 211.295 679.848 211.295 679.353 211.227 678.431 211.108L676.07 211.269C675.976 211.269 675.763 211.201 675.403 211.097 675.085 211.295 674.788 211.405 674.512 211.405L674.455 211.405C674.001 211.405 673.761 211.405 673.735 211.405L672.11 211.842 671.615 211.67 671.015 211.472 669.963 211.071C669.092 211.217 668.613 211.295 668.519 211.295 668.332 211.295 667.774 211.243 666.867 211.139L665.398 211.139 664.277 211.108C664.09 211.108 663.558 211.201 662.662 211.363 662.61 211.389 662.48 211.405 662.302 211.405 661.943 211.405 661.344 211.347 660.479 211.269 660.447 211.295 660.421 211.347 660.411 211.405 660.369 211.431 660.343 211.457 660.343 211.472 660.343 211.592 660.489 211.764 660.781 211.988 660.942 212.108 661.13 212.296 661.302 212.561ZM724.23 191.608C724.23 191.832 724.548 192.139 725.148 192.541 726.513 193.38 727.67 193.927 728.644 194.193L729.566 193.421C729.363 193.02 729.191 192.431 729.087 191.686 728.952 191.087 728.884 190.712 728.884 190.581L728.884 189.669 728.378 189.086C728.378 188.669 728.592 188.273 729.061 187.882 728.926 187.726 728.858 187.606 728.858 187.58L728.926 186.35C728.926 186.35 728.91 186.272 728.884 186.084 728.873 185.975 728.858 185.792 728.858 185.521L728.696 180.8C728.727 180.56 728.858 179.998 729.097 179.091L729.165 178.064C729.301 177.575 729.363 177.278 729.363 177.199 729.363 176.85 729.165 176.532 728.79 176.267 728.696 176.173 728.3 175.959 727.618 175.61 726.607 174.969 726.002 174.636 725.872 174.583 725.669 174.516 725.481 174.479 725.309 174.479 725.069 174.479 724.814 174.583 724.574 174.771 724.658 175.183 724.694 175.454 724.725 175.6 724.736 175.798 724.856 176.157 725.069 176.678L725.095 177.892 725.309 180.305 725.309 180.748C725.335 181.014 725.497 181.149 725.804 181.149 725.882 181.149 725.992 181.149 726.112 181.123 726.216 181.389 726.257 181.577 726.257 181.665 726.257 181.801 726.205 182.056 726.07 182.442 726.018 182.603 725.95 182.843 725.898 183.124L725.377 183.458C725.445 183.817 725.455 184.083 725.455 184.255 725.455 184.333 725.455 184.469 725.445 184.63 725.445 184.761 725.445 184.88 725.445 184.974 725.445 185.188 725.538 185.428 725.752 185.683 725.538 185.897 725.445 186.095 725.445 186.308L725.445 186.683 725.377 187.257C726.695 187.444 727.362 187.616 727.362 187.778 727.362 187.778 727.336 187.804 727.3 187.845 726.992 188.059 726.617 188.163 726.164 188.163 725.846 188.163 725.445 188.153 724.976 188.111 725.043 188.367 725.069 188.523 725.069 188.606 725.069 188.643 724.991 189.461 724.814 191.061 724.788 191.259 724.606 191.431 724.23 191.608ZM724.788 201.504 724.788 201.53C724.736 202.119 725.273 202.733 726.362 203.411 726.617 203.557 726.872 203.786 727.164 204.067 727.19 204.078 727.393 204.213 727.789 204.453 728.55 205.36 729.019 205.865 729.207 205.975 729.514 206.162 729.78 206.24 729.978 206.24 730.062 206.24 730.301 206.121 730.687 205.865 731.088 205.641 731.276 205.36 731.276 205.026 731.276 204.761 731.099 204.531 730.729 204.344 729.78 203.802 728.873 203.197 728.003 202.556L727.138 202.103 726.059 201.504C725.471 201.264 725.148 201.134 725.059 201.134 724.882 201.134 724.788 201.264 724.788 201.504ZM755.512 192.942 756.497 193.432C756.82 193.14 757.018 192.952 757.154 192.859 757.195 192.832 757.409 192.739 757.795 192.608 758.008 192.541 758.899 191.848 760.463 190.524 760.958 190.112 761.302 189.727 761.474 189.351 761.651 189.044 761.823 188.658 762.01 188.215 762.141 187.976 762.276 187.684 762.448 187.309L762.234 187.152C761.995 187.178 761.687 187.257 761.302 187.366L760.114 187.017 759.077 187.178 758.139 186.975C756.872 187.7 756.195 188.07 756.127 188.07 756.007 188.07 755.528 187.726 754.673 187.059 753.35 187.246 752.657 187.335 752.563 187.335 752.245 187.335 751.859 187.309 751.406 187.272L751.244 187.366C750.911 187.335 750.015 187.309 748.55 187.309L747.414 187.215 745.986 187.126 744.533 186.923 743.225 186.949C742.036 186.657 741.224 186.485 740.796 186.428 740.676 185.881 740.572 185.485 740.478 185.282 740.359 185.032 740.103 184.761 739.733 184.469 740.4 184.109 740.744 183.854 740.796 183.708 740.984 182.655 741.198 181.962 741.37 181.603L741.932 181.347 741.771 180.441 742.735 180.243C742.948 179.576 743.199 179.122 743.532 178.893 743.855 178.679 744.361 178.533 745.08 178.455 745.189 177.945 745.346 177.653 745.575 177.543 745.747 177.455 746.106 177.387 746.695 177.345L747.216 176.704C747.44 176.73 747.644 176.756 747.816 176.756 747.92 176.756 748.55 176.558 749.655 176.147 749.91 176.037 750.176 175.985 750.468 175.985 750.739 175.985 751.255 176.089 752.042 176.277L754.032 176.465 755.538 176.814C756.247 176.84 756.742 176.892 756.992 176.944 757.341 177.064 757.993 177.345 758.899 177.814 759.806 178.252 760.343 178.544 760.489 178.721 760.864 179.054 761.208 179.424 761.531 179.867 761.703 180.065 761.995 180.159 762.396 180.159 762.584 180.159 762.849 180.055 763.209 179.841 763.063 179.252 762.928 178.867 762.808 178.695 761.943 177.543 761.396 176.772 761.166 176.397 760.9 176.491 760.661 176.543 760.489 176.543 760.353 176.543 760.02 176.386 759.462 176.053 759.087 175.865 758.634 175.745 758.076 175.719 756.794 175.422 755.914 175.276 755.408 175.224 754.564 175.157 754.043 175.105 753.803 175.052 753.162 174.891 752.829 174.813 752.818 174.813L750.989 175.026 749.91 174.875 749.389 174.849C748.884 174.813 748.509 174.787 748.243 174.787 747.961 174.787 747.216 174.839 745.986 174.959 745.585 174.985 745.403 174.995 745.403 174.995L744.746 175.318C743.199 175.704 742.344 175.933 742.172 175.985 742.078 176.037 741.734 176.293 741.13 176.73 741.078 176.756 740.734 176.944 740.035 177.278 739.462 177.559 739.17 177.773 739.118 177.918L738.556 178.705C738.477 178.841 738.128 179.148 737.503 179.638 737.717 179.909 737.821 180.107 737.821 180.243 737.821 180.279 737.555 180.748 737.023 181.613 736.878 181.853 736.794 182.546 736.794 183.724 736.794 184.083 736.945 184.667 737.237 185.495 737.487 186.136 737.649 186.511 737.758 186.605L738.821 187.606 739.488 188.752C740.187 189.284 741 189.873 741.891 190.524L744.157 191.644 746.44 192.9 747.284 193.02 749.629 193.619 751.161 193.713C752.375 194.073 753.042 194.26 753.162 194.26 754.314 194.26 755.111 193.823 755.512 192.942ZM751.911 189.216 752.432 188.684C752.844 188.763 753.126 188.804 753.271 188.82 753.829 188.882 754.376 188.992 754.939 189.164L756.685 189.044C756.711 189.044 756.768 189.127 756.846 189.284 756.872 189.393 756.872 189.471 756.872 189.539 756.872 189.685 756.753 189.857 756.497 190.086 756.471 190.112 756.367 190.206 756.195 190.378 755.71 190.915 755.392 191.155 755.273 191.128L754.246 191.514C754.137 191.566 753.939 191.754 753.673 192.087 753.084 192.155 752.057 192.181 750.619 192.181L750.004 192.207 748.952 191.712C748.91 191.67 748.347 191.566 747.253 191.368 746.403 191.128 745.643 190.884 744.986 190.644 744.824 190.566 744.439 190.284 743.772 189.805 743.652 189.727 743.412 189.581 743.068 189.351L743.068 189.216 743.131 189.164 745.387 188.445 746.07 187.898 747.268 189.06C747.373 189.127 747.466 189.164 747.602 189.164 747.67 189.164 748.175 189.06 749.108 188.846 749.134 188.846 749.15 188.846 749.176 188.846 749.441 188.846 750.03 188.924 750.921 189.086 751.135 189.138 751.469 189.18 751.911 189.216ZM770.28 191.582C770.4 191.884 770.588 192.155 770.869 192.395 771.067 192.582 771.599 192.832 772.469 193.166 773.36 193.609 773.871 193.823 773.991 193.823 774.361 193.823 774.642 193.729 774.83 193.515L774.949 193.098 775.189 192.327C775.147 192.139 775.111 192.004 775.111 191.9 775.111 191.754 775.215 191.582 775.455 191.379 775.856 191.488 776.419 191.686 777.122 192.004L778.43 192.353 779.723 193.046 780.551 193.312C781.005 193.489 781.26 193.583 781.302 193.583 781.302 193.583 781.526 193.552 781.979 193.489 782.031 193.489 782.057 193.489 782.089 193.489 782.177 193.489 782.886 193.661 784.178 194.005 784.329 194.036 784.637 194.062 785.101 194.062 785.46 194.062 785.715 194.005 785.861 193.927 785.877 193.916 786.091 193.755 786.502 193.432 786.758 193.395 786.888 193.354 786.93 193.354 786.982 193.354 787.289 193.489 787.836 193.713 787.878 193.729 787.93 193.739 787.982 193.739 788.248 193.739 788.571 193.609 788.915 193.354 789.249 193.14 789.488 192.78 789.624 192.311 789.316 192.061 788.701 191.67 787.784 191.155 787.331 190.686 786.997 190.461 786.784 190.461 786.461 190.461 786.023 190.727 785.486 191.259 785.116 191.217 784.809 191.207 784.553 191.207 784.288 191.207 783.845 191.311 783.235 191.498 782.724 191.644 782.234 191.738 781.724 191.795 781.51 191.462 781.177 191.285 780.697 191.259 780.114 191.217 779.754 191.191 779.619 191.155 778.79 190.951 778.378 190.857 778.378 190.857 778.3 190.857 778.123 190.915 777.883 191.019 777.472 190.738 776.752 190.284 775.721 189.701 775.054 189.31 774.751 188.643 774.762 187.684L774.762 187.616C774.762 187.418 774.762 187.163 774.762 186.829 774.788 186.522 774.788 186.282 774.788 186.084 774.788 185.912 774.548 185.631 774.084 185.271 774.428 184.974 774.6 184.724 774.6 184.51 774.6 184.391 774.574 184.255 774.538 184.083L775.002 183.974 775.095 183.244 775.257 178.815 775.137 178.544 774.324 178.2C773.162 178.012 772.573 177.877 772.573 177.825 772.573 177.757 773.23 177.653 774.538 177.507L775.069 177.601C775.283 177.064 775.377 176.678 775.377 176.491 775.377 176.105 775.147 175.813 774.668 175.6 774.48 175.516 773.949 175.422 773.084 175.344 772.907 175.318 772.453 175.12 771.734 174.729 771.599 174.662 771.468 174.636 771.297 174.636 770.801 174.636 770.546 174.813 770.546 175.157 770.546 175.25 770.708 175.719 771.015 176.558 771.052 176.652 771.083 176.756 771.083 176.85 771.083 176.892 771.026 177.267 770.921 177.96 770.921 178.012 770.963 178.158 771.052 178.387L771.802 178.559C771.812 178.705 771.828 178.841 771.828 178.961 771.828 179.174 771.667 179.424 771.359 179.721 771.359 179.946 771.359 180.149 771.359 180.331 771.359 180.482 771.297 180.868 771.171 181.509 771.239 182.04 771.265 182.509 771.265 182.879 772.026 183.093 772.417 183.348 772.417 183.682 772.417 183.76 772.375 183.911 772.323 184.067 772.068 184.015 771.87 184 771.693 184 771.547 184 771.385 184.057 771.171 184.187 771.171 184.521 771.171 184.88 771.171 185.282L771.171 186.657C771.171 186.793 771.161 186.949 771.145 187.111 771.145 187.272 771.145 187.403 771.145 187.512 771.145 187.762 771.281 188.127 771.547 188.565 771.281 188.752 771.119 188.914 771.083 189.044 771.052 189.086 771.015 189.617 770.963 190.644 770.932 190.847 770.708 191.155 770.28 191.582ZM791.703 191.582C791.838 191.884 792.026 192.155 792.292 192.395 792.49 192.582 793.037 192.832 793.907 193.166 794.788 193.609 795.293 193.823 795.429 193.823 795.788 193.823 796.08 193.729 796.252 193.515L796.388 193.098 796.627 192.327C796.575 192.139 796.534 192.004 796.534 191.9 796.534 191.754 796.643 191.582 796.883 191.379 797.294 191.488 797.852 191.686 798.55 192.004L799.853 192.353 801.161 193.046 801.99 193.312C802.443 193.489 802.683 193.583 802.724 193.583 802.724 193.583 802.964 193.552 803.417 193.489 803.459 193.489 803.485 193.489 803.511 193.489 803.605 193.489 804.314 193.661 805.606 194.005 805.768 194.036 806.07 194.062 806.539 194.062 806.888 194.062 807.138 194.005 807.284 193.927 807.315 193.916 807.524 193.755 807.925 193.432 808.191 193.395 808.326 193.354 808.368 193.354 808.404 193.354 808.712 193.489 809.259 193.713 809.301 193.729 809.353 193.739 809.42 193.739 809.686 193.739 809.994 193.609 810.353 193.354 810.676 193.14 810.916 192.78 811.062 192.311 810.755 192.061 810.14 191.67 809.207 191.155 808.753 190.686 808.436 190.461 808.222 190.461 807.888 190.461 807.461 190.727 806.924 191.259 806.554 191.217 806.247 191.207 805.992 191.207 805.726 191.207 805.283 191.311 804.658 191.498 804.163 191.644 803.673 191.738 803.152 191.795 802.938 191.462 802.604 191.285 802.125 191.259 801.552 191.217 801.187 191.191 801.041 191.155 800.218 190.951 799.801 190.857 799.801 190.857 799.733 190.857 799.561 190.915 799.321 191.019 798.91 190.738 798.175 190.284 797.159 189.701 796.492 189.31 796.174 188.643 796.184 187.684L796.184 187.616C796.184 187.418 796.184 187.163 796.184 186.829 796.216 186.522 796.226 186.282 796.226 186.084 796.226 185.912 795.986 185.631 795.507 185.271 795.867 184.974 796.039 184.724 796.039 184.51 796.039 184.391 796.012 184.255 795.976 184.083L796.44 183.974 796.534 183.244 796.679 178.815 796.56 178.544 795.747 178.2C794.585 178.012 794.011 177.877 794.011 177.825 794.011 177.757 794.668 177.653 795.976 177.507L796.492 177.601C796.706 177.064 796.799 176.678 796.799 176.491 796.799 176.105 796.575 175.813 796.096 175.6 795.908 175.516 795.372 175.422 794.506 175.344 794.334 175.318 793.892 175.12 793.157 174.729 793.037 174.662 792.891 174.636 792.729 174.636 792.24 174.636 791.984 174.813 791.984 175.157 791.984 175.25 792.13 175.719 792.438 176.558 792.49 176.652 792.505 176.756 792.505 176.85 792.505 176.892 792.453 177.267 792.359 177.96 792.359 178.012 792.396 178.158 792.479 178.387L793.225 178.559C793.251 178.705 793.251 178.841 793.251 178.961 793.251 179.174 793.105 179.424 792.797 179.721 792.797 179.946 792.797 180.149 792.797 180.331 792.797 180.482 792.729 180.868 792.599 181.509 792.667 182.04 792.703 182.509 792.703 182.879 793.464 183.093 793.839 183.348 793.839 183.682 793.839 183.76 793.798 183.911 793.761 184.067 793.506 184.015 793.292 184 793.131 184 792.985 184 792.813 184.057 792.599 184.187 792.599 184.521 792.599 184.88 792.599 185.282L792.599 186.657C792.599 186.793 792.584 186.949 792.573 187.111 792.573 187.272 792.573 187.403 792.573 187.512 792.573 187.762 792.703 188.127 792.974 188.565 792.703 188.752 792.547 188.914 792.505 189.044 792.49 189.086 792.438 189.617 792.396 190.644 792.37 190.847 792.13 191.155 791.703 191.582ZM818.785 183.51C819.024 183.817 819.264 184.031 819.493 184.151 819.665 184.229 820.28 184.365 821.349 184.536 822.146 184.854 822.656 185.042 822.933 185.11 823.11 185.151 823.735 185.203 824.788 185.282L825.788 185.547 826.362 185.605 826.924 185.657 828.123 185.657 830.577 185.912C831.296 185.949 831.75 186.032 831.937 186.126 832.313 186.334 832.5 186.642 832.5 187.059 832.5 187.137 832.417 187.403 832.245 187.845L833.86 189.43C833.86 189.461 833.219 189.617 831.937 189.94 831.833 189.966 831.526 189.977 831.005 189.977 830.124 190.873 829.592 191.379 829.446 191.472 829.217 191.54 828.446 191.644 827.081 191.822L826.08 191.822C825.627 191.926 825.335 191.967 825.189 191.967 825.028 191.967 824.788 191.952 824.48 191.926L823.897 192.515C823.443 192.379 823.094 192.191 822.839 191.967 822.641 191.795 822.307 191.634 821.88 191.498 820.801 191.155 819.905 190.753 819.212 190.31L818.785 190.097C818.503 189.779 818.347 189.607 818.253 189.565 818.013 189.461 817.716 189.404 817.383 189.404 817.263 189.404 816.877 189.487 816.237 189.669 815.543 189.794 815.116 189.914 814.944 189.992 814.772 190.097 814.517 190.3 814.235 190.607 814.585 190.821 814.835 190.967 814.97 191.071 815.33 191.311 815.57 191.446 815.689 191.462L817.143 191.738 818.076 192.129 820.051 192.608 821.281 193.036 822.563 193.036 823.949 193.354 824.532 193.369 825.616 193.526C826.643 193.515 827.268 193.499 827.55 193.499 827.831 193.489 828.389 193.354 829.217 193.156L829.952 193.072C830.765 192.952 831.328 192.885 831.661 192.832 831.953 192.822 832.313 192.634 832.782 192.285 832.417 192.035 832.245 191.832 832.245 191.67 832.245 191.446 832.365 191.326 832.62 191.326 832.782 191.326 833.032 191.394 833.329 191.514 833.537 191.582 833.819 191.66 834.194 191.738 834.475 191.524 834.605 191.248 834.621 190.899L835.408 190.461C835.45 190.274 835.46 190.164 835.46 190.112L835.382 189.153C835.606 188.419 835.835 187.965 836.059 187.778L836.179 187.778C836.247 187.418 836.33 187.017 836.419 186.59 836.487 185.641 836.528 185 836.554 184.698 836.075 184.458 835.846 184.245 835.846 184.015 835.846 183.776 836.117 183.562 836.674 183.348 836.7 183.15 836.716 182.963 836.716 182.817 836.716 182.666 836.674 182.374 836.58 181.947 836.554 181.759 836.554 181.587 836.554 181.399 836.554 180.852 836.674 180.185 836.888 179.388 836.513 179.081 836.341 178.789 836.341 178.481 836.341 178.242 836.513 177.918 836.862 177.517 836.904 177.455 836.966 177.293 837.075 177.053 837.143 176.934 837.263 176.72 837.419 176.386 837.195 176.173 837.023 175.959 836.914 175.772 836.768 175.652 836.435 175.516 835.955 175.37L834.793 174.943 834.048 174.771C833.271 174.573 832.86 174.453 832.782 174.453 832.568 174.453 832.339 174.542 832.099 174.729L832.552 176.386C831.953 176.267 831.098 176.011 829.952 175.61L829.056 175.464C828.535 175.37 828.243 175.318 828.217 175.318L827.081 175.412 825.934 174.943 825.325 174.906 822.813 174.479 821.505 174.557C820.864 174.37 820.442 174.276 820.213 174.276 819.905 174.276 819.108 174.385 817.784 174.609L816.492 174.703 815.528 175.026C814.809 175.24 814.277 175.454 813.928 175.662 813.61 175.85 813.37 176.173 813.183 176.61L812.474 176.814C812.38 176.986 812.287 177.278 812.193 177.705L811.875 178.789 811.875 178.815C811.859 178.945 811.995 179.185 812.276 179.518 812.516 179.774 812.797 180.185 813.141 180.79 814.157 181.587 814.835 182.093 815.168 182.332 815.45 182.509 816.106 182.76 817.117 183.109 817.69 183.4 818.05 183.546 818.196 183.546 818.357 183.546 818.545 183.536 818.785 183.51ZM816.877 178.242C816.706 178.012 816.56 177.788 816.408 177.559 816.169 177.267 816.075 177.064 816.106 176.97L816.408 176.491 817.279 177.09C817.987 176.678 818.467 176.48 818.733 176.454 819.493 176.277 819.905 176.183 819.973 176.173 820.093 176.105 820.265 175.933 820.494 175.652 820.973 175.6 821.291 175.574 821.453 175.542 821.625 175.532 821.76 175.516 821.854 175.516 822.094 175.516 822.359 175.636 822.693 175.876 822.99 175.719 823.23 175.626 823.443 175.626 823.48 175.626 823.709 175.73 824.121 175.943L824.991 175.798C824.991 175.798 825.533 175.959 826.659 176.267L827.456 176.574 828.149 176.465 829.311 176.866 830.697 177.278C831.046 177.72 831.244 177.971 831.338 178.028 831.526 178.184 831.885 178.32 832.417 178.424L832.604 179.226C832.98 179.388 833.204 179.612 833.287 179.92 833.006 180.081 832.792 180.253 832.672 180.441 832.688 180.722 832.698 180.936 832.698 181.066L832.698 181.457C832.672 181.91 832.662 182.28 832.63 182.603 832.604 182.697 832.604 182.791 832.604 182.879 832.604 183.067 832.688 183.364 832.86 183.75 832.672 183.76 832.432 183.854 832.141 184.041L830.807 184.015 829.603 184.067 828.67 184.041 828.081 184.041C828.003 184.041 827.696 184.177 827.148 184.427L826.481 184.255C825.642 184.255 825.043 184.213 824.642 184.125 824.402 184.031 824.189 183.989 824.027 183.989 823.991 183.989 823.746 184.041 823.308 184.151 823.292 184.151 823.266 184.151 823.24 184.151 823.146 184.151 822.813 183.989 822.255 183.698 822.188 183.64 821.64 183.484 820.655 183.187 819.332 182.733 818.383 182.296 817.8 181.879 817.742 181.827 817.518 181.577 817.117 181.134 816.997 180.988 816.622 180.842 816.039 180.706 815.955 180.602 815.903 180.508 815.903 180.441 815.903 180.388 815.997 180.279 816.158 180.149L816.372 178.815C816.424 178.679 816.586 178.492 816.877 178.242Z" stroke="#0066B2" stroke-width="0.28815" fill="#0066B2" fill-rule="evenodd" transform="matrix(1 0 0 -1 9.66104 638.964)"/><path d="M861.348 188.106 862.438 187.939 862.646 188.106 862.339 189.388C862.755 189.612 863.021 189.737 863.146 189.779 863.23 189.82 863.813 190.295 864.918 191.186L865.741 191.66C866.158 191.936 866.476 192.092 866.7 192.092 866.883 192.092 867.247 192.035 867.789 191.952L868.222 191.686C868.613 191.91 869.087 192.103 869.603 192.259L869.603 192.9C869.78 193.01 870.259 193.182 871.036 193.385L872.458 193.791 873.521 193.864C874.006 193.989 874.298 194.057 874.381 194.057 874.538 194.057 874.788 193.958 875.121 193.791 875.721 193.458 876.111 193.249 876.309 193.166L876.909 193.791C877.534 193.64 877.951 193.557 878.149 193.541 879.483 193.359 880.212 193.234 880.322 193.192L881.062 192.827C881.145 192.775 881.255 192.749 881.395 192.749 881.703 192.749 882.094 192.885 882.552 193.166 882.26 193.473 882.104 193.64 882.094 193.708L881.896 195.24 881.745 195.73C883 196.428 883.626 196.819 883.626 196.902 883.626 197.027 883.261 197.403 882.526 197.986 882.052 198.393 881.802 199.101 881.802 200.107L882.578 200.43C882.396 200.665 882.26 200.972 882.203 201.363 881.896 202.129 881.729 202.645 881.703 202.921L881.619 203.619C881.646 204.109 881.661 204.75 881.687 205.516 881.687 205.782 881.76 206.173 881.927 206.699L881.588 208.111C881.588 208.195 881.661 208.346 881.771 208.585L882.328 208.846C882.161 209.127 882.052 209.252 881.995 209.226 881.911 209.32 881.63 209.362 881.156 209.362L880.963 209.435 880.864 209.487 883.386 210.8 882.735 211.425 882.526 212.572C882.484 212.864 882.135 213.088 881.494 213.239 880.504 213.531 879.999 213.729 879.999 213.838 879.999 213.937 880.129 214.073 880.364 214.245 880.52 214.354 881.27 214.521 882.636 214.729 883.026 215.177 884.016 215.485 885.606 215.652 885.747 215.417 885.83 215.026 885.856 214.505L885.913 214.036 885.913 214.005C885.913 213.994 885.84 213.63 885.705 212.921L885.705 212.207 885.648 211.79 885.648 209.002C885.648 208.862 885.606 208.695 885.523 208.497 885.324 208.028 885.241 207.773 885.241 207.746L885.356 205.907 884.741 205C884.923 204.458 885.189 203.968 885.523 203.536L885.241 202.629 885.356 201.921C885.231 201.53 885.147 201.306 885.147 201.248 885.147 200.956 885.215 200.597 885.356 200.164 885.397 199.982 885.423 199.826 885.423 199.69 885.423 199.565 885.356 199.44 885.241 199.268L884.558 199.159C884.334 198.799 884.209 198.502 884.209 198.325 884.209 198.226 884.241 198.111 884.251 197.96 884.949 197.611 885.314 197.288 885.356 196.996 885.356 196.944 885.314 196.454 885.215 195.537 885.189 195.464 885.189 195.381 885.189 195.313 885.189 194.88 885.231 194.406 885.298 193.906 885.34 193.724 885.356 193.567 885.356 193.473 885.356 193.432 885.356 193.385 885.324 193.317 885.298 193.01 885.272 192.874 885.272 192.874L885.298 192.27C885.033 191.894 884.892 191.686 884.892 191.634 884.892 191.634 884.923 191.201 884.965 190.336L884.991 189.904 885.064 188.45 885.272 186.793 885.298 186.277 885.423 185.12 885.324 183.906 885.799 181.759 885.757 180.8C886.049 179.878 886.205 179.279 886.231 179.002 886.247 178.627 886.273 178.262 886.289 177.939 886.638 177.679 886.82 177.413 886.82 177.121 886.82 177.022 886.82 176.913 886.82 176.798 886.58 176.715 885.84 176.605 884.631 176.506 883.693 176.34 882.943 176.23 882.328 176.183L881.896 176.475C881.369 176.183 880.879 175.99 880.447 175.891 880.265 175.839 879.405 175.699 877.841 175.474 875.627 175.026 874.037 174.807 873.089 174.807 871.593 174.625 870.676 174.526 870.301 174.526 868.404 174.526 866.909 174.636 865.835 174.849L865.293 175.574C864.678 175.308 864.303 175.167 864.152 175.167 864.011 175.167 863.902 175.276 863.803 175.474 863.772 175.516 863.735 175.673 863.678 175.917 863.662 176.016 863.537 176.141 863.329 176.308 862.938 176.157 862.63 176.089 862.396 176.089 862.115 176.089 861.864 176.173 861.63 176.34 860.807 176.897 860.207 177.272 859.827 177.47 859.9 177.72 859.926 177.929 859.926 178.106 859.926 178.445 859.743 178.737 859.368 179.002 858.894 179.336 858.66 179.518 858.628 179.56L858.535 180.034C858.227 181.233 858.071 181.884 858.071 181.983 858.071 182.264 858.144 182.598 858.269 182.973 858.352 183.239 858.409 183.614 858.409 184.13L858.936 184.901C859.717 186.475 860.192 187.335 860.374 187.491 860.567 187.658 860.9 187.856 861.364 188.106ZM863.079 180.06C863.511 179.867 863.772 179.711 863.829 179.602L864.11 179.044C864.637 178.471 864.986 178.106 865.126 177.955 865.267 177.788 865.684 177.512 866.341 177.079L867.107 176.465 867.94 176.115C868.628 175.699 869.003 175.501 869.056 175.501 869.436 175.501 869.728 175.917 869.947 176.756 870.702 176.407 871.359 176.241 871.943 176.241L874.595 176.308 875.861 176.308 878.592 176.814C879.655 176.954 880.28 177.106 880.473 177.257 880.978 177.846 881.395 178.278 881.713 178.57 881.546 178.82 881.479 178.987 881.505 179.044L881.661 179.711 881.661 181.65 881.687 183.223C881.562 183.671 881.479 184.062 881.437 184.411L882.495 184.729C882.37 185.011 882.302 185.235 882.302 185.428 882.302 185.553 882.318 185.719 882.344 185.917L881.661 186.069 883.542 187.298 881.687 188.997 881.713 189.497C881.713 189.539 881.661 189.638 881.505 189.789L881.505 190.628C881.156 190.738 880.921 190.811 880.796 190.811 880.713 190.811 880.39 190.712 879.863 190.529 879.848 190.519 879.738 190.503 879.53 190.503 878.884 190.503 878.451 190.587 878.217 190.753L877.143 191.545 875.038 192.061 873.839 192.707C872.99 191.837 872.531 191.41 872.474 191.394L872.125 191.394C871.791 191.394 871.276 191.269 870.577 191.019L869.743 191.076C869.254 191.076 868.654 190.769 867.972 190.17L866.956 190.279C866.617 189.946 866.382 189.763 866.242 189.695L865.225 189.221C864.418 188.664 864.037 188.148 864.079 187.684 863.469 187.366 862.995 186.975 862.62 186.527 862.062 185.86 861.781 185.511 861.781 185.511 861.682 185.303 861.63 184.901 861.63 184.312 861.63 184.062 861.698 183.739 861.849 183.348L861.974 182.791 862.24 182.181 862.521 181.54C862.922 181.035 863.12 180.701 863.12 180.566 863.12 180.409 863.105 180.243 863.079 180.06ZM912.286 192.942 913.266 193.442C913.584 193.135 913.792 192.952 913.933 192.874 913.975 192.827 914.168 192.749 914.574 192.608 914.782 192.535 915.663 191.837 917.237 190.529 917.727 190.112 918.071 189.721 918.253 189.357 918.42 189.054 918.592 188.664 918.785 188.215 918.91 187.981 919.05 187.684 919.217 187.324L919.009 187.158C918.769 187.184 918.461 187.257 918.071 187.366L916.888 187.033 915.84 187.184 914.923 186.975C913.641 187.7 912.959 188.059 912.901 188.059 912.776 188.059 912.302 187.726 911.453 187.059 910.129 187.241 909.431 187.335 909.347 187.335 909.014 187.335 908.623 187.324 908.175 187.267L908.008 187.366C907.685 187.335 906.778 187.324 905.319 187.324L904.188 187.225 902.755 187.126 901.302 186.918 900.004 186.949C898.805 186.652 897.998 186.485 897.565 186.433 897.456 185.876 897.357 185.485 897.247 185.276 897.133 185.037 896.872 184.761 896.507 184.464 897.164 184.104 897.523 183.854 897.565 183.713 897.763 182.655 897.972 181.957 898.138 181.592L898.696 181.358 898.545 180.435 899.504 180.243C899.712 179.57 899.978 179.127 900.296 178.903 900.619 178.695 901.119 178.539 901.859 178.455 901.958 177.955 902.125 177.647 902.349 177.548 902.516 177.455 902.88 177.382 903.464 177.345L903.996 176.715C904.214 176.741 904.413 176.756 904.579 176.756 904.704 176.756 905.319 176.564 906.434 176.141 906.685 176.048 906.95 175.99 907.242 175.99 907.508 175.99 908.034 176.089 908.816 176.282L910.796 176.465 912.318 176.814C913.026 176.84 913.516 176.897 913.766 176.954 914.115 177.064 914.756 177.356 915.674 177.814 916.58 178.247 917.112 178.554 917.263 178.711 917.628 179.044 917.977 179.435 918.31 179.867 918.477 180.06 918.758 180.159 919.175 180.159 919.358 180.159 919.618 180.06 919.983 179.852 919.832 179.252 919.707 178.877 919.592 178.695 918.717 177.538 918.17 176.772 917.935 176.397 917.669 176.491 917.445 176.548 917.263 176.548 917.138 176.548 916.804 176.381 916.231 176.058 915.872 175.865 915.397 175.74 914.84 175.709 913.568 175.433 912.677 175.276 912.187 175.224 911.338 175.151 910.812 175.099 910.588 175.058 909.931 174.886 909.613 174.807 909.582 174.807L907.758 175.026 906.685 174.886 906.153 174.86C905.663 174.807 905.278 174.792 905.012 174.792 904.746 174.792 903.996 174.849 902.755 174.959 902.365 174.985 902.167 175 902.167 175L901.526 175.318C899.978 175.699 899.113 175.933 898.946 175.99 898.847 176.048 898.498 176.298 897.899 176.73 897.862 176.772 897.497 176.954 896.815 177.288 896.242 177.548 895.934 177.773 895.892 177.929L895.335 178.711C895.252 178.836 894.902 179.153 894.277 179.643 894.485 179.909 894.595 180.102 894.595 180.243 894.595 180.284 894.319 180.758 893.787 181.624 893.652 181.848 893.579 182.556 893.579 183.724 893.579 184.078 893.719 184.677 893.996 185.495 894.261 186.136 894.428 186.517 894.527 186.6L895.585 187.601 896.268 188.747C896.95 189.289 897.774 189.873 898.67 190.529L900.926 191.644 903.224 192.9 904.063 193.025 906.403 193.625 907.925 193.724C909.134 194.083 909.806 194.25 909.931 194.25 911.088 194.25 911.885 193.817 912.286 192.942ZM908.691 189.221 909.207 188.69C909.613 188.757 909.889 188.799 910.046 188.815 910.603 188.882 911.145 188.997 911.703 189.164L913.459 189.039C913.485 189.039 913.542 189.122 913.61 189.289 913.641 189.388 913.652 189.471 913.652 189.539 913.652 189.695 913.527 189.862 913.266 190.086 913.235 190.112 913.136 190.211 912.959 190.378 912.484 190.904 912.161 191.155 912.052 191.128L911.02 191.519C910.905 191.577 910.713 191.759 910.431 192.092 909.848 192.15 908.831 192.191 907.393 192.191L906.778 192.218 905.72 191.712C905.694 191.686 905.121 191.577 904.037 191.368 903.172 191.128 902.401 190.894 901.75 190.644 901.609 190.571 901.203 190.295 900.551 189.805 900.426 189.721 900.186 189.581 899.837 189.357L899.837 189.221 899.91 189.164 902.151 188.45 902.834 187.892 904.037 189.065C904.147 189.138 904.241 189.164 904.371 189.164 904.439 189.164 904.939 189.054 905.877 188.846 905.903 188.846 905.919 188.846 905.945 188.846 906.21 188.846 906.81 188.924 907.701 189.096 907.909 189.138 908.232 189.18 908.691 189.221ZM936.419 166.47C936.909 166.538 937.31 166.72 937.617 167.027 938.05 167.444 938.441 167.726 938.8 167.851 940.072 168.268 940.937 168.559 941.369 168.752 941.588 168.533 941.703 168.351 941.703 168.184 941.703 168.002 941.604 167.835 941.421 167.684 941.385 167.637 941.02 167.418 940.337 167.027 940.212 166.954 940.056 166.788 939.848 166.527 939.472 166.079 939.29 165.657 939.29 165.24 939.29 165.146 939.306 164.974 939.347 164.766 938.847 164.589 938.581 164.391 938.581 164.156 938.581 163.932 938.675 163.807 938.889 163.734 938.925 163.724 939.014 163.708 939.139 163.708 939.306 163.692 939.53 163.64 939.806 163.557 939.962 163.192 940.306 162.833 940.895 162.494 941.677 162.035 942.302 161.754 942.745 161.629L943.25 160.988C944.407 160.753 945.147 160.639 945.507 160.639 945.647 160.639 945.856 160.67 946.122 160.727 946.231 160.738 946.33 160.753 946.403 160.753 946.523 160.753 946.987 160.362 947.794 159.581L948.076 160.055C948.154 160.404 948.243 160.571 948.352 160.571L952.714 160.446C952.771 160.446 952.912 160.472 953.12 160.545 953.329 160.613 953.652 160.686 954.11 160.753 956.143 161.045 957.456 161.269 958.013 161.436 959.295 161.827 959.993 162.051 960.119 162.077 960.311 162.119 960.718 162.134 961.343 162.145 961.51 162.285 961.692 162.494 961.901 162.775 961.974 162.843 962.557 163.15 963.699 163.682 964.131 163.948 964.496 164.14 964.772 164.25 964.855 164.464 965.027 164.656 965.246 164.823 965.595 165.047 965.762 165.23 965.736 165.339L965.585 166.261C965.861 166.772 966.002 167.22 966.028 167.585 966.044 167.778 966.07 167.918 966.111 168.002 966.294 168.408 966.393 168.627 966.393 168.7 966.393 168.867 966.169 169.008 965.736 169.117 965.496 169.914 965.194 170.498 964.871 170.831 964.595 171.097 964.438 171.306 964.438 171.462 964.438 171.613 964.47 171.78 964.511 171.947 963.396 172.546 961.932 172.952 960.145 173.161L960.119 173.161C959.837 173.161 959.67 173.161 959.587 173.161 959.478 173.145 959.42 173.135 959.42 173.135 959.337 173.135 958.946 173.202 958.279 173.343 958.071 173.369 957.888 173.385 957.721 173.385 957.44 173.385 957.107 173.354 956.7 173.312 956.398 173.27 956.132 173.244 955.892 173.244 955.783 173.244 955.408 173.385 954.793 173.677 954.751 173.692 954.709 173.703 954.668 173.703 954.543 173.703 954.095 173.562 953.329 173.27L952.589 173.161 951.374 172.994 949.775 174.302 948.753 173.036C948.753 173.036 948.56 173.103 948.17 173.244 948.003 173.312 947.82 173.343 947.638 173.343 947.471 173.343 947.294 173.343 947.081 173.312 946.763 172.937 946.387 172.744 945.965 172.744 945.773 172.744 945.257 172.827 944.465 172.994 943.766 173.119 943.125 173.343 942.51 173.619 941.552 174.068 941.031 174.427 940.937 174.708 940.895 174.792 940.827 175.042 940.739 175.459 940.588 175.99 940.504 176.282 940.504 176.324 940.504 176.689 940.812 177.121 941.453 177.637 942.146 178.195 942.609 178.539 942.818 178.664 943.011 178.794 943.401 178.987 943.959 179.211L944.756 179.602C945.58 179.685 946.064 179.753 946.221 179.81 946.356 179.852 946.653 180.008 947.081 180.269L947.081 180.368C946.82 180.477 946.596 180.519 946.403 180.519 946.122 180.519 945.799 180.508 945.455 180.477 945.231 180.435 945.064 180.425 944.923 180.425 944.506 180.425 943.865 180.618 943 180.993 942.792 181.092 942.667 181.191 942.625 181.29 942.609 181.3 942.526 181.525 942.385 181.973 942.318 182.181 942.109 182.317 941.76 182.431 941.229 182.541 940.963 182.598 940.963 182.614L940.53 183.182C940.139 183.614 939.931 183.906 939.931 184.078 939.931 184.104 940.004 184.479 940.129 185.193 940.155 185.959 940.181 186.402 940.238 186.517 940.28 186.584 940.462 186.793 940.77 187.158 940.895 187.298 940.963 187.434 940.963 187.601 940.963 187.767 940.864 188.023 940.671 188.398 941.062 188.664 941.578 189.138 942.286 189.847 942.536 190.071 943.052 190.378 943.834 190.769L945.382 191.952C945.564 192.092 945.799 192.16 946.054 192.191 946.403 192.259 946.596 192.317 946.664 192.343 946.737 192.384 946.83 192.468 946.929 192.634 947.378 192.692 948.545 192.916 950.4 193.333L951.447 193.432C952.146 193.541 952.63 193.598 952.87 193.598 953.078 193.598 953.818 193.526 955.1 193.385 956.007 193.385 956.69 193.359 957.148 193.333 957.581 193.682 958.154 193.958 958.878 194.166 959.238 194.281 959.478 194.349 959.587 194.349 959.827 194.349 960.218 194.297 960.733 194.224 961.109 194.156 961.458 194.13 961.776 194.13 962.292 194.13 962.99 194.156 963.855 194.239L963.881 194.239C964.079 194.239 964.423 194.073 964.97 193.708 965.361 193.75 965.554 193.932 965.554 194.266 965.554 194.365 965.538 194.474 965.528 194.615 966.184 194.891 966.851 195.172 967.534 195.438 967.591 195.448 967.768 195.464 968.065 195.48 968.248 195.49 968.498 195.537 968.831 195.62 968.983 195.48 969.055 195.355 969.055 195.256 969.055 194.464 968.274 193.807 966.726 193.307 966.684 193.01 966.617 192.801 966.518 192.676 966.403 192.551 966.153 192.384 965.736 192.15 965.288 191.868 964.887 191.702 964.537 191.66 963.954 191.577 963.532 191.535 963.266 191.535 963.115 191.535 963.031 191.545 963.016 191.577L962.041 192.66C961.974 192.733 961.885 192.775 961.807 192.775 961.416 192.775 961.051 192.369 960.702 191.577 960.984 191.337 961.176 191.186 961.291 191.113 961.817 190.738 962.14 190.503 962.239 190.404 962.318 190.295 962.432 190.097 962.516 189.779L963.047 189.44 963.047 188.664 963.141 188.565 962.151 188.174 962.151 187.856C962.542 187.642 962.74 187.449 962.74 187.267 962.74 186.835 962.281 186.251 961.374 185.485L960.603 184.771 958.988 183.77 958.529 183.156C958.461 183.072 958.18 182.905 957.721 182.681L957.164 182.39C956.341 181.957 955.533 181.65 954.725 181.467 953.61 181.191 952.922 181.05 952.656 181.035 952.156 180.983 951.682 180.899 951.239 180.785 951.249 180.592 951.265 180.409 951.265 180.253 951.265 180.034 951.14 179.794 950.89 179.56 949.941 179.56 949.316 179.544 949.019 179.503 948.712 179.445 948.06 179.268 947.054 178.945 945.606 178.711 944.756 178.528 944.491 178.403 943.683 178.054 943.151 177.663 942.901 177.246 942.818 177.079 942.745 176.98 942.745 176.965 942.875 176.756 943.641 176.548 945.048 176.34 945.455 176.157 945.757 175.891 945.939 175.558 946.471 175.673 946.888 175.725 947.211 175.725L949.009 175.532 949.035 175.532C949.384 175.532 949.676 175.558 949.9 175.6 950.134 175.641 950.291 175.657 950.301 175.657 950.483 175.615 950.931 175.224 951.63 174.443 951.807 174.234 952.021 174.12 952.229 174.12 952.323 174.12 952.411 174.177 952.49 174.292 952.912 174.985 953.177 175.375 953.302 175.459 954.079 175.891 954.808 176.1 955.434 176.1L956.523 176.032 956.549 176.032 958.013 176.1C958.237 176.089 958.472 175.865 958.722 175.433L959.154 175.433 959.618 176.048C959.952 176.074 960.244 176.074 960.509 176.074 960.676 176.074 961.135 176.016 961.875 175.907L962.766 175.85 963.672 175.516C965.095 175.141 966.002 174.886 966.393 174.719 966.377 174.583 966.361 174.469 966.361 174.375 966.361 174.234 966.559 173.968 966.976 173.552L967.992 173.734C968.581 173.51 968.915 173.27 969.024 173.062 969.04 173.01 969.108 172.827 969.191 172.489L969.639 171.53 969.821 170.498 970.072 169.607C970.072 169.591 969.988 169.2 969.79 168.45 969.665 167.903 969.405 167.278 968.998 166.553 968.816 166.272 968.456 165.897 967.899 165.407L967.299 164.531C967.034 164.198 966.877 163.989 966.794 163.906 966.752 163.807 966.585 163.75 966.294 163.734 966.07 163.473 965.877 163.291 965.71 163.223 965.637 163.166 965.304 162.999 964.663 162.718 964.162 162.259 963.798 161.994 963.547 161.91 963.115 161.754 962.474 161.493 961.593 161.102L959.769 160.503 958.904 160.112 957.721 159.862 956.716 159.497 956.242 159.471 955.324 159.315 952.995 159.164C951.406 158.757 950.457 158.549 950.176 158.549L948.451 158.648 948.409 158.648C947.852 158.648 947.57 158.664 947.544 158.705 947.529 158.716 947.32 159.081 946.961 159.779L946.288 158.716 944.98 159.695 943.766 158.674 943.683 158.716 943.193 158.914C942.651 159.232 942.328 159.398 942.234 159.445 942.109 159.456 941.588 159.471 940.713 159.513 940.337 159.523 940.113 159.57 940.004 159.664L939.29 160.029 938.399 160.472 937.716 160.946C936.992 161.196 936.585 161.368 936.502 161.41 936.32 161.493 936.044 161.842 935.668 162.452 935.319 163.041 935.147 163.599 935.147 164.099 935.147 164.417 935.361 164.948 935.793 165.688 936.002 166.037 936.21 166.313 936.419 166.47ZM944.98 185.203C944.939 184.979 944.923 184.787 944.923 184.62 944.923 184.297 945.033 184.078 945.283 183.922 945.408 183.854 945.773 183.797 946.33 183.698 947.054 183.166 947.471 182.864 947.596 182.822 948.196 182.556 949.201 182.431 950.64 182.431 950.947 182.431 951.447 182.515 952.146 182.666L952.88 182.697 955.116 183.432C955.241 183.463 955.533 183.479 956.007 183.479 956.382 183.854 956.94 184.229 957.706 184.635 957.857 184.745 957.982 184.844 958.071 184.938 958.097 184.953 958.18 185.193 958.347 185.652 958.613 186.168 958.753 186.485 958.753 186.61 958.753 187.126 958.712 187.684 958.628 188.314 958.555 188.914 958.123 189.44 957.305 189.914 956.966 190.128 956.632 190.43 956.283 190.878 956.132 191.061 955.934 191.186 955.674 191.269 955.559 191.311 955.152 191.394 954.428 191.519L953.943 191.743 953.104 191.967 952.813 192.035 951.374 191.702C950.723 191.785 950.358 191.827 950.259 191.827 949.983 191.827 949.425 191.702 948.56 191.452L947.669 191.326C947.518 191.311 947.294 191.186 946.961 190.977 946.679 190.936 946.481 190.863 946.33 190.753 945.981 190.472 945.647 190.196 945.283 189.888 944.798 189.456 944.506 189.19 944.392 189.081 944.282 188.955 944.199 188.617 944.115 188.09 943.985 187.533 943.933 186.991 943.933 186.433 943.933 186.168 943.975 185.985 944.058 185.876 944.199 185.693 944.506 185.469 944.98 185.203ZM973.308 214.594C973.626 214.662 973.876 214.761 974.084 214.86 974.574 215.136 974.949 215.302 975.231 215.386 975.773 215.584 976.304 215.902 976.778 216.35 976.872 216.35 976.971 216.35 977.039 216.35 977.518 216.35 977.768 216.126 977.768 215.678L977.768 215.636C977.768 215.527 977.753 215.428 977.727 215.302 977.711 215.219 977.695 215.177 977.695 215.162L978.003 214.297 977.878 212.223C977.852 210.899 977.836 210.185 977.81 210.117 977.779 209.951 977.596 209.737 977.294 209.461L977.112 208.669 977.768 208.585C977.878 208.179 977.935 207.887 977.935 207.705 977.935 207.382 977.727 207.064 977.294 206.715 977.252 206.256 977.237 205.959 977.237 205.824 977.237 205.641 977.378 205.459 977.643 205.292 977.654 204.974 977.669 204.734 977.669 204.594L977.503 201.498 977.503 198.367C977.503 198.2 977.336 197.877 976.961 197.403 976.83 197.22 976.778 197.053 976.778 196.902 976.778 196.887 976.914 196.47 977.211 195.672 977.211 195.662 977.211 195.62 977.211 195.547 977.211 195.313 976.987 195.021 976.554 194.714L977.237 193.526 977.57 193.333 977.57 191.801 977.669 186.235 977.112 185.97C977.169 185.61 977.211 185.303 977.211 185.078 977.211 185.011 977.138 184.62 977.013 183.896 977.013 183.864 977.013 183.645 977.013 183.223L977.987 183.13C977.919 183.015 977.893 182.947 977.893 182.947L978.451 178.929 978.378 177.898C978.519 177.397 978.576 177.147 978.576 177.147 978.159 176.631 977.945 176.34 977.945 176.282 977.945 176.199 978.003 176.1 978.112 175.964 977.685 175.824 977.112 175.584 976.372 175.224 975.924 175.026 975.689 174.917 975.647 174.901 975.606 174.886 975.397 174.875 975.033 174.875 974.548 174.568 974.141 174.401 973.834 174.401 973.751 174.401 973.61 174.443 973.401 174.495 973.417 174.761 973.433 174.959 973.433 175.125 973.433 175.292 973.391 175.542 973.308 175.891 973.266 176.048 973.25 176.173 973.25 176.282 973.25 176.34 973.334 176.59 973.5 177.048L973.558 177.59 973.683 178.33 973.599 178.804 976.189 180.128 973.683 181.525 973.74 181.848 973.959 182.739 974.24 183.348C974.24 183.38 974.058 183.687 973.683 184.245 973.626 184.344 973.599 184.437 973.599 184.51 973.599 184.563 973.74 184.912 974.058 185.553 974.282 186.016 974.407 186.475 974.423 186.876L973.709 187.184C973.709 187.59 973.709 187.866 973.709 188.023 973.683 188.398 973.652 188.648 973.652 188.757 973.652 188.815 973.766 189.164 973.99 189.847 974.016 189.904 974.032 190.039 974.032 190.237 974.032 190.821 973.99 191.462 973.907 192.176 973.865 192.426 973.834 192.66 973.834 192.859 973.834 193.025 974.001 193.385 974.334 193.974 974.35 194.474 974.423 194.88 974.517 195.172L973.865 195.798 973.865 201.238C974.126 201.405 974.308 201.556 974.392 201.722 974.501 202.004 974.683 202.322 974.892 202.687 974.465 202.827 974.115 202.968 973.834 203.135 973.99 203.593 974.058 203.885 974.058 203.995 974.058 204.161 973.865 204.318 973.5 204.5 973.433 204.719 973.401 205.016 973.401 205.375L973.375 206.392C973.375 206.522 973.516 206.772 973.808 207.163 973.865 207.231 973.907 207.288 973.907 207.356 973.907 207.382 973.85 207.554 973.725 207.845 973.61 208.122 973.558 208.278 973.527 208.288 973.527 208.288 973.5 208.346 973.433 208.445L975.757 209.753 974.167 211.457C973.375 212.322 972.969 212.822 972.969 212.958 972.969 213.088 973.042 213.364 973.167 213.77 973.219 213.963 973.266 214.229 973.308 214.594Z" stroke="#0066B2" stroke-width="0.28815" fill="#0066B2" fill-rule="evenodd" transform="matrix(1 0 0 -1 9.66104 638.964)"/><path d="M991.645 183.51C991.885 183.812 992.125 184.036 992.349 184.151 992.526 184.229 993.141 184.365 994.214 184.542 995.006 184.854 995.528 185.047 995.799 185.11 995.976 185.151 996.591 185.198 997.648 185.287L998.649 185.558 999.233 185.615 999.785 185.662 1000.99 185.662 1003.44 185.902C1004.16 185.959 1004.63 186.037 1004.8 186.126 1005.16 186.35 1005.36 186.647 1005.36 187.064 1005.36 187.142 1005.28 187.408 1005.11 187.84L1006.72 189.44C1006.72 189.456 1006.09 189.617 1004.8 189.93 1004.7 189.961 1004.39 189.977 1003.88 189.977 1002.98 190.873 1002.46 191.379 1002.29 191.472 1002.09 191.545 1001.31 191.65 999.952 191.816L998.951 191.816C998.503 191.921 998.201 191.978 998.055 191.978 997.888 191.978 997.648 191.962 997.336 191.921L996.752 192.515C996.304 192.379 995.965 192.202 995.694 191.978 995.502 191.785 995.173 191.634 994.735 191.498 993.662 191.144 992.781 190.753 992.078 190.321L991.645 190.097C991.38 189.784 991.197 189.602 991.124 189.576 990.869 189.456 990.587 189.409 990.259 189.409 990.124 189.409 989.749 189.482 989.108 189.68 988.404 189.8 987.972 189.904 987.81 189.992 987.628 190.097 987.388 190.305 987.091 190.602 987.45 190.816 987.706 190.977 987.836 191.066 988.196 191.321 988.42 191.457 988.555 191.472L990.004 191.738 990.942 192.129 992.917 192.619 994.141 193.041 995.423 193.041 996.815 193.354 997.398 193.369 998.487 193.531C999.504 193.515 1000.13 193.499 1000.42 193.499 1000.7 193.489 1001.25 193.369 1002.09 193.161L1002.82 193.083C1003.64 192.963 1004.19 192.89 1004.54 192.827 1004.8 192.817 1005.18 192.634 1005.64 192.296 1005.28 192.04 1005.11 191.827 1005.11 191.665 1005.11 191.441 1005.24 191.321 1005.49 191.321 1005.66 191.321 1005.89 191.394 1006.19 191.514 1006.4 191.592 1006.68 191.665 1007.06 191.754 1007.34 191.53 1007.48 191.248 1007.49 190.904L1008.27 190.456C1008.32 190.274 1008.33 190.17 1008.33 190.112L1008.24 189.153C1008.46 188.424 1008.7 187.976 1008.93 187.783L1009.04 187.783C1009.11 187.423 1009.2 187.022 1009.28 186.6 1009.36 185.646 1009.39 185.005 1009.42 184.703 1008.94 184.469 1008.7 184.245 1008.7 184.021 1008.7 183.781 1008.99 183.557 1009.54 183.364 1009.57 183.15 1009.57 182.958 1009.57 182.822 1009.57 182.661 1009.54 182.374 1009.45 181.957 1009.44 181.764 1009.42 181.587 1009.42 181.405 1009.42 180.868 1009.54 180.196 1009.75 179.388 1009.39 179.091 1009.21 178.794 1009.21 178.492 1009.21 178.242 1009.37 177.924 1009.72 177.522 1009.76 177.465 1009.84 177.298 1009.94 177.059 1010 176.939 1010.12 176.715 1010.29 176.386 1010.06 176.178 1009.89 175.97 1009.79 175.777 1009.63 175.657 1009.3 175.521 1008.82 175.37L1007.66 174.953 1006.91 174.776C1006.15 174.568 1005.72 174.458 1005.64 174.458 1005.43 174.458 1005.21 174.552 1004.95 174.729L1005.43 176.386C1004.82 176.267 1003.95 176.016 1002.82 175.626L1001.92 175.474C1001.38 175.37 1001.1 175.329 1001.09 175.329L999.936 175.417 998.8 174.953 998.19 174.906 995.663 174.49 994.365 174.568C993.725 174.37 993.287 174.281 993.078 174.281 992.781 174.281 991.974 174.385 990.66 174.609L989.347 174.714 988.388 175.026C987.674 175.24 987.138 175.464 986.794 175.673 986.481 175.85 986.226 176.162 986.033 176.61L985.33 176.819C985.257 176.986 985.152 177.283 985.043 177.715L984.746 178.794 984.746 178.804C984.715 178.955 984.85 179.195 985.152 179.523 985.376 179.779 985.658 180.196 986.002 180.795 987.034 181.587 987.706 182.108 988.018 182.332 988.315 182.509 988.972 182.765 989.973 183.109 990.541 183.406 990.916 183.557 991.062 183.557 991.228 183.557 991.411 183.541 991.645 183.51ZM989.733 178.242C989.571 178.017 989.42 177.793 989.274 177.569 989.035 177.267 988.941 177.074 988.972 176.97L989.274 176.491 990.139 177.09C990.838 176.689 991.333 176.475 991.588 176.444 992.349 176.282 992.781 176.178 992.828 176.178 992.964 176.121 993.141 175.938 993.349 175.657 993.839 175.61 994.157 175.568 994.319 175.553 994.485 175.537 994.636 175.521 994.725 175.521 994.949 175.521 995.231 175.641 995.559 175.881 995.856 175.714 996.096 175.626 996.304 175.626 996.351 175.626 996.559 175.745 996.992 175.954L997.862 175.792C997.862 175.792 998.414 175.954 999.53 176.267L1000.32 176.569 1001.01 176.475 1002.19 176.866 1003.55 177.283C1003.91 177.715 1004.12 177.971 1004.21 178.028 1004.39 178.179 1004.75 178.314 1005.28 178.434L1005.46 179.226C1005.85 179.388 1006.07 179.628 1006.15 179.925 1005.87 180.091 1005.66 180.253 1005.54 180.435 1005.55 180.717 1005.56 180.925 1005.56 181.061L1005.56 181.467C1005.54 181.915 1005.52 182.285 1005.49 182.598 1005.48 182.702 1005.46 182.796 1005.46 182.885 1005.46 183.077 1005.55 183.374 1005.72 183.75 1005.54 183.765 1005.3 183.854 1005 184.047L1003.67 184.021 1002.47 184.062 1001.55 184.047 1000.95 184.047C1000.86 184.047 1000.56 184.182 1000.02 184.437L999.337 184.255C998.513 184.255 997.904 184.213 997.513 184.125 997.263 184.036 997.054 183.989 996.888 183.989 996.862 183.989 996.606 184.047 996.174 184.151 996.158 184.151 996.127 184.151 996.111 184.151 996.023 184.151 995.679 183.989 995.126 183.703 995.053 183.645 994.511 183.479 993.511 183.197 992.198 182.733 991.244 182.301 990.66 181.884 990.603 181.837 990.379 181.587 989.973 181.139 989.868 180.988 989.498 180.852 988.899 180.717 988.811 180.597 988.779 180.508 988.779 180.435 988.779 180.388 988.852 180.284 989.019 180.149L989.243 178.804C989.285 178.69 989.451 178.492 989.733 178.242ZM1017.62 184.901C1017.9 185.256 1018.37 185.99 1018.99 187.079 1019.41 187.783 1019.69 188.143 1019.86 188.169 1020.23 188.424 1020.6 188.679 1020.98 188.945L1021.68 189.576 1022.69 190.274 1024.05 191.306 1024.83 191.681 1025.55 192.098 1026.22 192.322 1027.12 192.874 1028.76 193.338C1029.77 193.609 1030.4 193.77 1030.64 193.802 1031.15 193.859 1031.57 193.906 1031.94 193.948 1032.36 193.619 1032.66 193.458 1032.83 193.427 1032.86 193.427 1033.38 193.546 1034.39 193.786 1034.46 193.802 1034.54 193.802 1034.6 193.802 1034.63 193.802 1035.07 193.713 1035.97 193.531 1036.07 193.515 1036.24 193.499 1036.5 193.489 1036.87 193.473 1037.12 193.442 1037.3 193.411 1038.27 193.635 1038.79 193.755 1038.9 193.755 1039.32 193.755 1039.69 193.651 1040.05 193.427 1039.95 193.025 1039.8 192.754 1039.62 192.619 1039.42 192.473 1039.09 192.337 1038.6 192.233L1038.4 191.561C1037.75 191.306 1037.31 191.113 1037.11 190.962 1036.84 190.816 1036.66 190.738 1036.55 190.722 1036.55 190.722 1036.4 190.738 1036.09 190.769 1036.03 190.769 1035.99 190.769 1035.97 190.769L1034.85 190.722 1034.82 190.722 1033.93 190.816 1033.18 190.873C1032.48 191.05 1031.9 191.155 1031.42 191.186 1031.28 191.186 1031.05 191.201 1030.74 191.217 1030.37 191.248 1030.06 191.264 1029.82 191.264 1029.64 191.264 1028.88 191.17 1027.52 190.962 1026.8 190.889 1026.32 190.826 1026.1 190.738 1025.88 190.633 1025.43 190.305 1024.76 189.784 1024.61 189.633 1024.25 189.529 1023.69 189.456 1023.62 189.081 1023.5 188.841 1023.35 188.721 1023.15 188.601 1022.77 188.497 1022.23 188.424 1022.28 188.247 1022.29 188.08 1022.29 187.945 1022.29 187.872 1022.02 187.512 1021.46 186.871 1021.31 186.678 1021.22 185.678 1021.22 183.869 1021.22 183.468 1021.47 182.749 1021.99 181.676 1021.67 181.212 1021.48 180.868 1021.46 180.659 1021.59 180.571 1021.93 180.477 1022.52 180.373 1023.41 179.451 1024 178.778 1024.25 178.346L1024.98 178.268C1025.29 177.939 1025.5 177.747 1025.61 177.674L1026.77 177.059 1027.61 176.569C1028.4 176.313 1028.88 176.178 1029.07 176.147 1029.19 176.121 1029.65 176.074 1030.49 176.042L1031.64 175.85 1032.72 175.792 1033.52 175.714C1033.94 175.761 1034.62 175.938 1035.57 176.298L1036.12 176.162C1036.39 176.298 1036.57 176.386 1036.64 176.433 1036.81 176.506 1037.2 176.73 1037.83 177.106 1038.35 177.163 1038.83 177.33 1039.24 177.627 1039.56 177.898 1039.9 178.122 1040.29 178.299 1040.47 178.372 1040.63 178.507 1040.83 178.658 1041.32 179.122 1041.68 179.362 1041.9 179.362 1042.07 179.362 1042.23 179.284 1042.4 179.107 1042.2 178.434 1042.09 177.866 1042.09 177.403 1041.68 177.09 1041.33 176.762 1041.07 176.418 1040.62 176.298 1040 176.027 1039.21 175.594 1038.88 175.537 1038.59 175.443 1038.32 175.297 1037.91 175.073 1037.6 174.969 1037.33 174.969L1036.27 175.026 1036.24 175.026C1035.15 174.849 1034.5 174.729 1034.3 174.672 1034.22 174.672 1033.95 174.505 1033.46 174.234 1033.36 174.177 1033.27 174.161 1033.18 174.161L1030.06 174.177C1029.94 174.177 1029.62 174.161 1029.16 174.104 1028.65 174.37 1028.21 174.521 1027.77 174.552 1027.19 174.594 1026.36 174.745 1025.26 174.995L1024.52 175.058 1023.65 175.297C1023.1 175.386 1022.74 175.464 1022.62 175.506 1022.48 175.537 1022.32 175.641 1022.15 175.792 1021.07 176.626 1020.55 177.106 1020.55 177.267 1020.55 177.403 1020.57 177.554 1020.63 177.731 1020.62 177.793 1020.6 177.804 1020.6 177.804L1019.56 177.658C1019.56 177.658 1019.53 177.674 1019.5 177.715 1019.12 178.314 1018.86 178.7 1018.69 178.867 1018.37 179.242 1018.2 179.555 1018.17 179.779 1018.15 179.883 1018.11 180.18 1018.05 180.675L1018.05 180.748 1018.2 181.436C1017.63 181.764 1017.35 181.988 1017.35 182.124 1017.35 182.181 1017.81 182.421 1018.79 182.869 1019.32 183.109 1019.59 183.479 1019.59 183.989 1019.59 184.453 1018.93 184.766 1017.62 184.901ZM1047.86 191.603C1047.86 191.827 1048.17 192.145 1048.78 192.546 1050.14 193.385 1051.31 193.937 1052.28 194.187L1053.21 193.427C1053.01 193.025 1052.83 192.442 1052.71 191.696 1052.59 191.097 1052.54 190.722 1052.54 190.592L1052.54 189.68 1052.01 189.081C1052.01 188.664 1052.23 188.273 1052.68 187.887 1052.56 187.72 1052.49 187.601 1052.49 187.575L1052.56 186.366C1052.56 186.366 1052.55 186.272 1052.54 186.095 1052.51 185.975 1052.49 185.782 1052.49 185.527L1052.34 180.811C1052.35 180.555 1052.49 180.003 1052.74 179.107L1052.8 178.059C1052.94 177.569 1053 177.283 1053 177.21 1053 176.866 1052.8 176.538 1052.43 176.267 1052.33 176.178 1051.94 175.97 1051.26 175.626 1050.23 174.985 1049.65 174.641 1049.52 174.578 1049.31 174.521 1049.11 174.49 1048.95 174.49 1048.71 174.49 1048.46 174.578 1048.22 174.776 1048.29 175.193 1048.34 175.464 1048.35 175.594 1048.38 175.792 1048.5 176.162 1048.71 176.689L1048.73 177.898 1048.95 180.316 1048.95 180.748C1048.98 181.019 1049.13 181.149 1049.44 181.149 1049.52 181.149 1049.62 181.149 1049.74 181.123 1049.85 181.389 1049.9 181.571 1049.9 181.676 1049.9 181.795 1049.83 182.061 1049.71 182.436 1049.65 182.598 1049.59 182.838 1049.53 183.124L1049.01 183.453C1049.07 183.812 1049.1 184.078 1049.1 184.255 1049.1 184.349 1049.1 184.469 1049.07 184.63 1049.07 184.766 1049.07 184.886 1049.07 184.974 1049.07 185.198 1049.18 185.438 1049.38 185.693 1049.18 185.902 1049.07 186.095 1049.07 186.319L1049.07 186.694 1049.01 187.257C1050.34 187.455 1051 187.632 1051 187.783 1051 187.783 1050.98 187.814 1050.94 187.84 1050.62 188.064 1050.26 188.169 1049.8 188.169 1049.47 188.169 1049.07 188.143 1048.61 188.111 1048.68 188.367 1048.71 188.528 1048.71 188.617 1048.71 188.648 1048.62 189.456 1048.46 191.05 1048.42 191.264 1048.25 191.441 1047.86 191.603ZM1048.42 201.509 1048.42 201.535C1048.38 202.119 1048.9 202.749 1050 203.421 1050.25 203.567 1050.52 203.791 1050.8 204.062 1050.82 204.078 1051.03 204.208 1051.43 204.464 1052.18 205.375 1052.65 205.881 1052.85 205.975 1053.15 206.152 1053.42 206.24 1053.61 206.24 1053.7 206.24 1053.94 206.121 1054.33 205.881 1054.73 205.646 1054.91 205.36 1054.91 205.032 1054.91 204.761 1054.73 204.536 1054.35 204.344 1053.42 203.791 1052.51 203.197 1051.64 202.551L1050.78 202.103 1049.68 201.509C1049.11 201.269 1048.78 201.134 1048.7 201.134 1048.52 201.134 1048.42 201.269 1048.42 201.509ZM1066.96 183.51C1067.2 183.812 1067.46 184.036 1067.66 184.151 1067.84 184.229 1068.46 184.365 1069.53 184.542 1070.32 184.854 1070.83 185.047 1071.11 185.11 1071.29 185.151 1071.92 185.198 1072.96 185.287L1073.96 185.558 1074.53 185.615 1075.1 185.662 1076.31 185.662 1078.76 185.902C1079.48 185.959 1079.94 186.037 1080.12 186.126 1080.49 186.35 1080.67 186.647 1080.67 187.064 1080.67 187.142 1080.58 187.408 1080.42 187.84L1082.03 189.44C1082.03 189.456 1081.39 189.617 1080.12 189.93 1080.01 189.961 1079.7 189.977 1079.19 189.977 1078.29 190.873 1077.77 191.379 1077.61 191.472 1077.4 191.545 1076.62 191.65 1075.25 191.816L1074.26 191.816C1073.81 191.921 1073.52 191.978 1073.37 191.978 1073.2 191.978 1072.96 191.962 1072.65 191.921L1072.07 192.515C1071.62 192.379 1071.26 192.202 1071.03 191.978 1070.81 191.785 1070.48 191.634 1070.05 191.498 1068.98 191.144 1068.1 190.753 1067.39 190.321L1066.96 190.097C1066.69 189.784 1066.51 189.602 1066.42 189.576 1066.18 189.456 1065.9 189.409 1065.57 189.409 1065.44 189.409 1065.06 189.482 1064.42 189.68 1063.72 189.8 1063.29 189.904 1063.13 189.992 1062.94 190.097 1062.69 190.305 1062.41 190.602 1062.75 190.816 1063.02 190.977 1063.15 191.066 1063.51 191.321 1063.73 191.457 1063.87 191.472L1065.32 191.738 1066.26 192.129 1068.23 192.619 1069.47 193.041 1070.74 193.041 1072.13 193.354 1072.71 193.369 1073.8 193.531C1074.82 193.515 1075.44 193.499 1075.73 193.499 1076.01 193.489 1076.56 193.369 1077.38 193.161L1078.13 193.083C1078.94 192.963 1079.51 192.89 1079.83 192.827 1080.12 192.817 1080.49 192.634 1080.96 192.296 1080.6 192.04 1080.42 191.827 1080.42 191.665 1080.42 191.441 1080.55 191.321 1080.81 191.321 1080.96 191.321 1081.21 191.394 1081.51 191.514 1081.72 191.592 1082 191.665 1082.37 191.754 1082.64 191.53 1082.79 191.248 1082.81 190.904L1083.58 190.456C1083.63 190.274 1083.64 190.17 1083.64 190.112L1083.55 189.153C1083.78 188.424 1084 187.976 1084.22 187.783L1084.36 187.783C1084.42 187.423 1084.51 187.022 1084.6 186.6 1084.66 185.646 1084.7 185.005 1084.74 184.703 1084.26 184.469 1084.02 184.245 1084.02 184.021 1084.02 183.781 1084.3 183.557 1084.86 183.364 1084.88 183.15 1084.88 182.958 1084.88 182.822 1084.88 182.661 1084.83 182.374 1084.76 181.957 1084.74 181.764 1084.74 181.587 1084.74 181.405 1084.74 180.868 1084.83 180.196 1085.06 179.388 1084.69 179.091 1084.52 178.794 1084.52 178.492 1084.52 178.242 1084.69 177.924 1085.03 177.522 1085.08 177.465 1085.15 177.298 1085.26 177.059 1085.31 176.939 1085.43 176.715 1085.58 176.386 1085.38 176.178 1085.19 175.97 1085.09 175.777 1084.94 175.657 1084.62 175.521 1084.14 175.37L1082.97 174.953 1082.22 174.776C1081.45 174.568 1081.03 174.458 1080.96 174.458 1080.74 174.458 1080.52 174.552 1080.27 174.729L1080.73 176.386C1080.13 176.267 1079.27 176.016 1078.13 175.626L1077.24 175.474C1076.7 175.37 1076.41 175.329 1076.4 175.329L1075.25 175.417 1074.1 174.953 1073.51 174.906 1070.98 174.49 1069.68 174.568C1069.03 174.37 1068.6 174.281 1068.38 174.281 1068.08 174.281 1067.29 174.385 1065.96 174.609L1064.68 174.714 1063.7 175.026C1062.99 175.24 1062.45 175.464 1062.1 175.673 1061.8 175.85 1061.54 176.162 1061.36 176.61L1060.64 176.819C1060.57 176.986 1060.46 177.283 1060.36 177.715L1060.06 178.794 1060.06 178.804C1060.03 178.955 1060.17 179.195 1060.46 179.523 1060.69 179.779 1060.97 180.196 1061.32 180.795 1062.33 181.587 1063.02 182.108 1063.35 182.332 1063.61 182.509 1064.27 182.765 1065.29 183.109 1065.86 183.406 1066.23 183.557 1066.36 183.557 1066.54 183.557 1066.72 183.541 1066.96 183.51ZM1065.05 178.242C1064.89 178.017 1064.74 177.793 1064.58 177.569 1064.35 177.267 1064.26 177.074 1064.27 176.97L1064.58 176.491 1065.45 177.09C1066.15 176.689 1066.65 176.475 1066.91 176.444 1067.66 176.282 1068.1 176.178 1068.14 176.178 1068.27 176.121 1068.46 175.938 1068.68 175.657 1069.14 175.61 1069.47 175.568 1069.63 175.553 1069.8 175.537 1069.93 175.521 1070.04 175.521 1070.26 175.521 1070.55 175.641 1070.87 175.881 1071.16 175.714 1071.41 175.626 1071.62 175.626 1071.65 175.626 1071.87 175.745 1072.31 175.954L1073.17 175.792C1073.17 175.792 1073.71 175.954 1074.83 176.267L1075.64 176.569 1076.32 176.475 1077.51 176.866 1078.86 177.283C1079.22 177.715 1079.43 177.971 1079.52 178.028 1079.7 178.179 1080.06 178.314 1080.6 178.434L1080.77 179.226C1081.17 179.388 1081.39 179.628 1081.46 179.925 1081.18 180.091 1080.97 180.253 1080.85 180.435 1080.86 180.717 1080.88 180.925 1080.88 181.061L1080.88 181.467C1080.85 181.915 1080.83 182.285 1080.81 182.598 1080.79 182.702 1080.77 182.796 1080.77 182.885 1080.77 183.077 1080.86 183.374 1081.03 183.75 1080.85 183.765 1080.61 183.854 1080.31 184.047L1078.98 184.021 1077.77 184.062 1076.85 184.047 1076.25 184.047C1076.17 184.047 1075.88 184.182 1075.32 184.437L1074.65 184.255C1073.81 184.255 1073.22 184.213 1072.81 184.125 1072.58 184.036 1072.36 183.989 1072.2 183.989 1072.16 183.989 1071.92 184.047 1071.48 184.151 1071.47 184.151 1071.46 184.151 1071.43 184.151 1071.32 184.151 1070.99 183.989 1070.43 183.703 1070.36 183.645 1069.83 183.479 1068.83 183.197 1067.51 182.733 1066.56 182.301 1065.98 181.884 1065.91 181.837 1065.69 181.587 1065.29 181.139 1065.17 180.988 1064.81 180.852 1064.21 180.717 1064.14 180.597 1064.08 180.508 1064.08 180.435 1064.08 180.388 1064.17 180.284 1064.33 180.149L1064.56 178.804C1064.6 178.69 1064.77 178.492 1065.05 178.242ZM1093.6 191.592C1093.72 191.889 1093.92 192.145 1094.2 192.395 1094.4 192.577 1094.93 192.827 1095.8 193.171 1096.69 193.609 1097.21 193.828 1097.32 193.828 1097.7 193.828 1097.98 193.724 1098.16 193.515L1098.28 193.098 1098.53 192.322C1098.47 192.145 1098.44 192.009 1098.44 191.905 1098.44 191.754 1098.54 191.592 1098.78 191.379 1099.19 191.488 1099.76 191.681 1100.44 192.009L1101.76 192.353 1103.06 193.041 1103.89 193.322C1104.34 193.489 1104.58 193.578 1104.63 193.578 1104.63 193.578 1104.87 193.546 1105.31 193.489 1105.36 193.489 1105.39 193.489 1105.4 193.489 1105.51 193.489 1106.21 193.666 1107.51 194.01 1107.66 194.041 1107.96 194.052 1108.44 194.052 1108.79 194.052 1109.04 194.01 1109.18 193.937 1109.21 193.922 1109.42 193.755 1109.84 193.442 1110.09 193.395 1110.23 193.369 1110.27 193.369 1110.3 193.369 1110.61 193.489 1111.17 193.713 1111.2 193.724 1111.25 193.739 1111.32 193.739 1111.59 193.739 1111.9 193.609 1112.25 193.369 1112.59 193.145 1112.82 192.786 1112.96 192.306 1112.65 192.072 1112.03 191.681 1111.11 191.155 1110.66 190.696 1110.33 190.472 1110.12 190.472 1109.8 190.472 1109.36 190.722 1108.82 191.264 1108.45 191.233 1108.15 191.201 1107.9 191.201 1107.63 191.201 1107.18 191.306 1106.56 191.498 1106.06 191.65 1105.56 191.754 1105.04 191.801 1104.83 191.472 1104.51 191.29 1104.03 191.264 1103.44 191.233 1103.09 191.186 1102.95 191.155 1102.11 190.962 1101.7 190.857 1101.7 190.857 1101.62 190.857 1101.46 190.92 1101.22 191.024 1100.8 190.738 1100.09 190.289 1099.06 189.695 1098.38 189.32 1098.07 188.648 1098.1 187.694L1098.1 187.632C1098.1 187.423 1098.1 187.168 1098.1 186.84 1098.11 186.527 1098.13 186.287 1098.13 186.095 1098.13 185.902 1097.89 185.631 1097.41 185.271 1097.77 184.974 1097.93 184.719 1097.93 184.51 1097.93 184.391 1097.92 184.255 1097.88 184.078L1098.34 183.989 1098.43 183.244 1098.59 178.82 1098.46 178.539 1097.65 178.195C1096.49 178.017 1095.9 177.882 1095.9 177.835 1095.9 177.762 1096.56 177.658 1097.88 177.507L1098.4 177.595C1098.61 177.059 1098.71 176.689 1098.71 176.491 1098.71 176.121 1098.47 175.818 1097.99 175.594 1097.82 175.521 1097.28 175.433 1096.41 175.344 1096.23 175.313 1095.8 175.12 1095.07 174.729 1094.93 174.672 1094.8 174.641 1094.64 174.641 1094.14 174.641 1093.89 174.818 1093.89 175.162 1093.89 175.25 1094.04 175.714 1094.35 176.569 1094.38 176.657 1094.41 176.762 1094.41 176.866 1094.41 176.897 1094.35 177.267 1094.26 177.971 1094.26 178.017 1094.29 178.163 1094.38 178.387L1095.13 178.57C1095.14 178.7 1095.16 178.836 1095.16 178.955 1095.16 179.164 1095.01 179.419 1094.69 179.716 1094.69 179.956 1094.69 180.149 1094.69 180.347 1094.69 180.477 1094.64 180.868 1094.5 181.509 1094.57 182.046 1094.61 182.509 1094.61 182.885 1095.37 183.093 1095.74 183.364 1095.74 183.677 1095.74 183.765 1095.71 183.901 1095.65 184.062 1095.41 184.021 1095.2 184.005 1095.04 184.005 1094.89 184.005 1094.71 184.062 1094.5 184.198 1094.5 184.526 1094.5 184.886 1094.5 185.287L1094.5 186.663C1094.5 186.798 1094.49 186.944 1094.47 187.111 1094.47 187.272 1094.47 187.408 1094.47 187.512 1094.47 187.767 1094.61 188.127 1094.88 188.575 1094.61 188.752 1094.45 188.903 1094.41 189.049 1094.38 189.096 1094.35 189.617 1094.29 190.649 1094.28 190.847 1094.04 191.155 1093.6 191.592ZM1132.88 192.947 1133.87 193.442C1134.17 193.145 1134.39 192.947 1134.51 192.874 1134.55 192.827 1134.76 192.754 1135.17 192.619 1135.36 192.546 1136.26 191.848 1137.81 190.529 1138.32 190.112 1138.66 189.721 1138.84 189.367 1139 189.049 1139.19 188.664 1139.36 188.215 1139.5 187.991 1139.63 187.679 1139.8 187.319L1139.59 187.152C1139.36 187.184 1139.05 187.257 1138.66 187.376L1137.48 187.022 1136.43 187.184 1135.51 186.975C1134.22 187.694 1133.55 188.064 1133.49 188.064 1133.36 188.064 1132.88 187.72 1132.03 187.048 1130.72 187.246 1130.01 187.35 1129.94 187.35 1129.61 187.35 1129.21 187.319 1128.76 187.272L1128.61 187.376C1128.28 187.335 1127.39 187.319 1125.91 187.319L1124.77 187.215 1123.34 187.126 1121.89 186.918 1120.59 186.944C1119.39 186.663 1118.59 186.48 1118.16 186.439 1118.05 185.886 1117.95 185.495 1117.83 185.287 1117.72 185.037 1117.47 184.766 1117.1 184.469 1117.75 184.109 1118.11 183.854 1118.16 183.718 1118.35 182.661 1118.54 181.957 1118.74 181.597L1119.29 181.347 1119.14 180.435 1120.1 180.243C1120.31 179.581 1120.56 179.122 1120.89 178.898 1121.22 178.69 1121.72 178.539 1122.44 178.466 1122.55 177.955 1122.71 177.658 1122.95 177.554 1123.1 177.444 1123.47 177.387 1124.06 177.345L1124.58 176.715C1124.8 176.746 1125 176.762 1125.17 176.762 1125.29 176.762 1125.91 176.569 1127.01 176.147 1127.28 176.042 1127.53 175.985 1127.84 175.985 1128.1 175.985 1128.62 176.089 1129.4 176.282L1131.39 176.465 1132.9 176.803C1133.61 176.85 1134.1 176.897 1134.36 176.954 1134.7 177.074 1135.34 177.356 1136.27 177.819 1137.17 178.252 1137.71 178.554 1137.86 178.716 1138.21 179.044 1138.57 179.435 1138.9 179.867 1139.07 180.06 1139.35 180.164 1139.76 180.164 1139.95 180.164 1140.21 180.06 1140.57 179.852 1140.42 179.252 1140.29 178.867 1140.17 178.7 1139.31 177.538 1138.76 176.777 1138.53 176.402 1138.26 176.491 1138.03 176.553 1137.86 176.553 1137.72 176.553 1137.38 176.386 1136.82 176.058 1136.45 175.865 1135.99 175.745 1135.43 175.714 1134.15 175.433 1133.27 175.282 1132.78 175.219 1131.93 175.162 1131.4 175.105 1131.17 175.058 1130.52 174.896 1130.19 174.818 1130.18 174.818L1128.34 175.026 1127.28 174.896 1126.74 174.865C1126.25 174.818 1125.86 174.792 1125.61 174.792 1125.32 174.792 1124.58 174.849 1123.34 174.969 1122.95 174.985 1122.76 175.016 1122.76 175.016L1122.11 175.329C1120.56 175.699 1119.71 175.938 1119.53 175.985 1119.44 176.042 1119.08 176.298 1118.49 176.73 1118.44 176.762 1118.08 176.954 1117.39 177.283 1116.82 177.569 1116.53 177.778 1116.49 177.924L1115.93 178.7C1115.84 178.836 1115.5 179.148 1114.87 179.643 1115.08 179.914 1115.18 180.107 1115.18 180.243 1115.18 180.284 1114.92 180.748 1114.38 181.629 1114.24 181.853 1114.15 182.556 1114.15 183.718 1114.15 184.078 1114.3 184.677 1114.59 185.495 1114.84 186.141 1115.02 186.511 1115.13 186.6L1116.17 187.601 1116.86 188.752C1117.54 189.289 1118.37 189.873 1119.26 190.529L1121.51 191.65 1123.82 192.905 1124.64 193.025 1127 193.619 1128.52 193.713C1129.73 194.083 1130.4 194.266 1130.52 194.266 1131.67 194.266 1132.46 193.817 1132.88 192.947ZM1129.28 189.216 1129.79 188.695C1130.21 188.768 1130.48 188.799 1130.62 188.825 1131.19 188.888 1131.73 188.992 1132.3 189.169L1134.05 189.049C1134.07 189.049 1134.12 189.127 1134.21 189.289 1134.22 189.393 1134.24 189.471 1134.24 189.544 1134.24 189.695 1134.1 189.873 1133.87 190.081 1133.84 190.112 1133.72 190.217 1133.55 190.378 1133.07 190.92 1132.74 191.155 1132.64 191.128L1131.61 191.514C1131.49 191.577 1131.3 191.754 1131.03 192.082 1130.43 192.145 1129.41 192.186 1127.98 192.186L1127.37 192.218 1126.31 191.712C1126.28 191.681 1125.71 191.577 1124.62 191.368 1123.76 191.128 1122.99 190.889 1122.34 190.649 1122.19 190.56 1121.79 190.289 1121.14 189.815 1121.01 189.721 1120.79 189.576 1120.43 189.367L1120.43 189.216 1120.5 189.169 1122.74 188.455 1123.41 187.903 1124.62 189.065C1124.72 189.127 1124.83 189.169 1124.96 189.169 1125.03 189.169 1125.53 189.065 1126.48 188.841 1126.49 188.841 1126.52 188.841 1126.53 188.841 1126.8 188.841 1127.39 188.919 1128.28 189.096 1128.5 189.143 1128.84 189.185 1129.28 189.216Z" stroke="#0066B2" stroke-width="0.288151" fill="#0066B2" fill-rule="evenodd" transform="matrix(1 0 0 -1 9.66104 638.964)"/><path d="M1163.22 184.021 1162.41 183.552C1161.61 183.734 1160.97 183.823 1160.49 183.823 1159.93 183.823 1159.25 183.791 1158.48 183.718 1158.24 184.094 1157.93 184.38 1157.54 184.594L1156.95 183.974C1156.51 183.927 1156 183.823 1155.41 183.687 1155.15 183.64 1154.94 183.63 1154.75 183.63 1154.7 183.63 1154.64 183.63 1154.55 183.64 1153.78 183.776 1153.39 183.854 1153.39 183.854 1153.37 183.854 1153.33 183.823 1153.3 183.776L1152.7 184.26C1152.37 184.156 1152.09 184.094 1151.86 184.094 1151.79 184.094 1151.51 184.172 1151.09 184.338 1150.98 184.37 1150.8 184.427 1150.53 184.521 1148.92 184.959 1148.14 185.683 1148.14 186.694 1148.14 187.569 1148.57 188.434 1149.41 189.294 1149.62 189.534 1150.21 189.972 1151.13 190.607L1151.75 191.076 1153.2 191.769C1154.7 192.499 1155.79 192.978 1156.48 193.208 1158.1 193.739 1159.38 193.995 1160.35 193.995 1160.52 193.995 1161.44 193.812 1163.13 193.479L1164.75 193.708C1165.75 193.645 1166.34 193.598 1166.5 193.526 1166.92 193.359 1167.12 193.192 1167.12 193.025 1167.12 192.859 1167.03 192.692 1166.82 192.525 1166.74 192.499 1166.25 192.254 1165.29 191.785 1164.31 191.306 1163.75 191.061 1163.63 191.061 1162.29 191.061 1161.32 191.139 1160.7 191.285 1160.49 191.634 1160.27 191.921 1160.03 192.119L1159.85 192.119 1159.26 191.634C1158.91 191.603 1158.66 191.603 1158.49 191.603 1158.31 191.603 1158.13 191.603 1157.97 191.634 1157.74 191.65 1157.57 191.65 1157.48 191.65 1157.42 191.65 1157.16 191.603 1156.66 191.514 1156.5 191.603 1156.19 191.65 1155.74 191.65 1155.32 191.41 1154.65 191.076 1153.7 190.67 1153.2 190.456 1152.77 190.138 1152.42 189.701 1152.06 189.279 1151.87 188.872 1151.87 188.492 1151.87 188.309 1152.07 188.085 1152.46 187.799 1152.54 187.752 1152.89 187.616 1153.55 187.403 1153.94 187.267 1154.35 187.074 1154.76 186.861 1154.73 186.725 1154.73 186.637 1154.73 186.543 1154.73 186.194 1154.9 186.032 1155.26 186.032 1155.57 186.032 1155.97 186.24 1156.38 186.663 1156.85 186.616 1157.25 186.605 1157.57 186.605 1157.71 186.605 1158.29 186.663 1159.34 186.814L1160.34 186.741C1161.26 186.845 1161.74 186.892 1161.82 186.892 1161.97 186.892 1162.5 186.772 1163.41 186.543L1164.52 186.637 1165.64 186.032C1166.84 185.579 1167.65 185.167 1168.09 184.776 1168.42 184.443 1168.6 184.172 1168.65 183.974L1168.86 183.161C1169.14 182.176 1169.29 181.603 1169.29 181.452 1169.29 181.363 1169.25 181.071 1169.16 180.592 1169.06 179.534 1168.68 179.002 1168.03 179.002 1167.83 179.002 1167.59 179.034 1167.32 179.096 1167.07 178.262 1166.88 177.778 1166.71 177.674 1165.79 176.814 1165.2 176.241 1164.93 175.954 1163.87 175.829 1163.01 175.574 1162.33 175.183 1162.03 174.985 1161.83 174.875 1161.78 174.865 1161.71 174.849 1161.46 174.818 1161 174.787L1158.49 174.229C1157.68 174.349 1157.23 174.411 1157.13 174.411 1157 174.411 1156.39 174.271 1155.28 174.015L1154.53 174.094C1153.55 174.151 1152.81 174.198 1152.31 174.286 1151.22 174.5 1150.67 174.651 1150.61 174.755L1149.61 175.271C1148.4 175.86 1147.64 176.282 1147.36 176.538 1146.74 177.132 1146.42 177.674 1146.42 178.215 1146.42 178.341 1146.66 178.533 1147.12 178.82L1147.95 179.424C1148.73 179.893 1149.19 180.123 1149.32 180.123 1149.4 180.123 1149.46 180.107 1149.52 180.045 1150 179.685 1150.24 179.289 1150.24 178.867L1150.11 178.064 1150.11 178.049C1150.09 177.903 1150.15 177.778 1150.27 177.705 1150.35 177.627 1150.73 177.46 1151.38 177.158 1151.53 177.1 1151.71 176.991 1151.94 176.845 1152.45 176.465 1152.72 176.298 1152.73 176.298L1153.89 175.923 1154.94 175.48 1156.11 175.48 1156.86 175.36C1157.62 175.527 1158.29 175.636 1158.9 175.646 1159.48 175.662 1159.9 175.74 1160.15 175.844L1161.36 176.313C1162.03 176.496 1162.41 176.616 1162.52 176.694 1162.91 176.934 1163.42 177.476 1164.05 178.325 1164.72 179.2 1165.05 180.196 1165.05 181.316 1165.05 181.571 1164.96 181.801 1164.78 182.009 1163.96 182.994 1163.45 183.656 1163.22 184.021Z" stroke="#0066B2" stroke-width="0.288148" fill="#0066B2" fill-rule="evenodd" transform="matrix(1 0 0 -1 9.66104 638.964)"/><path d="M620.687 282.871 619.884 209.89C612.636 212.527 604.825 216.045 595.247 215.549L593.735 285.075C593.381 306.029 604.976 314.028 631.818 305.456L629.134 289.562C623.386 292.152 620.994 289.207 620.687 282.871ZM582.516 285.878 532.089 285.878 532.089 269.135 570.38 269.135 570.38 251.547 532.089 251.547 532.089 239.03 579.77 239.03 579.77 214.674 506.695 214.674 506.695 309.077 582.516 309.077ZM720.15 211.203C733.193 211.203 745.215 215.013 754.84 221.407L745.835 243.204C739.624 238.718 731.187 235.961 721.896 235.961 702.839 235.961 687.378 247.566 687.378 261.891 687.378 276.211 702.839 287.821 721.896 287.821 733.24 287.821 743.308 283.705 749.598 277.352L758.045 298.337C747.946 306.107 734.689 310.823 720.15 310.823 688.535 310.823 662.912 288.53 662.912 261.026 662.912 233.507 688.535 211.203 720.15 211.203ZM869.535 282.871 868.732 209.89 844.1 215.549 842.589 285.075C842.234 306.029 853.824 314.028 880.666 305.456L877.966 289.562C872.234 292.152 869.842 289.207 869.535 282.871ZM992.463 238.197 992.37 246.8 1015.57 246.8 1015.57 264.82 992.943 264.158 993.266 305.951 970.233 305.502 969.358 264.82 960.228 264.82 960.228 246.8 968.972 246.8 968.722 235.977C968.383 215.023 988.268 208.999 1015.09 217.571L1012.41 233.465C1006.66 230.891 992.771 231.844 992.463 238.197ZM1120.54 283.074 1120.44 264.851 1143.64 264.851 1143.64 246.831 1121 247.493 1121.33 228.515 1098.25 232.553 1097.42 246.831 1088.29 246.831 1088.29 264.851 1097.03 264.851 1096.8 285.278C1096.44 306.242 1116.34 312.256 1143.17 303.699L1140.48 287.79C1134.72 290.364 1120.85 289.411 1120.54 283.074ZM1184.8 241.652C1203.74 241.652 1219.11 257.05 1219.11 276.06 1219.11 277.691 1219.01 279.296 1218.77 280.87L1201.3 280.87 1201.3 281.068 1172.34 281.068C1178.69 297.008 1189.14 295.065 1209.59 287.665L1213.78 299.63C1207.27 306.091 1199 309.864 1184.8 310.484 1170.6 311.099 1150.48 295.065 1150.48 276.06 1150.48 257.05 1165.85 241.652 1184.8 241.652ZM1197.17 270.865C1195.14 266.008 1190.36 262.6 1184.8 262.6 1179.22 262.6 1174.45 266.008 1172.42 270.865ZM907.904 291.245C912.917 297.253 926.017 290.411 925.189 286.93 924.277 281.625 904.824 282.319 907.904 291.245ZM922.474 266.039C912.484 259.208 902.479 261.631 892.49 266.795L888.743 248.801C914.491 240.015 947.45 243.976 948.326 259.301L947.956 284.783C948.837 290.01 950.686 293.309 956.575 288.53L958.628 304.257C948.263 310.39 938.847 309.51 929.967 304.637 925.403 299.802 922.286 299.614 918.727 304.257 904.59 317.853 887.325 308.879 884.241 294.898 880.374 279.359 889.806 271.094 922.474 273.527 927.315 272.652 926.638 269.921 922.474 266.039ZM785.007 291.245C790.004 297.253 803.105 290.411 802.276 286.93 801.364 281.625 781.911 282.319 785.007 291.245ZM799.561 266.039C789.572 259.208 779.582 261.631 769.592 266.795L765.846 248.801C791.573 240.015 824.532 243.976 825.429 259.301L825.043 284.783C825.924 290.01 827.774 293.309 833.662 288.53L835.726 304.257C825.351 310.39 815.934 309.51 807.055 304.637 802.49 299.802 799.374 299.614 795.814 304.257 781.692 317.853 764.413 308.879 761.343 294.898 757.472 279.359 766.909 271.094 799.561 273.527 804.402 272.652 803.725 269.921 799.561 266.039ZM1039.81 291.245C1044.82 297.253 1057.92 290.411 1057.09 286.93 1056.18 281.625 1036.73 282.319 1039.81 291.245ZM1054.38 266.039C1044.39 259.208 1034.38 261.631 1024.41 266.795L1020.64 248.801C1046.39 240.015 1079.35 243.976 1080.23 259.301L1079.86 284.783C1080.74 290.01 1082.59 293.309 1088.48 288.53L1090.52 304.257C1080.17 310.39 1070.75 309.51 1061.87 304.637 1057.3 299.802 1054.19 299.614 1050.63 304.257 1036.49 317.853 1019.23 308.879 1016.16 294.898 1012.28 279.359 1021.71 271.094 1054.38 273.527 1059.22 272.652 1058.54 269.921 1054.38 266.039Z" fill="#0066B2" fill-rule="evenodd" transform="matrix(1 0 0 1 9.66104 81.8738)"/></g></svg>