<svg width="423" height="457" xmlns="http://www.w3.org/2000/svg" xmlns:xlink="http://www.w3.org/1999/xlink" xml:space="preserve" overflow="hidden"><g transform="translate(-112 -178)"><path d="M626.09 653.12C591.766 672.496 532.879 678.035 451.422 678.035 369.964 678.035 311.078 672.496 276.753 653.12 256.151 641.519 245.723 625.702 245.723 614.362 245.723 607.903 249.159 604.211 256.81 604.211L646.025 604.211C653.684 604.211 657.113 607.903 657.113 614.362 657.12 625.702 646.692 641.519 626.09 653.12ZM646.026 352.548 256.81 352.548C249.159 352.548 245.723 348.595 245.723 341.478 245.723 299.29 309.229 224.808 451.422 224.808 592.297 224.808 657.12 299.29 657.12 341.478 657.12 348.595 653.684 352.548 646.026 352.548Z" fill="#FF8732" transform="matrix(1 0 0 1.00031 -128.761 -45.6954)"/><path d="M328.632 526.568C327.442 524.721 327.314 523.532 327.314 523.01 327.314 521.56 328.108 520.505 329.688 519.056 333.386 515.625 342.496 507.058 347.511 499.284 351.338 493.349 352.924 487.945 352.924 483.467 352.924 472 342.496 463.03 331.139 463.03 323.878 463.03 317.013 467.119 312.394 474.631 306.187 484.648 298.791 496.249 294.045 500.868 292.855 502.057 292.196 502.318 291.275 502.318 289.688 502.318 289.03 501.264 289.03 499.553L289.03 486.367C289.03 473.45 281.371 463.03 267.507 463.03 253.515 463.03 245.984 473.443 245.984 486.367L245.984 567.576C245.984 580.493 253.507 590.913 267.507 590.913 281.371 590.913 289.03 580.5 289.03 567.576L289.03 548.859C289.03 547.275 289.689 546.093 291.275 546.093 293.386 546.093 293.918 548.201 294.442 549.255 297.481 556.506 306.323 571.928 314.513 581.025 320.061 587.087 326.925 590.914 334.186 590.914 346.464 590.914 356.765 580.233 356.765 568.766 356.765 561.65 353.725 556.372 347.916 550.048 340.52 541.988 331.807 531.441 328.632 526.568Z" fill="#D62300" transform="matrix(1 0 0 1.00031 -128.761 -45.6954)"/><path d="M493.276 455.51C514.006 455.51 527.076 442.324 527.076 423.083 527.076 410.824 519.68 402.384 504.895 402.384L500.673 402.384C492.88 402.384 486.808 406.077 486.808 414.382 486.808 421.768 493.276 425.326 498.164 425.326 500.673 425.326 502.26 426.118 502.26 427.965 502.26 430.335 499.49 431.919 496.316 431.919 486.412 431.919 479.681 424.93 479.681 411.879 479.681 397.377 488.927 392.107 496.054 392.107 504.768 392.107 506.22 396.592 512.291 396.592 519.291 396.592 524.044 390.791 524.044 384.728 524.044 380.244 522.061 376.82 519.029 374.443 513.482 370.354 505.696 367.327 494.077 367.327 473.61 367.327 453.674 380.774 453.674 411.886 453.667 441.666 473.603 455.51 493.276 455.51Z" fill="#D62300" transform="matrix(1 0 0 1.00031 -128.761 -45.6954)"/><path d="M261.167 454.718 279.786 454.718C297.348 454.718 308.038 442.982 308.038 428.353 308.038 416.617 301.039 411.213 299.459 409.897 298.799 409.367 298.14 408.843 298.14 408.313 298.14 407.654 298.538 407.393 299.197 406.601 301.704 403.701 304.212 399.088 304.212 392.361 304.212 376.544 293.515 368.105 276.88 368.105L261.167 368.105C250.739 368.105 245.723 374.174 245.723 382.345L245.723 440.479C245.723 448.656 250.739 454.718 261.167 454.718ZM268.961 390.784C268.961 389.072 270.017 387.749 272.262 387.749L273.977 387.749C279.651 387.749 281.373 391.703 281.373 395.134 281.373 398.296 279.658 402.781 273.977 402.781L272.262 402.781C270.017 402.781 268.961 401.464 268.961 399.746L268.961 390.784ZM268.961 421.633C268.961 419.921 270.017 418.598 272.262 418.598L274.636 418.598C280.977 418.598 282.818 422.814 282.818 426.641 282.818 430.072 280.969 434.946 274.636 434.946L272.262 434.946C270.017 434.946 268.961 433.631 268.961 431.912L268.961 421.633Z" fill="#D62300" transform="matrix(1 0 0 1.00031 -128.761 -45.6954)"/><path d="M605.892 455.376C614.344 455.376 618.963 449.044 618.963 441.136L618.963 427.165C618.963 425.453 619.757 424.66 621.074 424.66 622.661 424.66 623.186 425.579 623.447 427.165 624.637 433.885 627.805 442.982 631.367 447.602 635.859 453.537 640.081 455.383 644.303 455.383 651.168 455.383 657.112 449.979 657.112 443.252 657.112 438.767 655.263 435.47 652.889 432.443 648.397 426.777 645.628 423.084 643.913 418.471 643.517 417.418 643.779 416.491 644.969 415.571 649.065 412.409 653.817 405.42 653.817 394.349 653.817 377.605 639.953 368.112 623.184 368.112L608.263 368.112C597.836 368.112 592.819 374.174 592.819 382.351L592.819 441.15C592.821 449.052 597.44 455.376 605.892 455.376ZM617.51 393.026C617.51 391.314 618.567 389.99 620.812 389.99L622.661 389.99C628.208 389.99 629.923 393.945 629.923 397.376 629.923 400.672 628.208 405.023 622.661 405.023L620.812 405.023C618.567 405.023 617.51 403.706 617.51 401.987L617.51 393.026Z" fill="#D62300" transform="matrix(1 0 0 1.00031 -128.761 -45.6954)"/><path d="M388.837 463.023C374.052 463.023 365.996 474.094 365.996 487.937L365.996 565.984C365.996 579.828 374.051 590.899 388.837 590.899 403.622 590.899 411.677 579.828 411.677 565.984L411.677 487.937C411.678 474.1 403.63 463.023 388.837 463.023Z" fill="#D62300" transform="matrix(1 0 0 1.00031 -128.761 -45.6954)"/><path d="M623.582 513.778 617.114 513.778C605.495 513.778 596.519 519.183 596.519 531.046 596.519 541.855 606.289 546.998 613.55 546.998 617.114 546.998 619.622 548.052 619.622 550.818 619.622 554.249 615.399 556.484 610.908 556.484 595.988 556.484 585.821 546.333 585.821 527.482 585.821 506.521 599.685 498.874 610.376 498.874 623.447 498.874 625.558 505.467 634.669 505.467 645.232 505.467 652.359 496.901 652.359 488.2 652.359 481.741 649.455 476.733 644.836 473.302 636.781 467.367 624.637 463.017 607.472 463.017 576.711 463.017 546.736 482.393 546.736 527.482 546.736 570.59 576.704 590.757 606.282 590.757 637.304 590.757 656.978 571.643 656.978 543.695 656.985 526.038 645.897 513.778 623.582 513.778Z" fill="#D62300" transform="matrix(1 0 0 1.00031 -128.761 -45.6954)"/><path d="M573.679 454.718C581.075 454.718 586.884 450.367 586.884 442.459 586.884 434.677 581.075 430.327 573.679 430.327L561.799 430.327C559.553 430.327 558.497 429.011 558.497 427.292L558.497 424.788C558.497 423.076 559.553 421.752 561.799 421.752L570.909 421.752C577.25 421.752 582.266 417.932 582.266 411.205 582.266 404.485 577.25 400.658 570.909 400.658L561.799 400.658C559.553 400.658 558.497 399.342 558.497 397.623L558.497 395.515C558.497 393.803 559.553 392.48 561.799 392.48L573.679 392.48C581.075 392.48 586.884 388.129 586.884 380.221 586.884 372.44 581.075 368.09 573.679 368.09L548.727 368.09C538.299 368.09 533.283 374.153 533.283 382.33L533.283 440.464C533.283 448.634 538.299 454.703 548.727 454.703L573.679 454.703 573.679 454.718Z" fill="#D62300" transform="matrix(1 0 0 1.00031 -128.761 -45.6954)"/><path d="M346.854 455.376C368.243 455.376 379.599 442.586 379.599 426.507L379.599 382.083C379.599 374.174 374.98 367.844 366.527 367.844 358.076 367.844 353.457 374.174 353.457 382.083L353.457 425.057C353.457 428.219 351.608 431.912 346.853 431.912 342.099 431.912 340.513 428.219 340.513 425.057L340.513 382.083C340.513 374.174 335.759 367.844 327.308 367.844 318.855 367.844 314.236 374.174 314.236 382.083L314.236 426.508C314.244 442.593 325.466 455.376 346.854 455.376Z" fill="#D62300" transform="matrix(1 0 0 1.00031 -128.761 -45.6954)"/><path d="M439.541 455.376C446.405 455.376 452.35 449.972 452.35 443.244 452.35 438.759 450.501 435.463 448.127 432.436 444.301 427.427 440.865 423.077 439.151 418.464 438.755 417.411 439.016 416.483 440.206 415.564 444.302 412.402 449.055 405.413 449.055 394.343 449.055 377.599 435.191 368.105 418.422 368.105L403.495 368.105C393.066 368.105 388.051 374.168 388.051 382.345L388.051 441.144C388.051 449.052 392.67 455.383 401.121 455.383 409.574 455.383 414.193 449.052 414.193 441.144L414.193 427.173C414.193 425.461 414.986 424.668 416.305 424.668 417.892 424.668 418.415 425.588 418.678 427.173 419.868 433.893 423.034 442.99 426.598 447.61 431.089 453.53 435.311 455.376 439.541 455.376ZM417.884 405.016 416.035 405.016C413.789 405.016 412.734 403.7 412.734 401.981L412.734 393.025C412.734 391.313 413.789 389.99 416.035 389.99L417.884 389.99C423.432 389.99 425.145 393.944 425.145 397.375 425.146 400.665 423.432 405.016 417.884 405.016Z" fill="#D62300" transform="matrix(1 0 0 1.00031 -128.761 -45.6954)"/><path d="M515.452 463.023C501.85 463.023 494.461 473.174 494.461 485.963L494.461 514.435C494.461 516.805 493.667 517.866 492.216 517.866 491.16 517.866 490.367 517.208 489.446 515.362L471.097 479.766C464.098 466.184 456.837 463.022 448.519 463.022 434.655 463.022 426.996 473.435 426.996 486.486L426.996 567.963C426.996 580.753 434.392 590.904 447.987 590.904 461.589 590.904 468.979 580.753 468.979 567.963L468.979 539.491C468.979 537.121 469.773 536.06 471.224 536.06 472.28 536.06 473.073 536.719 473.994 538.565L492.343 574.16C499.343 587.743 506.866 590.904 514.921 590.904 528.786 590.904 536.444 580.492 536.444 567.44L536.444 485.962C536.443 473.174 529.054 463.023 515.452 463.023Z" fill="#D62300" transform="matrix(1 0 0 1.00031 -128.761 -45.6954)"/><path d="M638.395 666.815C638.395 663.272 641.144 660.308 644.912 660.308 648.682 660.308 651.43 663.272 651.43 666.815 651.43 670.622 648.681 673.366 644.912 673.366 641.144 673.373 638.395 670.579 638.395 666.815ZM650.014 666.815C650.014 663.54 647.442 661.638 644.912 661.638 642.384 661.638 639.812 663.54 639.812 666.815 639.812 670.225 642.384 672.036 644.912 672.036 647.442 672.036 650.014 670.225 650.014 666.815ZM642.653 669.61 642.653 664.078C642.653 663.724 642.965 663.371 643.319 663.371L645.182 663.371C646.641 663.371 647.662 664.255 647.662 665.451 647.662 666.47 647.087 667.354 645.757 667.573L647.216 669.214C647.35 669.349 647.435 669.526 647.435 669.653 647.435 670.049 647.166 670.318 646.77 670.318 646.501 670.318 646.324 670.184 646.195 670.007L644.247 667.708 644.028 667.708 644.028 669.611C644.028 669.965 643.716 670.276 643.32 670.276 642.965 670.268 642.653 669.964 642.653 669.61ZM645.005 666.462C645.805 666.462 646.244 666.065 646.244 665.534 646.244 664.962 645.848 664.65 645.139 664.65L644.034 664.65 644.034 666.469 645.005 666.469 645.005 666.462Z" fill="#D62300" transform="matrix(1 0 0 1.00031 -128.761 -45.6954)"/></g></svg>