<svg width="457" height="464" xmlns="http://www.w3.org/2000/svg" xmlns:xlink="http://www.w3.org/1999/xlink" xml:space="preserve" overflow="hidden"><defs><clipPath id="clip0"><rect x="109" y="178" width="457" height="464"/></clipPath></defs><g clip-path="url(#clip0)" transform="translate(-109 -178)"><path d="M571.267 347.493C559.847 320.084 543.683 295.662 522.775 274.576 502.041 253.494 477.971 237.153 451.087 225.556 423.152 213.611 393.635 207.636 363.061 207.636 332.315 207.636 303.149 213.611 275.212 225.556 248.154 237.153 224.084 253.494 203.349 274.576 182.441 295.662 166.277 320.084 154.857 347.493 143.084 375.782 137.111 405.476 137.111 436.573 137.111 467.499 143.083 497.19 154.857 525.479 166.277 552.889 182.441 577.31 203.349 598.395 224.084 619.478 248.154 635.819 275.212 647.415 303.149 659.364 332.315 665.336 363.061 665.336 393.635 665.336 423.152 659.364 451.087 647.415 477.971 635.819 502.04 619.478 522.775 598.395 543.683 577.31 559.847 552.889 571.267 525.479 583.041 497.19 589.013 467.498 589.013 436.573 589.013 405.476 583.041 375.782 571.267 347.493L571.267 347.493ZM459.873 407.759C470.239 407.759 479.376 411.449 486.931 419.004 494.311 426.559 497.999 435.697 497.999 446.237 497.999 456.779 494.311 465.917 486.931 473.294 479.376 480.849 470.238 484.717 459.873 484.717 449.507 484.717 440.547 480.849 433.166 473.294 425.611 465.916 421.921 456.779 421.921 446.237 421.921 435.697 425.612 426.559 433.166 419.004 440.547 411.449 449.507 407.759 459.873 407.759ZM365.697 484.188 365.697 430.424C365.697 421.641 362.535 415.491 356.562 412.329 350.236 408.99 343.209 407.407 335.3 407.584 323 407.407 314.392 410.746 309.473 417.247 306.311 421.289 304.729 426.559 304.204 433.234L322.475 433.234C322.826 430.072 323.881 427.964 325.112 426.559 327.043 424.1 330.205 422.868 334.774 423.045 338.639 422.869 341.627 423.571 343.735 424.803 345.843 425.857 346.722 427.964 346.897 430.952 346.897 433.411 345.491 435.345 342.681 436.573L328.625 438.858C322.124 439.735 316.854 441.318 312.812 443.603 305.96 447.642 302.621 454.143 302.798 463.458 302.621 469.958 304.729 475.228 308.947 479.093 312.634 482.258 317.731 484.014 323.88 484.188 333.895 484.014 341.803 481.552 347.425 476.633L347.425 484.188 365.697 484.188ZM292.078 484.188 292.078 388.959 273.806 388.959 273.806 484.188 292.078 484.188ZM396.094 484.188 396.094 449.224C396.094 443.251 396.797 439.032 398.379 436.399 399.607 433.586 401.893 431.303 404.703 429.369 407.865 427.261 411.204 426.208 414.717 426.208L420.341 426.559 420.165 407.936 415.42 408.287 408.394 410.218C403.472 412.152 399.082 415.491 395.391 420.586L395.391 411.271 377.996 411.097 377.996 484.188 396.094 484.188ZM264.494 423.923C261.683 413.734 256.236 405.299 247.976 398.799 239.545 392.123 229.881 388.784 219.339 388.959 206.163 388.784 195.268 393.352 186.131 402.841 176.82 412.152 172.249 423.221 172.249 436.4 172.249 449.401 176.82 460.821 186.131 470.133 195.268 479.27 206.162 483.838 219.339 483.838 229.881 483.838 239.545 480.676 247.976 474.175 256.237 467.499 261.684 459.238 264.494 449.048L245.343 449.048C242.884 453.969 239.367 458.011 234.975 461.172 230.056 464.16 224.96 465.74 219.339 465.74 211.256 465.74 204.403 462.755 198.782 457.13 192.984 451.332 190.173 444.48 190.347 436.4 190.173 428.316 192.984 421.463 198.782 415.665 204.403 410.044 211.255 407.057 219.339 407.057 224.96 407.057 230.056 408.639 234.975 411.801 239.367 414.789 242.884 419.005 245.343 423.923L264.494 423.923ZM346.545 446.939 343.032 448.872 333.895 451.158C330.031 451.683 327.043 452.563 325.286 453.617 322.298 455.548 320.893 458.184 320.893 461.875 320.893 465.214 321.773 467.499 323.529 469.078 325.286 470.484 327.394 471.186 330.031 471.186 334.246 471.186 337.936 469.958 341.452 467.498 344.789 465.037 346.545 460.646 346.545 454.319L346.545 446.939ZM459.873 466.442C465.494 466.442 470.239 464.511 474.103 460.469 477.971 456.427 479.905 451.683 480.079 446.237 479.905 440.438 477.971 435.697 474.103 431.829 470.239 427.79 465.494 425.857 459.873 426.031 454.426 425.857 449.682 427.79 445.817 431.829 441.952 435.697 439.844 440.438 439.844 446.237 439.844 451.684 441.952 456.427 445.817 460.469 449.681 464.511 454.426 466.442 459.873 466.442ZM557.562 445.182 557.562 428.844 509.245 428.844 509.245 445.182 557.562 445.182ZM545.262 366.47 501.164 410.57 489.568 398.975 533.669 354.874 545.262 366.47ZM470.239 393 470.239 345.736 453.9 345.736 453.9 393 470.239 393Z" fill="#ED1C24" fill-rule="evenodd" transform="matrix(1.00034 0 0 1 -26.2952 -30.0815)"/><path d="M486.931 419.004C479.376 411.449 470.239 407.759 459.873 407.759 449.507 407.759 440.547 411.449 433.166 419.004 425.612 426.559 421.921 435.697 421.921 446.237 421.921 456.779 425.612 465.917 433.166 473.294 440.547 480.849 449.508 484.717 459.873 484.717 470.239 484.717 479.376 480.849 486.931 473.294 494.312 465.916 498 456.779 498 446.237 498 435.696 494.312 426.559 486.931 419.004ZM292.078 388.959 292.078 484.188 273.806 484.188 273.806 388.959 292.078 388.959ZM408.393 410.218C403.472 412.152 399.082 415.491 395.391 420.586L395.391 411.271 377.996 411.097 377.996 484.188 396.093 484.188 396.093 449.224C396.093 443.251 396.796 439.032 398.379 436.399 399.607 433.586 401.892 431.303 404.703 429.369 407.864 427.261 411.203 426.207 414.717 426.207L420.341 426.559 420.164 407.935 415.419 408.286 408.393 410.218ZM335.3 407.584C323 407.407 314.392 410.746 309.473 417.247 306.311 421.289 304.729 426.559 304.204 433.234L322.475 433.234C322.826 430.072 323.881 427.964 325.112 426.559 327.043 424.1 330.205 422.868 334.774 423.045 338.639 422.869 341.627 423.571 343.735 424.803 345.843 425.857 346.722 427.964 346.897 430.952 346.897 433.411 345.491 435.345 342.681 436.573L328.625 438.858C322.124 439.735 316.854 441.318 312.812 443.603 305.96 447.642 302.621 454.143 302.798 463.458 302.621 469.958 304.729 475.228 308.947 479.093 312.634 482.258 317.731 484.014 323.88 484.188 333.895 484.014 341.803 481.552 347.425 476.633L347.425 484.188 365.697 484.188 365.697 430.424C365.697 421.641 362.535 415.491 356.562 412.329 350.236 408.99 343.21 407.407 335.3 407.584L335.3 407.584ZM264.494 449.047C261.683 459.238 256.237 467.498 247.976 474.174 239.545 480.675 229.881 483.837 219.339 483.837 206.163 483.837 195.268 479.269 186.131 470.132 176.82 460.821 172.249 449.4 172.249 436.399 172.249 423.22 176.82 412.151 186.131 402.84 195.268 393.351 206.162 388.783 219.339 388.958 229.881 388.783 239.545 392.122 247.976 398.798 256.237 405.299 261.684 413.733 264.494 423.922L245.343 423.922C242.884 419.004 239.367 414.787 234.975 411.799 230.056 408.638 224.96 407.056 219.339 407.056 211.256 407.056 204.403 410.043 198.782 415.664 192.984 421.463 190.173 428.315 190.348 436.398 190.173 444.479 192.984 451.331 198.782 457.129 204.403 462.754 211.255 465.739 219.339 465.739 224.96 465.739 230.056 464.159 234.975 461.171 239.367 458.009 242.883 453.968 245.343 449.047L264.494 449.047ZM343.032 448.872 346.546 446.939 346.546 454.32C346.546 460.647 344.789 465.037 341.453 467.499 337.937 469.958 334.247 471.187 330.031 471.187 327.394 471.187 325.286 470.484 323.529 469.078 321.773 467.499 320.893 465.214 320.893 461.875 320.893 458.185 322.298 455.548 325.286 453.617 327.042 452.564 330.031 451.684 333.895 451.158L343.032 448.872ZM474.103 460.469C470.239 464.511 465.494 466.442 459.873 466.442 454.426 466.442 449.682 464.511 445.817 460.469 441.952 456.427 439.844 451.683 439.844 446.237 439.844 440.438 441.952 435.697 445.817 431.829 449.682 427.79 454.426 425.857 459.873 426.031 465.494 425.857 470.239 427.79 474.281 431.829 477.971 435.697 479.905 440.438 480.079 446.237 479.905 451.683 477.971 456.427 474.103 460.469L474.103 460.469ZM557.562 428.844 557.562 445.182 509.245 445.182 509.245 428.844 557.562 428.844ZM501.164 410.57 545.262 366.47 533.669 354.874 489.568 398.975 501.164 410.57ZM470.239 345.736 470.239 393 453.9 393 453.9 345.736 470.239 345.736Z" fill="#FFFFFF" fill-rule="evenodd" transform="matrix(1.00034 0 0 1 -26.2952 -30.0815)"/></g></svg>