<svg id="Layer_1" data-name="Layer 1" xmlns="http://www.w3.org/2000/svg" viewBox="0 0 638 598.89"><defs><style>.cls-1{fill:#f4891e;}.cls-1,.cls-10,.cls-100,.cls-101,.cls-102,.cls-103,.cls-104,.cls-105,.cls-106,.cls-107,.cls-108,.cls-109,.cls-11,.cls-110,.cls-111,.cls-112,.cls-113,.cls-114,.cls-115,.cls-116,.cls-117,.cls-118,.cls-119,.cls-12,.cls-120,.cls-121,.cls-122,.cls-123,.cls-13,.cls-14,.cls-15,.cls-16,.cls-17,.cls-18,.cls-19,.cls-2,.cls-20,.cls-21,.cls-22,.cls-23,.cls-24,.cls-25,.cls-26,.cls-27,.cls-28,.cls-29,.cls-3,.cls-30,.cls-31,.cls-32,.cls-33,.cls-34,.cls-35,.cls-36,.cls-37,.cls-38,.cls-39,.cls-4,.cls-40,.cls-41,.cls-42,.cls-43,.cls-44,.cls-45,.cls-46,.cls-47,.cls-48,.cls-49,.cls-5,.cls-50,.cls-51,.cls-52,.cls-53,.cls-54,.cls-55,.cls-56,.cls-57,.cls-58,.cls-59,.cls-6,.cls-60,.cls-61,.cls-62,.cls-63,.cls-64,.cls-65,.cls-66,.cls-67,.cls-68,.cls-69,.cls-7,.cls-70,.cls-71,.cls-72,.cls-73,.cls-74,.cls-75,.cls-76,.cls-77,.cls-78,.cls-79,.cls-8,.cls-80,.cls-81,.cls-82,.cls-83,.cls-84,.cls-85,.cls-86,.cls-87,.cls-88,.cls-89,.cls-9,.cls-90,.cls-91,.cls-92,.cls-93,.cls-94,.cls-95,.cls-96,.cls-97,.cls-98,.cls-99{fill-rule:evenodd;}.cls-2{fill:#c2151c;}.cls-3{fill:#bc141a;}.cls-4{fill:#c6161d;}.cls-5{fill:#f48c1e;}.cls-6{fill:#c1151c;}.cls-7{fill:#faaa1b;}.cls-8{fill:#fed608;}.cls-9{fill:#fbaf1b;}.cls-10{fill:#f58f1e;}.cls-11{fill:#f58e1e;}.cls-12{fill:#fdbb16;}.cls-13{fill:#fec315;}.cls-14{fill:#f9a61c;}.cls-15{fill:#fbb319;}.cls-16{fill:#f5931e;}.cls-17{fill:#fcb718;}.cls-18{fill:#fdbf15;}.cls-19{fill:#faa81b;}.cls-20{fill:#fec813;}.cls-21{fill:#fed10b;}.cls-22{fill:#fec912;}.cls-23{fill:#fed10c;}.cls-24{fill:#f79a1d;}.cls-25{fill:#f89e1c;}.cls-26{fill:#fecc10;}.cls-27{fill:#fcb618;}.cls-28{fill:#fec215;}.cls-29{fill:#fdbc16;}.cls-30{fill:#fbad1b;}.cls-31{fill:#fed00d;}.cls-32{fill:#cc171e;}.cls-33{fill:#cd171f;}.cls-34{fill:#fefdfc;}.cls-35{fill:#faab18;}.cls-36{fill:#f6981d;}.cls-37{fill:#faac1c;}.cls-38{fill:#fee400;}.cls-39{fill:#ce171f;}.cls-40{fill:#fee100;}.cls-41{fill:#ca171e;}.cls-42{fill:#c9171e;}.cls-43{fill:#db1921;}.cls-44{fill:#d41820;}.cls-45{fill:#fef000;}.cls-46{fill:#ec1c24;}.cls-47{fill:#e51b23;}.cls-48{fill:#fec50c;}.cls-49{fill:#df1a22;}.cls-50{fill:#fbaf16;}.cls-51{fill:#fcb613;}.cls-52{fill:#fdba12;}.cls-53{fill:#febf0f;}.cls-54{fill:#fed104;}.cls-55{fill:#fed601;}.cls-56{fill:#fed900;}.cls-57{fill:#fedd00;}.cls-58{fill:#fecc07;}.cls-59{fill:#fec909;}.cls-60{fill:#fec40c;}.cls-61{fill:#d91921;}.cls-62{fill:#d31820;}.cls-63{fill:#fee800;}.cls-64{fill:#feec00;}.cls-65{fill:#fecd07;}.cls-66{fill:#d81921;}.cls-67{fill:#d21820;}.cls-68{fill:#f7991d;}.cls-69{fill:#e41b23;}.cls-70{fill:#f79e1c;}.cls-71{fill:#dc1a22;}.cls-72{fill:#c3161c;}.cls-73{fill:#dd1a22;}.cls-74{fill:#de1d24;}.cls-75{fill:#d01e23;}.cls-76{fill:#d62327;}.cls-77{fill:#fefefe;}.cls-78{fill:#fee600;}.cls-79{fill:#faa71b;}.cls-80{fill:#fedd02;}.cls-81{fill:#8d030d;}.cls-82{fill:#fed504;}.cls-83{fill:#fed902;}.cls-84{fill:#9a0812;}.cls-85{fill:#e91c24;}.cls-86{fill:#de1a22;}.cls-87{fill:#f9a51c;}.cls-88{fill:#f89d1c;}.cls-89{fill:#ae1018;}.cls-90{fill:#ad1018;}.cls-91{fill:#ac0f17;}.cls-92{fill:#b5121a;}.cls-93{fill:#92050e;}.cls-94{fill:#b7131a;}.cls-95{fill:#b11119;}.cls-96{fill:#a20c15;}.cls-97{fill:#960710;}.cls-98{fill:#bd151c;}.cls-99{fill:#9c0912;}.cls-100{fill:#ae1118;}.cls-101{fill:#bb151c;}.cls-102{fill:#b21119;}.cls-103{fill:#a10c15;}.cls-104{fill:#b5131a;}.cls-105{fill:#a70e17;}.cls-106{fill:#bf161c;}.cls-107{fill:#a81018;}.cls-108{fill:#c92b29;}.cls-109{fill:#f8a31b;}.cls-110{fill:#f9a71a;}.cls-111{fill:#faae18;}.cls-112{fill:#fcb316;}.cls-113{fill:#fed106;}.cls-114{fill:#fecc09;}.cls-115{fill:#fdbb12;}.cls-116{fill:#fec30f;}.cls-117{fill:#fec80c;}.cls-118{fill:#be151c;}.cls-119{fill:#fdfaf8;}.cls-120{fill:#9d0a13;}.cls-121{fill:#990811;}.cls-122{fill:#c75341;}.cls-123{fill:#db3332;}</style></defs><title>LAY&amp;apos;S Logo Vector</title><path class="cls-1" d="M526.1,797.85l-2.49.14a8.17,8.17,0,0,1-4.79-.07c1.82-2.21,4.3-2.6,6.49-3.3a611.68,611.68,0,0,0,76.83-30.47,604.23,604.23,0,0,0,94.23-56c11.34-8.15,22.1-17,33.06-25.64,1.09-.86,2.14-2.24,3.82-1-10,14.12-21.77,26.66-34.44,38.36A297.59,297.59,0,0,1,574,789.14a316.62,316.62,0,0,1-41.29,8.16,26.31,26.31,0,0,1-3.44.06C528.3,798,527.11,797.33,526.1,797.85Z" transform="translate(-181 -200.55)"/><path class="cls-2" d="M779.22,323.31c4.46,3.8,7.37,8.7,9.86,13.91-.1,1.91,1.07,3.35,1.8,5,6.4,14.09,10.5,28.91,13.73,44A271.07,271.07,0,0,1,810.38,431c.24,5.52,1.13,11.17.8,16.58-.64,10.57,0,21.14-.78,31.72-1,12.76-2.07,25.49-4.56,38-4.72,23.76-9.79,47.44-19.07,70-4,9.81-10.33,18.19-17.19,26.15a32.33,32.33,0,0,0-3.11,3.91c-3,3.5-6.88,5.93-10.54,8.62-.72.54-1.69,1-2.32-.27-.07-1.53.9-2.59,1.8-3.56,5.29-5.71,9.19-12.44,13.74-18.7a26.36,26.36,0,0,0,2.78-5.28,276.44,276.44,0,0,0,15.57-48.38c3-14,6.74-27.93,8.5-42.2,1.18-9.55,2.77-19.05,3.13-28.72.26-7.3,1-14.62,1.07-21.93.14-15.17-.46-30.35-1.43-45.47a203.75,203.75,0,0,0-5.35-33.17c-1.82-7.86-3.31-15.78-5.54-23.55-1.74-6-3.22-12.15-5.76-17.92a99.91,99.91,0,0,1-3.48-10.76C778.37,325.18,777.47,323.88,779.22,323.31Z" transform="translate(-181 -200.55)"/><path class="cls-3" d="M230.13,683.46C222,674.91,215.94,665,210.5,654.63c-12.17-23.2-19.29-48-23.74-73.66a372.32,372.32,0,0,1-5-45.68c-1.12-23.15-1.1-46.3,1.47-69.34,3.5-31.24,12.65-60.72,29-87.75,4.49-7.43,8.72-15.11,15.48-20.88,1.38,1.44,1.45,1.49.12,3.42-3.51,5.11-6.74,10.37-9.86,15.72a186.24,186.24,0,0,0-15.52,35.33c-5.13,15.39-8,31.23-10.15,47.25A327.57,327.57,0,0,0,189,509.77c.43,17.89.66,35.79,3,53.59,2,15,4.15,29.95,8.06,44.5,3.25,12.09,6.57,24.21,11.94,35.72a253.16,253.16,0,0,0,17.52,31.91,9.1,9.1,0,0,1,1.43,3.13C231.09,680.3,231.56,682.05,230.13,683.46Z" transform="translate(-181 -200.55)"/><path class="cls-3" d="M766,617.33c-.19-1.62,1.08-2.57,2-3.48,10.68-11.14,17.64-24.34,22.61-38.89,5.23-15.36,8.78-31.13,12.28-46.9a285.31,285.31,0,0,0,6.06-40.71c.77-10.24,1.25-20.44,1-30.68-.09-4.56.54-9.06.24-13.69-.84-12.78-1.42-25.55-3.19-38.29a284.89,284.89,0,0,0-12.29-51,127,127,0,0,0-5.3-13c-.51-1.11-1.38-2.22-.28-3.47a214.56,214.56,0,0,1,24.1,64.21,278.48,278.48,0,0,1,5.07,36.49,297.47,297.47,0,0,1-.67,50c-2.52,26.15-8.32,51.56-16.11,76.6C796,582,787.53,597.62,774.32,610.47a12,12,0,0,0-1.29,1.75C770.9,614.23,769.43,617.17,766,617.33Z" transform="translate(-181 -200.55)"/><path class="cls-4" d="M779.22,323.31c.11,4.28,1.64,8.28,3.28,12,3.6,8.26,5.67,16.93,7.88,25.57a377.81,377.81,0,0,1,8.12,40.66,114.76,114.76,0,0,1,1.5,16.8c0,7.46,1,14.91,1,22.37,0,12.32-.15,24.63-.91,36.95-.48,7.93-1.56,15.76-2.33,23.62A231.11,231.11,0,0,1,793,529c-3.26,14.73-6.17,29.56-10.79,44-3.15,9.84-6.32,19.72-11.24,28.82-2.64,4.89-6.09,9.41-9.3,14-2.48,3.55-6.26,6.13-7.73,10.39.23,1.36-.87,1.82-1.7,2.36-2.44,1.62-4.78,3.39-7.27,4.94a2,2,0,0,1-1.82-.27c-.92-2,.48-3.25,1.54-4.4a104.09,104.09,0,0,0,15.1-22.22c4.39-8.39,8.57-17,10.52-26.37,1-2.45,2.7-4.55,3.24-7.19.39-1.11.27-2.31.6-3.43a213.3,213.3,0,0,0,7.94-28.76c2.11-10.25,4.89-20.4,6.26-30.79,1.28-9.65,2.85-19.28,3.56-29,.57-7.73,1.48-15.45,1.46-23.19,0-8.88,1-17.72.15-26.66-.68-7.48-.69-15.05-1.43-22.56-.84-8.64-1.62-17.3-2.83-25.9a313.37,313.37,0,0,0-7.47-37.58c-2.23-8.28-4.5-16.59-7.94-24.5a3.3,3.3,0,0,1-.29-1.52,1.81,1.81,0,0,1,.5-1C777.09,318.58,777.51,321.58,779.22,323.31Z" transform="translate(-181 -200.55)"/><path class="cls-5" d="M733.25,681.54c-2.61-.25-3.87,2-5.45,3.28a611.07,611.07,0,0,1-61.41,44.75c-14.18,9.06-28.81,17.35-43.71,25.2A591.9,591.9,0,0,1,542,789.82c-7.37,2.57-14.76,5.1-22.12,8.17h3.77c-3.3,1.2-6.82.85-10.19,1a287.38,287.38,0,0,1-29.5.13c.41-2.59,2.71-2.66,4.49-3.11,7.89-2,15.76-4.11,23.56-6.43,8.4-2.49,16.75-5.19,25-8a11.47,11.47,0,0,0,4.49-2.76c4.69-1.91,9.76-2.33,14.66-3.46A295.5,295.5,0,0,0,614.3,755.2,319.09,319.09,0,0,0,671,721c4-3,7.71-6.46,11.85-9.33a7.64,7.64,0,0,1,.73-.54c3.51-2.76,6.59-6,10.21-8.69a3.52,3.52,0,0,0,2.31-2.26,7,7,0,0,1,2.6-2.81,8.19,8.19,0,0,1,2.3-1.17c4.41-1.87,7.76-5.28,11.42-8.18,11.47-9.07,22.64-18.51,33.29-28.56,1.06-1,2-2.54,3.93-1.69.05,0,.07.18.05.26a1.75,1.75,0,0,1-.13.28C744.26,666.14,739.27,674.2,733.25,681.54Z" transform="translate(-181 -200.55)"/><path class="cls-6" d="M230.3,678.51c-4.85-8-10.3-15.65-14.22-24.15-4.83-10.47-9.56-21-12.84-32.13s-5.84-22.57-8.29-34c-1.48-6.89-1.95-14-3.16-20.95-1.55-8.94-1.71-18-2.64-27-.7-6.78-.48-13.55-.85-20.31-.68-12.45,0-24.94.77-37.43C189.64,473,191,463.55,192,454a212.77,212.77,0,0,1,6.48-32.43,190.27,190.27,0,0,1,17.2-43.17,147.48,147.48,0,0,1,11.87-18.73c.62-.8,1.22-1.53.12-2.39a31.77,31.77,0,0,1,6.71-5.75c1.21,1.14,1.31,1.26.13,3-1.87,2.78-3.66,5.61-5.41,8.47a232.8,232.8,0,0,0-18.56,38.78c-8.23,21.54-12,44.06-14.49,66.78a436.07,436.07,0,0,0-2,64.34c.5,12.95,1.57,25.9,3.29,38.78,1.57,11.74,3.16,23.47,6.16,34.95a264.25,264.25,0,0,0,11.77,36.11,194,194,0,0,0,16.43,31C231.71,675.51,232.33,677.41,230.3,678.51Z" transform="translate(-181 -200.55)"/><path class="cls-7" d="M230.3,678.51c1.12-1.33.13-3.2,1.16-4.55a2.65,2.65,0,0,1,.21-2.08c.6-1.42.94-3,1.63-4.35a8,8,0,0,1,.94-1.41,16.93,16.93,0,0,0,2-3.14c1.1-1.07,1.56-2.85,3.4-3.1.61.07,1.12.51,1.78.51.28-.73-.59-.95-.68-1.52.07-2,1.71-2.73,2.94-3.82,1.34-.67,2.13-2.56,4.09-1.87,5.69,2.21,11.77,2.78,17.69,4,3.06.64,6.14,1.24,9.25,1.61,1.38.17,3,.19,3.64,1.92-.92,2.78-4.12,3.11-5.64,5.25-4.85,3.79-4.86,3.8-1,8.61,2.36,2.9,4.78,5.75,7.32,8.49.95,1,2.2,2,1.52,3.78-1.32,1.13-2.81.54-4.19.32-3.5-.52-7-1-10.5-1.6-1-.18-2.49-1-3.16.2-.58,1,.83,1.73,1.33,2.59.81,1.39,2.43,2.4,2,4.35-7.31.46-14.62,1-21.79-1.15-5.36-1.6-10.47-3.64-14.19-8.11C230.18,681.81,230.24,680.16,230.3,678.51Z" transform="translate(-181 -200.55)"/><path class="cls-8" d="M320.89,256.68a273.07,273.07,0,0,1,66.69-36c1.7,3,.83,6.25.61,9.4-.16,2.36-.94,4.69-.4,7.09.22,1.69-1.1,2.09-2.24,2.56A283.91,283.91,0,0,0,339,264.82a4.2,4.2,0,0,1-2.88,1,68.17,68.17,0,0,1-11.79-5.13C322.72,259.82,320.82,259,320.89,256.68Z" transform="translate(-181 -200.55)"/><path class="cls-9" d="M710.58,291.85c8.29,8,15.51,16.89,22.59,25.93.38.49.84.91,1.26,1.37,2.17,2.09,3.69,4.69,5.51,7.05,1.23,1.88,2.47,3.77,3.77,5.6,1.15,1.44,2.12,3,3.17,4.51.72,1.09,1.48,2.16,2.16,3.27,2.05,3.33,2.48,3.46,5.28.77a33.76,33.76,0,0,0,10.8-22.94c.07-1.22-.23-2.54.78-3.56a2.25,2.25,0,0,1,2,.5c1.41,2.79.8,5.69.45,8.57-.69,5.62-3.63,10.34-6.19,15.22-1.35,1.89-3.32,3-5.22,4.17a36.45,36.45,0,0,1-9.06,4.59c-4.15,1.46-8.11,3.54-12.62,3.81-4.94-7.1-9.5-14.47-14.81-21.31-4.29-5.53-8.66-11-13.29-16.23a5.25,5.25,0,0,1-1.66-2.94c.65-5.53,2.22-10.87,3.26-16.31C708.89,293,709.08,291.74,710.58,291.85Z" transform="translate(-181 -200.55)"/><path class="cls-10" d="M701.07,696.62l-1.89,1.26c-.56-2.81.58-5.46.85-8.19.37-3.93-.16-4.53-4-3.47q-5.26,1.44-10.55,2.77a3.74,3.74,0,0,1-2.38-.17c-1.63-2.31.59-3.22,1.77-4.19,4.47-3.63,9.25-6.89,13.72-10.51,11.39-9.24,22.71-18.54,33.42-28.57,4.44-4.15,8.81-8.35,13.08-12.65,2.48-2.89,6.29-4,8.89-6.73,4.47-2.3,8-5.93,12-8.84,2.72-1.22,4.25-4.07,7.08-5.11a63.37,63.37,0,0,1-5.2,12c-14.34,16.16-30.46,30.45-46.77,44.53-4,3.49-8.26,6.75-12.29,10.25-1,.85-2.46,1.75-.14,2.9,1.2.6,1.17,1.81,1,3-.43,3.47-2.38,6-4.9,8.13C703.46,694.21,702.39,695.54,701.07,696.62Z" transform="translate(-181 -200.55)"/><path class="cls-11" d="M541.81,779.1c-.66,1.94-2.36,2.54-4.06,3.12-16.1,5.46-32.33,10.53-48.88,14.52-1.79.42-3.76.64-4.95,2.39-9.08.23-18.06-1-27-2.06a167.64,167.64,0,0,1-21.43-3.63c.43-2.1,2.3-1.9,3.72-2.19,10.17-2.07,20.39-3.82,30.51-6.13a49.12,49.12,0,0,0,9.64-2.76,5.79,5.79,0,0,1,1.07-.27,19.46,19.46,0,0,1,5.6.14,37.84,37.84,0,0,0,11.44.11c3.84-.38,7.65-.43,11.48-.43,6.91-.19,13.77-1.13,20.64-1.89,2.91-.24,5.77-.87,8.67-1.23C539.43,778.63,540.7,778.11,541.81,779.1Z" transform="translate(-181 -200.55)"/><path class="cls-2" d="M232.11,672.07c-.21.63-.44,1.26-.65,1.89-4.58-5.1-7.77-11.07-10.72-17.15a251.85,251.85,0,0,1-16.36-43.26,272.9,272.9,0,0,1-7.25-36.38c-1.37-10.29-2.48-20.67-3.18-31.07-1.13-16.94-1-33.87-.74-50.8.15-9.76,1.47-19.51,2.33-29.26a291.94,291.94,0,0,1,5.18-33.29,206.56,206.56,0,0,1,10.57-35.29q4.74-11.82,10.45-23.12a162.64,162.64,0,0,1,11.5-19.41c.63-.89,2.35-1.72,1.14-3.36l2.11-1.89c.8-.84,1.44-2.07,3-1.33.94,1.37,0,2.45-.71,3.39-7.34,10.06-12.62,21.28-18.18,32.32-3.16,6.27-4.62,13.28-7.71,19.61-3,6.13-3.79,12.85-5.62,19.29-4.09,14.34-5.95,29.11-7.61,43.88-1.19,10.51-2.29,21-3,31.58-.36,5.14.29,10.28,0,15.41-.48,8.08.31,16.12.6,24.18.31,8.46,1.2,16.91,1.81,25.37.81,11.23,2.84,22.25,4.79,33.26a219.73,219.73,0,0,0,13.4,45.15c3.91,9.5,8.1,18.86,13.89,27.42C231.65,670.07,232.34,670.91,232.11,672.07Z" transform="translate(-181 -200.55)"/><path class="cls-12" d="M581.47,213.26c9.66,2.28,18.83,6,28,9.7a197.81,197.81,0,0,1,21.8,10.16,5.46,5.46,0,0,1,.87,3.59c-.35,4.46-.53,8.94-.92,13.4-.94,2-2.31.84-3.4.32-4.26-2-8.43-4.2-12.67-6.25-5.89-2.49-11.63-5.32-17.64-7.5q-4.43-1.74-8.9-3.32c-2.58-1.28-5.91-1-7.76-3.79-.69-4.78-.33-9.57-.24-14.36A2.49,2.49,0,0,1,581.47,213.26Z" transform="translate(-181 -200.55)"/><path class="cls-13" d="M479.92,201.14c1.48-.76,3.07-.47,4.62-.5,13.62-.22,27.24-.14,40.81,1.31,4.45.47,9,.69,13.32,1.87a28.49,28.49,0,0,1,1,16.2c-1.28,1.26-2.88,1-4.4.76-4.21-.66-8.45-1-12.65-1.66a65.29,65.29,0,0,0-8.37-.79,5.74,5.74,0,0,1-1-.21c-1.85-.55-3.73-.25-5.6-.26a18.26,18.26,0,0,1-3.77-.27c-4.46-.8-8.95-.23-13.41-.36-4.22-.12-5-.79-5.48-5-.13-1.13-.18-2.28-.25-3.42C484.47,205.35,484,202.13,479.92,201.14Z" transform="translate(-181 -200.55)"/><path class="cls-14" d="M329.67,749.55a278.89,278.89,0,0,1-36-28.14c-1.43-1.33-3.38-2.1-4.3-4,.24-2.36,2-2,3.49-1.84,6.74.55,13.46,1.3,20.21,1.64,2.8.54,4.71,2.58,6.83,4.21,3.89,3,7.71,6,11.81,8.74C337,734,342.44,737.52,348,740.87c1.33,1,2.8,1.72,4.21,2.57a34.63,34.63,0,0,1,4.2,2.49c.78.65,1.71,1.37.39,2.41-1.72,1-3.64.81-5.51.86C344.1,749.37,336.87,748.83,329.67,749.55Z" transform="translate(-181 -200.55)"/><path class="cls-15" d="M710.58,291.85c-1.49,1.44-1.26,3.45-1.67,5.22-1,4.54-1.88,9.12-2.81,13.69-1,.32-1.25-.53-1.78-1-8.77-8.82-17.29-17.91-27-25.76-2.09-1.88-4.39-3.5-6.52-5.34-1-.85-2.3-1.55-2.28-3.17.87-4.39,1-8.89,2-13.26.3-1.37.15-3.66,2.82-3.09A251.8,251.8,0,0,1,710.58,291.85Z" transform="translate(-181 -200.55)"/><path class="cls-16" d="M479.5,782.88c-2.55,2.11-5.8,2.31-8.79,2.94-10.87,2.33-21.81,4.36-32.73,6.47a4.76,4.76,0,0,0-2.52,1.15c-14.81-2.66-29.11-7.17-43.32-12a3,3,0,0,1-.74-.55c.59-2.65,2.91-2.41,4.73-2.57,8.94-.8,17.84-1.89,26.72-3.18a6.6,6.6,0,0,0,3-.8c1.49-.53,2.9,0,4.32.32,5.11,1.18,10.19,2.51,15.4,3.18,5.65,1,11.32,1.94,17,2.51,3.47.42,6.93.89,10.44,1C475.27,781.39,477.6,781.31,479.5,782.88Z" transform="translate(-181 -200.55)"/><path class="cls-17" d="M673.31,259.17c-2.64,1.22-2,3.83-2.42,5.94-.68,3.67-.45,7.5-1.93,11-1.7.38-2.66-.93-3.79-1.76-6.31-4.63-12.52-9.39-19.28-13.37-4.47-2.66-8.86-5.43-13.41-8-.82-.46-2.09-.66-1.92-2.09-.4-6,.79-11.88.71-17.84A255.21,255.21,0,0,1,673.31,259.17Z" transform="translate(-181 -200.55)"/><path class="cls-18" d="M539.29,220.13c.28-5.46-.32-10.88-.62-16.31a229.84,229.84,0,0,1,34.47,6.88c2.81.75,5.69,1.27,8.33,2.56v16.91a1.57,1.57,0,0,1-1.34.43c-3.22-.91-6.36-2.06-9.62-2.85-3.07-.93-6.21-1.6-9.3-2.4-1.25-.31-2.49-.67-3.77-.9-2.55-.58-5.13-1-7.69-1.58s-5-.9-7.5-1.24C541.12,221.42,539.64,221.87,539.29,220.13Z" transform="translate(-181 -200.55)"/><path class="cls-19" d="M314,718a160.35,160.35,0,0,1-22-1.79,2.17,2.17,0,0,0-2.59,1.2,262.57,262.57,0,0,1-23.27-24.71,30.06,30.06,0,0,0-4.07-5.51c-.58-.63-1.21-1.28-.74-2.2s1.41-.83,2.43-.65c5.11.87,10.24,1.62,15.37,2.38a5.3,5.3,0,0,0,1.51-.19c2.69.18,3.56,2.79,5.43,4.07,6.29,6.07,12,12.7,18.85,18.23,2.2,2.47,4.95,4.32,7.38,6.54C313.06,716.11,314.3,716.57,314,718Z" transform="translate(-181 -200.55)"/><path class="cls-20" d="M238.89,348.45l-2.4,1.23c5.38-10.33,12.13-19.78,19-29.11a166.19,166.19,0,0,1,14.34-17.45c3.3,2.73,6.37,5.74,9.73,8.43,1,.75,2.15,1.42,2.1,2.93-2.13,4-5.42,7.1-8.14,10.65-3,3.9-6,7.77-8.74,11.85a3.27,3.27,0,0,1-.67.62c-1.9,1-4.08,1.09-6,2-1.5.61-3,1.12-4.52,1.81a35.89,35.89,0,0,0-5.51,2.49c-.91.42-1.81.85-2.69,1.33C243.18,346.17,241.39,348,238.89,348.45Z" transform="translate(-181 -200.55)"/><path class="cls-21" d="M320.89,256.68c3,4.33,8.07,5.24,12.4,7.35.92.44,2,.52,2.69,1.42.29,1.52-1,1.92-1.88,2.54a285.28,285.28,0,0,0-28.46,22.86,3.35,3.35,0,0,1-2.42,1.26c-4.26-2.07-7.63-5.35-11.23-8.33-.81-.67-1.43-1.56-.75-2.73A228.53,228.53,0,0,1,320.89,256.68Z" transform="translate(-181 -200.55)"/><path class="cls-11" d="M704.22,692.85c1-2,3.4-3,4.06-5.45.75-2.78,1.89-5.41-2.78-6,3.22-4,7.21-6.48,10.7-9.55,5.23-4.6,10.76-8.86,15.9-13.57,10.41-9.5,20.74-19.1,30.58-29.19,1.64-1.68,2.53-4.2,5.15-4.85a177.45,177.45,0,0,1-15.18,28.84c-1.76.25-3,1.48-4.13,2.59q-13.18,12.52-27.33,24c-3.06,2.48-5.91,5.29-9.47,7.15-1.89,1-2.4,3.4-4.1,4.68C706.61,692.2,705.91,693.73,704.22,692.85Z" transform="translate(-181 -200.55)"/><path class="cls-22" d="M479.92,201.14c5.06.24,5.06.24,5.85,7.76s.79,7.34,8.12,7.49c3.39.06,6.84-.74,10.16.57-2.31,1.73-5,.76-7.48,1a27.18,27.18,0,0,1-3.72-.06A284.72,284.72,0,0,0,453,220.81a5.9,5.9,0,0,1-3.38-.25c-1.74-1.55-1.54-3.71-1.83-5.74-.49-3.44-.26-7.12-3-9.87,7-1.71,14.12-2.15,21.2-3A96.25,96.25,0,0,1,479.92,201.14Z" transform="translate(-181 -200.55)"/><path class="cls-23" d="M387.6,237.75c-2.81-1.83-.66-4.32-.43-6.22.43-3.62.27-7.22.41-10.82A193.86,193.86,0,0,1,420.93,210c1.5-.67,1.88.47,2.06,1.46.81,4.57,2,9.12,1.08,13.83-.86,1.87-2.7,2.12-4.38,2.58-5.21,1.41-10.39,2.9-15.47,4.74-4.46,1.65-9,3-13.4,4.92C389.81,238,388.72,238.6,387.6,237.75Z" transform="translate(-181 -200.55)"/><path class="cls-24" d="M426,774.7c-1.64,2.33-4.28,1.47-6.41,1.78-8.58,1.24-17.21,2.15-25.83,3.16-1,.11-1.87.24-2.35,1.23a228.89,228.89,0,0,1-33.51-14.78c.24-2.22,2.09-1.77,3.34-1.76,8.91.1,17.75-1,26.63-1.32.74,0,1.44-.28,2.16-.35a12.5,12.5,0,0,1,5.16,1.27,193.59,193.59,0,0,0,20.82,7c2.4.71,4.79,1.42,7.22,2C424.3,773.25,425.52,773.4,426,774.7Z" transform="translate(-181 -200.55)"/><path class="cls-25" d="M390.75,763.34c-3.52,1-7.2,1-10.77,1.16-6.62.3-13.24,1.17-19.9.74a2.06,2.06,0,0,0-2.19.85,244.35,244.35,0,0,1-28.22-16.54c.72-1.63,2.19-1.3,3.5-1.3,6.34,0,12.68,0,19,0a16.55,16.55,0,0,0,5.2-.66c1.71-1,2.72.67,4.08,1a8,8,0,0,1,1.23.55c3.84,2.36,7.95,4.2,12,6.16,4.47,1.94,8.9,4,13.4,5.87C389.12,761.65,390.63,761.69,390.75,763.34Z" transform="translate(-181 -200.55)"/><path class="cls-26" d="M291.24,281.05c1.88,3.93,5.84,5.64,8.89,8.32,1,.88,2.43,1.21,3.11,2.49a3,3,0,0,1-1.11,1.84c-6.63,6.55-13.15,13.21-19.3,20.22-.41.47-.89.93-1.62.61-2.32-3.35-5.93-5.32-8.78-8.11-1-1-2.42-1.64-2.57-3.3A189.67,189.67,0,0,1,291.24,281.05Z" transform="translate(-181 -200.55)"/><path class="cls-26" d="M423.47,225.78c.35-4.82-.63-9.54-1.25-14.28-.11-.86-.42-1.37-1.29-1.46A152.19,152.19,0,0,1,444.72,205a2.43,2.43,0,0,1,2.77,2.25c1,4.27,1.14,8.63,1.79,12.93-.17,1.63-1.55,1.25-2.53,1.51-1.46.41-3,.55-4.43,1-4.79,1-9.56,2-14.33,3.06C426.52,226,425,226.74,423.47,225.78Z" transform="translate(-181 -200.55)"/><path class="cls-5" d="M704.22,692.85a2.82,2.82,0,0,0,2.12-1.19c9.27-10,21-17.17,30.87-26.48,3.5-3.3,6.95-6.66,10.56-9.83,1.33-1.17,2.4-3.39,4.88-2.27-1.16,1.67-1.52,3.8-3.08,5.22-1.09-.77-1.76.12-2.36.72-6.05,6.06-12.6,11.56-19.1,17.11C720,683,711.84,689.78,703.23,696c-.61.45-1.21,1.25-2.16.61C701.37,694.74,702.88,693.86,704.22,692.85Z" transform="translate(-181 -200.55)"/><path class="cls-27" d="M765.9,313.85c.38,11.46-3.86,20.85-12.48,28.39-2.08,1.81-3.23,1.34-4.28-.85-.28-.56-.58-1.11-.86-1.67a35.29,35.29,0,0,0,8.44-9.21,30.69,30.69,0,0,0,3.94-15c0-1-.47-2.15.82-2.77A8.14,8.14,0,0,1,765.9,313.85Z" transform="translate(-181 -200.55)"/><path class="cls-28" d="M746.39,336.57l-3.15-4.41c.23-1.34,1.27-2.12,2.15-3a16.15,16.15,0,0,0,5.23-12.6c0-1.33-.24-2.75.8-3.87,2.58-.55,5.17-1,7.78-.16a6.77,6.77,0,0,0-1.06,3.8c-.33,7.35-2.87,13.79-8.34,18.88C748.88,336.07,748.06,337.49,746.39,336.57Z" transform="translate(-181 -200.55)"/><path class="cls-22" d="M751.42,312.7c.83,8-1.36,14.69-8.18,19.46a28.65,28.65,0,0,1-3.78-5.66c.3-1.53,1.62-2.38,2.45-3.54,1.84-2.56,1.92-5.61,2.56-8.5A16.22,16.22,0,0,1,751.42,312.7Z" transform="translate(-181 -200.55)"/><path class="cls-29" d="M746.39,336.57c4.8-2.38,7.45-6.72,9.22-11.37,1.25-3.29,2.32-6.9,1.52-10.65-.34-1.59.77-2,2.07-2l2.28.17c.06,6.25-.52,12.4-3.93,17.85-2.35,3.74-4.63,7.68-9.27,9.16Z" transform="translate(-181 -200.55)"/><path class="cls-30" d="M761.49,338.33a3.67,3.67,0,0,1,.64-2.37c4.53-6.51,6.14-13.79,5.73-21.61,2.29.92,5,1.12,6.23,3.8,0,.22,0,.43-.07.65a16.37,16.37,0,0,1-1.81,8.18,65.41,65.41,0,0,1-3.92,6c-1.49,1.56-3,3.05-4.55,4.59C763.06,338,762.55,339,761.49,338.33Z" transform="translate(-181 -200.55)"/><path class="cls-31" d="M744.47,314.46c1.09,5.16-1.15,8.94-5,12-1.78-2.38-4.1-4.39-5-7.35C737.69,317.39,740.79,315.3,744.47,314.46Z" transform="translate(-181 -200.55)"/><path class="cls-5" d="M526.1,797.85c.95-.88,2.12-.39,3.2-.49A4.14,4.14,0,0,1,526.1,797.85Z" transform="translate(-181 -200.55)"/><path class="cls-16" d="M745.07,632.9c.15,1.51-1.06,2.2-1.92,3.05-11,11-22.67,21.18-34.67,31-7.56,6.21-15.22,12.28-23.1,18.07-1.13.83-2.44,1.7-2.57,3.38s-1.62,1.38-2.62,1.6c-4.18,1-8.43,1.56-12.65,2.29a7.34,7.34,0,0,1-1,.11,9.86,9.86,0,0,0-3.58.45c-4.9.34-9.7,1.72-14.67,1.19-1.4-.66-1.16-1.56-.28-2.46a17.38,17.38,0,0,1,3-2.2,537.3,537.3,0,0,0,48.5-35.84c1.09-.9,2.25-1.64,1.42-3.3,2.27-1.78,5.16-1.77,7.72-2.71,1.15-.43,2.34-.76,3.51-1.17a58.09,58.09,0,0,0,7-2.49,89,89,0,0,0,9.3-3.75c2.18-1,4.28-2.09,6.39-3.17,2.91-1,5.28-3.24,8.36-3.9Z" transform="translate(-181 -200.55)"/><path class="cls-32" d="M771.48,327c.85-2.73,1.7-5.45,2.54-8.18a180.62,180.62,0,0,1,10.31,32.69,327.19,327.19,0,0,1,6.2,34.67c1.67,14.91,3.5,29.77,3.84,44.81.15,6.57,0,13.1.06,19.65,0,7.71-.48,15.38-.94,23-.45,7.33-1.22,14.67-2.31,22-1.2,8.12-2,16.3-3.65,24.35-2,9.37-3.91,18.74-6,28.09a133,133,0,0,1-6.79,22,.67.67,0,0,1-.92-.1,7.15,7.15,0,0,1-1.46-4.91c2.89-9.11,4.53-18.52,6.94-27.74,3.85-14.75,5.85-29.82,8-44.86a293.52,293.52,0,0,0,2.81-37.58c.17-12.57.51-25.16-.6-37.72a83.42,83.42,0,0,0-1-9.33c.3-2.48-2.29-3.55-2.77-5.66.12-6.42-1.43-12.66-2.14-19-1.42-12.48-4.37-24.7-6.81-37-.82-4.16-2.66-8.13-3.9-12.23C772.16,331.7,771.33,329.44,771.48,327Z" transform="translate(-181 -200.55)"/><path class="cls-33" d="M743.25,633.09a32.53,32.53,0,0,1-8.15,4.53c-1.29-1.88-.13-3.22,1.15-4.31,5.44-4.67,8.71-11,12.38-16.88a136.64,136.64,0,0,0,14-31.47,3.71,3.71,0,0,1,1.11-1.86c2.45-.81,4.44-2.78,7.17-2.94,0,5-2.68,9.16-4.3,13.64-3.33,9.2-8.38,17.52-13.58,25.7-2.33,3.67-5.38,6.9-8.15,10.29A5.94,5.94,0,0,0,743.25,633.09Z" transform="translate(-181 -200.55)"/><path class="cls-34" d="M770.93,580.16a15.93,15.93,0,0,1-6.93,3.28,6.85,6.85,0,0,1-6.1.07c-2.32-1.29-4.55-2.68-5.9-5.1-3.72-6.76-2.19-13.11,4.23-17.56a13.34,13.34,0,0,1,5.26-1.62,11.64,11.64,0,0,1,4.86.63,16,16,0,0,1,4.13,2.18,5.81,5.81,0,0,1,2.32,3.71l1.41,4.35a6.11,6.11,0,0,1,0,3.12A16.11,16.11,0,0,1,770.93,580.16Z" transform="translate(-181 -200.55)"/><path class="cls-33" d="M774.22,573.22c0-1,0-2.08,0-3.12h.51C774.59,571.15,775.07,572.3,774.22,573.22Z" transform="translate(-181 -200.55)"/><path class="cls-35" d="M541.81,779.1l-12,1.86c-.1-2.45,2-2.94,3.52-3.87,9.36-5.7,19.68-8.81,30.36-10.67,7.55-1.32,14.09-5.31,21.25-7.55,11.66-3.62,22.16-10,33.65-13.91a11.07,11.07,0,0,0,2.56-1.19c11.61-7.88,24-14.68,34.86-23.61a24.44,24.44,0,0,0,3.77-3.77,3.71,3.71,0,0,1,1.29-.81c6.27-1.22,12.56-2.38,18.75-4,1.18-.32,2.44-.85,3.59.15a127.13,127.13,0,0,1-13.35,11,309.5,309.5,0,0,1-49.52,30.48c-24.09,11.78-49.23,20.6-75.71,25.3C543.85,778.66,542.83,778.89,541.81,779.1Z" transform="translate(-181 -200.55)"/><path class="cls-36" d="M683.45,711.73c-6.22,1.33-12.44,2.61-18.63,4a21.24,21.24,0,0,1-4,.37c-1.36-1.07-1-2.46-.49-3.71,1.58-3.87,3.18-7.69,3.06-12a6.3,6.3,0,0,1,1.57-4,11.46,11.46,0,0,0,2.16-4.78c4.69-.84,9.37-1.7,14.06-2.51.62-.11,1.25-.05,1.67-.64h2.52c1.41,1.52,1.17,3.35.67,5a27.14,27.14,0,0,0-1.09,8.67,5.33,5.33,0,0,1-.57,3.07c-1.4,2.15-1.1,4.3-.27,6.51h-.62Z" transform="translate(-181 -200.55)"/><path class="cls-16" d="M684.07,711.73c-2.39-1.2-2.39-3.13-1.35-5.15.63-1.2,1.4-2.28,1.36-3.73-.08-3.32-.16-6.63,1.2-9.8.64-1.48,0-3.07.05-4.61,4.36-1.25,8.69-2.57,13.08-3.72,1.65-.43,2.87.12,2.67,2.24-.36,3.69-.47,7.42-1.9,10.92a6.49,6.49,0,0,0-2.52,2.52,8.41,8.41,0,0,1-2.52,2.52Z" transform="translate(-181 -200.55)"/><path class="cls-5" d="M694.14,702.92a6.63,6.63,0,0,1,2.52-2.52A2.63,2.63,0,0,1,694.14,702.92Z" transform="translate(-181 -200.55)"/><path class="cls-37" d="M278.08,661.32c-.57-1.89-2.41-1.57-3.65-1.73-8.15-1.06-16.16-2.89-24.2-4.56-1.1-.23-2.62-.1-3-1.74-.1-2,1.92-2.14,2.9-3.19,2.9-1.76,5.8-3.51,8.87-5,11.08-4.87,22.8-6.89,34.75-8,12.73-1.21,25.5-1.72,38.25-1.7,13.48,0,27,.71,40.45,1.59,18.7,1.22,37.37,2.82,56,4.61,13.45,1.31,26.9,2.57,40.31,4.11a2,2,0,0,1,1.76,1.13c2,5.37,6.14,9,10,12.92a3.3,3.3,0,0,1,1.12,2.6c-.64,1.72-2.26,2-3.73,2.5-4.51,1.63-9.35,2.25-13.69,4.44-3.91.07-7.53-1.53-11.36-2a141,141,0,0,0-16.37-3.85c-9.51-2.33-19-4.72-28.61-6.59a40,40,0,0,0-5.56-.89c-8.6-1.89-17.26-3.47-26-4.58s-17.24-2.31-26-2.34c-4.37,0-8.73-1.26-13.13-.22a176.19,176.19,0,0,0-27.59,2.66c-2.77.52-5.48,1.25-8.22,1.85a41.44,41.44,0,0,0-6.19,1.62c-2.69.7-5.19,2-7.84,2.78-3.13.93-5.68,3.22-8.95,3.81Z" transform="translate(-181 -200.55)"/><path class="cls-38" d="M337.21,648.14c2.91-1.23,6.05-.89,8.92-.43,5.09.82,10.19.38,15.29.94,10.25,1.13,20.45,2.45,30.6,4.25,3.58.64,7.12,1.45,10.68,2.19,1.19,2-.43,2.83-1.74,3.63a4.27,4.27,0,0,0-2.44,3.39c-.37,3.91,0,4.42,3.84,5.33A127.45,127.45,0,0,1,415.08,671c1.51,1.1,1.1,2.09-.26,2.89a12.58,12.58,0,0,1-4.2,1.29,26.23,26.23,0,0,0-11.32,5.22,75,75,0,0,1-14.54,8.72c-2.68,1.24-4.3,3.64-6.74,5.08-5,3-10.46,4.94-15.33,8-7.72,4.84-16.53,6.46-24.95,9.24a4.22,4.22,0,0,1-3.65-.26c-5.53-3.27-11.8-5-17.34-8.18-9.52-5.48-19.45-10.24-28.69-16.22a11.64,11.64,0,0,1-4.74-5.33c-1.87-4.72-5-8.43-8.57-11.9-1.05-1-2.68-1.83-2.36-3.77,1.15-2.44,3.58-3.23,5.69-4.44v.1c2.31.75,3.57,2.84,5.34,4.28,7.93,6.48,15.84,13,23.26,20.08,4.14,4,8.39,8.21,14.23,10,3.31,1,5.66,3.88,9.06,4.93a8.07,8.07,0,0,0,8.83-2.33,31.77,31.77,0,0,0,2.7-2.6c6.19-8.16,15.51-10.89,24.38-14.59,8.58-3.59,17.41-6.57,25.79-10.63,1-.5,2.36-.9,2.16-2.32s-1.59-1.18-2.55-1.37A63.42,63.42,0,0,0,382,665.3c-11.85-2.2-23.83-3.5-35.79-4.86a8.53,8.53,0,0,1-3.32-.88c-1.92-1.07-2.82-2.49-1.58-4.63a6,6,0,0,0,.3-.56c.63-1.41,2-2.84,1.47-4.33-.69-1.87-2.79-.66-4.21-1.1A2.89,2.89,0,0,1,337.21,648.14Z" transform="translate(-181 -200.55)"/><path class="cls-39" d="M253.46,340.74a9.58,9.58,0,0,1,4.49-1.63c2.16,1.72.29,3.18-.58,4.29a90.31,90.31,0,0,0-6.65,9.53,264,264,0,0,0-16.65,32.4c-8.7,20.53-13.23,42.1-17,63.94-2.15,12.32-3,24.75-4.58,37.11-.72,5.7-.22,11.5-.81,17.26-.87,8.44-.3,16.94-.67,25.41-.36,8.2.94,16.3,1.36,24.46a301.24,301.24,0,0,0,4.31,37.75c1.14,6.39,1.87,12.88,4.23,19,1.14,1.52-.95,3.44.61,4.91,2,2.91,2.82,6.3,3.86,9.57,3.63,11.32,9,21.87,14.58,32.29a4.2,4.2,0,0,1,.58,1.44,1.76,1.76,0,0,1-.85,1.63c-1,1.11-2,2.24-3,3.35-1.53-.35-2-1.7-2.77-2.83-4.45-6.79-7.57-14.25-10.64-21.71a224.8,224.8,0,0,1-13.57-47.7,431,431,0,0,1-5-47.47q-.72-12.75-.44-25.45A527.84,527.84,0,0,1,208,464.72a470.45,470.45,0,0,1,8.47-47,192.56,192.56,0,0,1,12.62-36.18,258.77,258.77,0,0,1,13.27-25.69c2.53-4.25,5.49-8.18,8.22-12.28C251.37,342.42,252.57,341.74,253.46,340.74Z" transform="translate(-181 -200.55)"/><path class="cls-40" d="M272.39,665.76c2.44,3.41,6.06,5.75,8.4,9.27a14.33,14.33,0,0,1,2,3.51c1.55,5,5.51,7.47,9.74,10,9.13,5.44,18.52,10.42,27.9,15.4,4.69,2.48,9.91,3.88,14.39,6.84.87.57,1.78.17,2.7-.1,5.5-1.66,11.06-3.09,16.48-4.94,2.52-.86,4.76-2.51,7.14-3.77,5.26-2.81,11.17-4.62,15.8-8.34,6.94-5.57,15.45-8.55,22.29-14.19,3.91-3.23,8.57-4.59,13.41-5.65,1-.21,3.46.29,2.61-2.34,3.49-.68,6.53.62,9.49,2.22.55.46.9,1.11,1.63,1.43.91.38,2.24.62,2.08,2-.14,1.14-1.29,1.6-2.24,2-6.12,2.74-12.31,5.34-18.19,8.56-8.09,4.44-16.45,8.33-24.6,12.63a3.51,3.51,0,0,0-2.19,3.2c0,2.8-1.76,4-4.08,4.92a118.63,118.63,0,0,1-17.49,5.1,111.66,111.66,0,0,0-17.65,5.57,7,7,0,0,1-5.73.1,317.94,317.94,0,0,1-36.06-18.45,32.32,32.32,0,0,0-4.21-2.09,10,10,0,0,1-5.15-3.9c-1.2-1.94-3.33-2.79-5.31-3.76l-5-4.42c-2.81-4.51-7-7.91-10-12.2a2.29,2.29,0,0,0-.21-.23C266.85,670.12,267.34,668.12,272.39,665.76Z" transform="translate(-181 -200.55)"/><path class="cls-4" d="M238.89,348.45a20.51,20.51,0,0,1,6.4-3.85c1,1.53-.17,2.58-.88,3.65a244.57,244.57,0,0,0-30.08,63.39c-6.5,20.86-9,42.36-11.71,63.9-2,16.07-1.35,32.22-2.71,48.29,1.87,9,.47,18.18,1.53,27.26,1,8.73,1.38,17.53,2.56,26.25,2,14.88,4.73,29.66,9.27,44,4.81,15.18,10.54,30.07,19.08,43.66.56.89,1.14,1.77,1.61,2.71-.65,1.45-.78,3.12-1.85,4.4-6.6-8.72-11.1-18.56-15.13-28.64-2.19-5.51-4.24-11.08-6.33-16.63-2.73-7.24-4.15-14.83-6.11-22.28-2.64-10-3.74-20.24-5.13-30.43-1.36-10-2.17-20-2.66-30-.56-11.34-1-22.65-1-34,0-11.82,1.47-23.46,2.2-35.19.86-13.79,3.52-27.24,5.83-40.76,2.23-13.06,6.31-25.61,11.05-38,3.78-9.91,8.61-19.26,13.26-28.73,2.82-5.75,6.66-10.87,10.05-16.27C238.61,350.3,239.91,349.69,238.89,348.45Z" transform="translate(-181 -200.55)"/><path class="cls-41" d="M253.46,340.74c-3.29,4.94-6.71,9.81-9.84,14.86a218.69,218.69,0,0,0-19.37,40.26c-2.58,7.06-5.26,14.17-6.84,21.48-2,9.46-4.39,18.88-5.92,28.43-1.91,12-3.33,24.13-4.58,36.23-.84,8.18-.76,16.45-1.37,24.64a260.21,260.21,0,0,0-.35,28.88c.38,10.59,1,21.21,2.28,31.77,1.17,9.49,1.95,19.05,3.9,28.43a241.33,241.33,0,0,0,12.56,42.58c3.56,8.71,7.41,17.3,12.71,25.15a7.07,7.07,0,0,1-1.94,3.09c-1.3-.29-1.74-1.41-2.34-2.37a172.53,172.53,0,0,1-14.23-30.29,295.28,295.28,0,0,1-10.85-38.59c-.69-3.07-.67-6.23-1.18-9.33a8.74,8.74,0,0,0-.46-3.83,11.29,11.29,0,0,1-.82-4.41,6.66,6.66,0,0,0-.56-3.41c-1.1-2.73-.65-5.59-.75-8.4a12.69,12.69,0,0,0-.32-4.59,16,16,0,0,1-.27-3.08,10.67,10.67,0,0,0-.38-4,19.18,19.18,0,0,1-.27-3.63,11,11,0,0,0-.44-4.19,62.59,62.59,0,0,1-.24-8.44c0-4.69.38-9.39-.26-14.07a53.13,53.13,0,0,1,0-12.54,20.58,20.58,0,0,0,.29-3.13c-.25-12.71,1.07-25.29,2.43-37.92A401.46,401.46,0,0,1,212.18,422a222.55,222.55,0,0,1,21.19-55c4.38-8.13,9.2-15.95,14.33-23.59A17.6,17.6,0,0,1,253.46,340.74Z" transform="translate(-181 -200.55)"/><path class="cls-42" d="M206.93,585.84c.65,9.81,3.39,19.21,5.87,28.65a209.22,209.22,0,0,0,14.67,39.37c2.15,4.35,4.8,8.46,7.23,12.68-.25.37-.49.75-.74,1.13-3.19-1.69-4.15-5.09-5.67-7.9-4.28-7.91-7.63-16.25-11-24.59-4.72-11.58-7.67-23.6-10.39-35.69a248.71,248.71,0,0,1-4.36-27.73c-1.48-13.7-2.26-27.42-2.75-41.22-.27-7.47-.22-14.87.21-22.31.21-3.64,0-7.31,0-11,.15-9.18,1.62-18.25,2.46-27.37.88-9.66,2.29-19.22,3.92-28.76A224.13,224.13,0,0,1,224,383.57c5.88-12.62,12-25.12,20.14-36.47.54-.75,1.3-1.43,1.14-2.5a4.55,4.55,0,0,1,2.41-1.19c1.2.76.35,1.4-.14,2C240,355,234.61,365.91,229.3,376.71a233.7,233.7,0,0,0-12.41,31.4c-4.5,13.94-6.35,28.41-9.62,42.58-1,4.43-1.08,9.08-1.6,13.62-.68,6-1.19,12-2.14,17.95a80,80,0,0,0-.81,11.8c-.09,9.83-1,19.63-.82,29.46.66,3.59.11,7.21.32,10.82.07,1.22-.33,2.49.31,3.66v8.81c.79,1.16-.19,2.62.63,3.78v3.78c.79,1.16-.19,2.61.63,3.77v3.15c.82,1.38-.22,3,.63,4.41.11,2.94-.38,5.93.63,8.81.74.94-.15,2.21.63,3.14a11.88,11.88,0,0,0,.63,4.42C207.1,583.23,206.11,584.68,206.93,585.84Z" transform="translate(-181 -200.55)"/><path class="cls-43" d="M250.37,650.67l-3.13,2.62-3.18,2.21a4.58,4.58,0,0,1-2.06-2.26C236.71,644,233,634,229.26,624c-1.37-3.6-1-4.06,1.8-5.45,2-.44,3.91-1.31,6-.35,2.13,4.72,4.24,9.44,6,14.33,1.82,5.13,4.51,9.83,7,14.65C250.5,648.32,251.32,649.39,250.37,650.67Z" transform="translate(-181 -200.55)"/><path class="cls-44" d="M230.86,619.25c-1.49.58-1.75,1.55-1.29,3.09,1.37,4.6,3.55,8.9,5.13,13.42,2.43,6.92,6.05,13.25,9.36,19.74l-3.18,3.33a.38.38,0,0,1-.59-.08,187.9,187.9,0,0,1-9.39-17.61c-3.58-7.68-6-15.77-8.9-23.71a3.5,3.5,0,0,0-1.32-2.06c1.17-2.16,3-1.38,4.72-1.06,1.76,1.33.19,2.85.22,4.39C227.28,619.61,229.3,617.64,230.86,619.25Z" transform="translate(-181 -200.55)"/><path class="cls-37" d="M240.29,658.75a1.32,1.32,0,0,0,.59.08c1.34.14,1.67,1.23,2.15,2.28-1.43.47-2.62.45-3.37-1C239.68,659.56,239.73,659,240.29,658.75Z" transform="translate(-181 -200.55)"/><path class="cls-45" d="M281.21,314.53c6.4-7,12.81-14,19.69-20.6.75-.72,1.56-1.39,2.34-2.07q11.58-10.49,24-19.9c2.88-2.2,6.1-3.95,8.71-6.51,5.34-3.2,10.69-6.39,16-9.62a234.05,234.05,0,0,1,34.07-17.05,8.92,8.92,0,0,0,1.53-1c5.53-1.67,10.72-4.31,16.36-5.67a13.47,13.47,0,0,1,5.93,5.42,6.82,6.82,0,0,0,5.83,3.71,6.56,6.56,0,0,1,5.1,2.68,6.14,6.14,0,0,0,4.58,2.41c4.79.55,9.51,1.58,14.3,2.13,7.58.88,13.33,4.18,16.46,11.72,2.37,5.73,6.29,10.63,10.6,15.11a41.63,41.63,0,0,1,6.56,8.78,48.22,48.22,0,0,0,9.09,11.15c3.83,3.73,7.55,7.57,11.36,11.33a11.36,11.36,0,0,1,3.6,8.71c-.12,5.56,0,11.11-.06,16.67-.09,6.19,1,12.31.69,18.52-.12,2.72-1.06,4.17-3.9,4.06-6.08-.27-12.06-1.43-18.06-2.33-23-3.43-45.84-7.88-68.79-11.63-19-3.11-38.13-5.66-57.34-7.27a366,366,0,0,0-44.55-1.31,178,178,0,0,0-18.13,1.42c-1.72.36-3.5.33-5.21.75a48.3,48.3,0,0,0-6.88,1.09c-1.09.29-2.23.29-3.3.65-.92.23-1.87.37-2.78.69-1.58.24-3.12,1.19-4.77.27,3.36-6.15,8.16-11.24,12.38-16.75C278.11,318.16,279.69,316.37,281.21,314.53Z" transform="translate(-181 -200.55)"/><path class="cls-46" d="M286.7,332.71a129.88,129.88,0,0,1,21.83-1.77c27.59-.54,54.93,2.25,82.22,6.12,24.85,3.53,49.45,8.47,74.24,12.35,9.81,1.53,19.58,3.37,29.49,4.2,10.07,0,19.92,2.23,29.91,3a10.07,10.07,0,0,0,3.66.45,13.5,13.5,0,0,1,2.69.28q12.91,1.33,25.84,2.42a12.79,12.79,0,0,0,4.81.41,22.82,22.82,0,0,1,3.3.18c5.74.47,11.47,1,17.23,1.09a17.07,17.07,0,0,1,3.91.24c2.35.7,4.75.38,7.14.34a53.85,53.85,0,0,1,8,.26c4.8.91,9.65,0,14.46.4,3.52-.09,7-.11,10.55,0,2.29-.08,4.59,0,6.87,0a107.63,107.63,0,0,0,12-.1,7.21,7.21,0,0,1,1-.27,43.18,43.18,0,0,1,5.8-.16c.52,0,1,0,1.56,0,1.87,0,3.75.23,5.59-.37a10,10,0,0,1,2.11-.24c3.46.16,6.87-.58,10.31-.69a11.34,11.34,0,0,1,3.71.44,1.81,1.81,0,0,1,1.09,1.06c1.52,6,4.15,11.84,3.69,18.28a13.45,13.45,0,0,1-.87,3.63c-.82,2.33-.32,3,2.19,2.9,1.13,0,2.26-.51,3.35.13.77.89-.17,1.25-.54,1.79-1.35,1.89-1.13,2.52,1.18,2.66,5.41.33,10-1.83,14.06-5.16,7.23-6,10.75-13.88,11.76-23.09.29-2.62-1.38-5.07-.32-7.66,2.35-.88,4.86-1.13,7.28-1.79,4.45-.88,8.83-2.07,13.21-3.28,1.28-.36,2.54-.93,3.92-.39l12.61-4.13a3.7,3.7,0,0,1,1.58,2.26c1.48,5.76,3.67,11.33,4.49,17.27.93,6.72,3,13.26,3.27,20.09,0,1.14.38,2.28-.15,3.39-1.27,1.44-2.87.9-4.4.71-16.39-2-32.51-1.07-47.85,5.48-15.17,6.47-25.42,17.46-29.16,33.9A45.24,45.24,0,0,0,682,465.39,105.92,105.92,0,0,0,694.66,481c7.34,7.61,15.34,14.62,22.12,22.78a30.32,30.32,0,0,1,6.68,12.68c2,8.94-2.76,16.4-11.69,18.43-5.06,1.14-10,.59-15-.4-6.26-1.24-11.76-4.38-17.55-6.81-4-1.68-8.13-3-12.5-2.49-9.41,1-14.63,7.43-18.74,15.11a2.48,2.48,0,0,0,1,3.52,7.64,7.64,0,0,1,2.73,2.57c2.2,3,5.47,4.49,8.58,6.1a92,92,0,0,0,35.41,9.93,85.92,85.92,0,0,0,39.68-5.61c4.21-1.68,7.84-4.38,11.68-6.72,1.06-.42,2-1.19,3.26-1.05,1.73,1.05.93,2.56.68,3.93-2.6,14.14-7.19,27.73-11.41,41.43a155.82,155.82,0,0,1-11.79,29c-3.44,6.31-6.65,12.82-11.76,18.07a23.6,23.6,0,0,0-3.6,5.48c-3.59,1.9-7.7,2.2-11.42,3.72-.82,1.34-2.25,1.35-3.56,1.63-8.58,1.83-17.25,3.13-26,4.22-2.72.07-5.38.89-8.12.74a11,11,0,0,0-4.34.42c-6.2.06-12.38,1.07-18.6.83-17.29.29-34.57.12-51.85-.61-2.4-.1-4.74-.92-7.17-.66a10.77,10.77,0,0,1-3.75-.33c-1.91-1.68.11-2.35,1-3a100,100,0,0,0,13.05-11.8c5.3-4.79,9.23-10.68,13.14-16.58a103.2,103.2,0,0,0,9.43-17.5,138.49,138.49,0,0,0,7.48-20.12c2.26-6.27,3.48-12.81,5-19.28,1.93-7,3.43-14.12,5.06-21.19,1.89-6.89,3.23-13.91,5-20.81,1.46-6.06,3-12.11,4-18.26a15.7,15.7,0,0,1,1-3.28c3.15-12.37,6-24.82,8.91-37.24,4.54-19,9-38.1,13.56-57.13.73-3.06,1.26-6.16,2.15-9.17.69-2.36.55-3.94-2.46-3.83a2.33,2.33,0,0,1-1.43-.57c-1.09-4.33-1.09-4.33-5.82-4.33q-14.16,0-28.32,0c-8.39,0-11.49,2.65-13.35,10.7-3.78,16.35-7.77,32.65-11.67,49-3.14,13.16-6.16,26.35-9.55,39.45-2.45,9.44-6.29,18.25-12.78,25.69-5.64,6.47-12.48,10.53-21.44,9.82-2.38-.19-4.87-.32-6.49-2.56a22.31,22.31,0,0,1-1.3-11.36c.68-5.5,1.93-10.88,3.13-16.28,5.45-22.62,10.71-45.27,16.14-67.89,2-8.46,4-16.93,6.1-25.37,1.27-5.19,1.28-5.19-3.4-6.87-.76-4.31-.76-4.31-5.35-4.31-9.44,0-18.88,0-28.32,0-8.4,0-11.54,2.41-13.5,10.6q-12,49.71-23.84,99.45a35.73,35.73,0,0,1-14.27,21.19,17.7,17.7,0,0,1-12.17,3.4,6.87,6.87,0,0,1-4.85-1.92c-2.21-4.15-1.47-8.59-.91-12.88a133.47,133.47,0,0,1,3.09-15c4.68-19.14,9.07-38.34,13.68-57.5,3-12.54,5.9-25.1,9-37.61,1-4,1-3.95-3-5a2.1,2.1,0,0,1-.79-.49,2.15,2.15,0,0,1-.28-1.52c.47-2.21-.67-2.71-2.6-2.7-9.52,0-19.05-.08-28.57,0-6.17.09-9.41,2.72-11.19,8.61a16.48,16.48,0,0,1-1.3,3.85c-1.64,1.52-2.45-.11-3.22-1a18.73,18.73,0,0,0-3.71-3.73c-10.69-12.77-24.79-13.32-39.45-10.38-14.1,2.83-25.26,11-34.6,21.65C348.72,433.39,339.4,459.18,335,487c-2,12.24-3,24.57-1,36.92,1.77,10.66,6,20.05,14.83,26.88a5.37,5.37,0,0,1,1,1.18c5.39,6.34,12.62,9.15,20.56,10.25,14.09,1.92,27.25-.62,39-8.92,5.53-3.25,9.46-8.1,13.28-13.07a8,8,0,0,1,2-2.39c.93,0,1.24.7,1.5,1.36a30.86,30.86,0,0,0,11.36,13.93,3.24,3.24,0,0,1,.79,1c2.62,3.73,6.52,5.44,10.66,6.73,12.93,4,25.21,2.12,36.89-4.35,3.22-1.78,5.69-4.59,8.63-6.77a57.94,57.94,0,0,0,8-8.61c.63-.8,1.13-1.75,2.22-2.06,1,.09,1.4.86,1.75,1.61a27.78,27.78,0,0,0,9.6,11.67,3.52,3.52,0,0,1,1,1.19c3.25,4,7.74,6.09,12.49,7.39,16.74,4.61,31.88,1,45.61-9.35,1.79-1.34,3.14-3.44,5.69-3.59.78,1.11.2,2.23,0,3.33-.77,4-2,7.92-2.72,11.94-.56,3.38-2.36,5-5.51,6-12.51,3.88-24.79,8.43-36.87,13.49-15.67,6.58-31,13.85-44.78,23.95-6.62,4.85-12.6,10.38-17.13,17.33-3.78,5.8-4.83,12.17-4.06,18.94.13,1.12.61,2.26-.19,3.33-6.5.34-12.87-1-19.3-1.55-9.58-.77-19.13-1.93-28.7-2.82q-17-1.59-34-3c-6.25-.52-12.51-1-18.78-1.3-8.47-.4-17-.26-25.42-.94-11-.88-22-.1-32.94.32-16,.62-32,1.69-47.19,7.4l-4.69,1.79c-3.33-4.18-5.38-9.08-7.62-13.84-1.68-3.57-2.54-7.49-3.9-11.2-.48-1.28-.82-2.62.49-3.71a7.54,7.54,0,0,1,3.61-1,494.91,494.91,0,0,1,51.52-1.23c15.27.56,30.51,2,45.73,3.47,7.92.76,15.87,1.21,23.82,1.64a89.9,89.9,0,0,0,19.69-1c10.64-1.74,19.64-6.48,26.39-15.08,5.51-7.28,6.11-15.68,5.54-24.34-.09-1.28-.62-2-2-1.53-.7.21-1.45.39-1.94-.43-1.45-4.34-1.44-4.32-5.74-2.1-8.2,4.23-17.08,5.67-26.14,5.92-14.25.41-28.45-.73-42.66-1.72-17.13-1.19-34.28-2.09-51.46-1a3.66,3.66,0,0,1-1.54-.23c-.86-.44-.68-1.21-.52-1.9,1.12-4.76,1.69-9.64,3.24-14.3a180.16,180.16,0,0,0,4.39-19.5,19.33,19.33,0,0,1,1.25-4.52c2.63-9.73,4.72-19.59,7-29.41,1.59-6.28,3.1-12.58,4.43-18.93,6.64-27.29,12.8-54.69,19.33-82,2.9-12.13,5.56-24.31,8.57-36.42a23,23,0,0,0,.72-7.78c-.37-3.74-1.86-6.85-5.31-8.74-3.84-6-9.94-6.91-16.27-6.95-13.2-.08-26.41-.11-39.6,0-1.84-.19-2.37-.81-.78-2.23,3.39-3,5.09-7.32,8-10.71A2.18,2.18,0,0,0,286.7,332.71Z" transform="translate(-181 -200.55)"/><path class="cls-47" d="M756.43,389.54c-.31-6-1.49-12-2.47-17.9a206.93,206.93,0,0,0-6.3-25.42,55.56,55.56,0,0,0,8.81-4.37c1.46.76,1.88,2.22,2.29,3.59a197.51,197.51,0,0,1,7.43,35.77c.27,2.49.6,5,.91,7.45a4.49,4.49,0,0,1-.36,3.33A12.28,12.28,0,0,1,756.43,389.54Z" transform="translate(-181 -200.55)"/><path class="cls-48" d="M735.05,350.35a111.8,111.8,0,0,1-17,4.38,2,2,0,0,1-.69-1.37c.41-9.13-4.17-16.87-7-25.12-1.63-4.84-3.51-9.59-5.45-14.32-.57-1.4-1.37-2.9-.13-4.41.42.41.85.83,1.26,1.25a288.75,288.75,0,0,1,27.16,35.72C734,347.67,735.27,348.69,735.05,350.35Z" transform="translate(-181 -200.55)"/><path class="cls-49" d="M766.51,392a236.57,236.57,0,0,0-3.21-24.32c-1.74-8.76-3.55-17.51-6.83-25.87l5-3.52,1.9-1.11a69.6,69.6,0,0,1,4.67,14.56c2.48,10.91,4.77,21.88,5.49,33.1.21,3.2,1.32,6.34.71,9.61A6.88,6.88,0,0,1,766.51,392Z" transform="translate(-181 -200.55)"/><path class="cls-50" d="M660.15,716.77c-2.35,4.33-6.69,6.54-10.45,9.18q-13.58,9.54-27.73,18.26c-3.5,2.15-7.94,2.75-11.56,4.75-11.86,6.58-24.95,10.15-37.3,15.53-7.84,3.42-16.66,3.67-24.67,6.5-6.63,2.34-13.33,4.91-18.59,10-6.91.74-13.8,1.71-20.77,1.89-.47-1.4.56-2.09,1.35-2.91,2.88-3.05,6.46-5.33,9-8.7a5.82,5.82,0,0,1,2-1.44C529.8,765.52,538,761,546.37,757c4.55-2.17,9.68-2.66,14.58-3.74A112.13,112.13,0,0,0,580,747c9.58-4,19.29-7.74,28.25-12.93,8.2-4.75,17-8.72,24-15.36,2.78-.75,5.71,0,8.5-.77,5.46-.66,11-.86,16.41-1.64C658.2,716.18,659.26,716,660.15,716.77Z" transform="translate(-181 -200.55)"/><path class="cls-51" d="M631.82,719.29c-.84,2.44-3.06,3.75-5,4.89-11.8,7.09-23.68,14.05-36.35,19.51a211.58,211.58,0,0,1-40.68,13.07c-6.8,1.42-12.61,5.89-18.87,9a18.27,18.27,0,0,1-1.89,1.11c-8.06,2.7-13,9.46-19.19,14.62a4.54,4.54,0,0,0-.79,1.36c-6.68.21-13.36.44-20,.61-1.1,0-2.33.41-3.28-.59,8.27-1.32,12.74-8.46,19.19-12.56,5.67-3.6,10-8.91,15.16-13.17a14.43,14.43,0,0,1,3-2.28c8.53-4,16.45-9.24,25.18-12.77a142.19,142.19,0,0,1,20.13-6,26.87,26.87,0,0,0,8.39-3.44c6-3.91,12.52-6.77,18.88-10a42.65,42.65,0,0,0,7.83-4.58c5.51-.63,11,.69,16.47.37a7.57,7.57,0,0,1,1.06.18,15.88,15.88,0,0,0,7.72,0C629.86,718.51,631,718.39,631.82,719.29Z" transform="translate(-181 -200.55)"/><path class="cls-52" d="M602.87,718.65c-.08,1.87-1.74,2.39-2.94,2.93-8.89,4-17.42,8.64-25.91,13.43-3,1.7-6.67,2.35-10.12,3.11-4.91,1.08-9.65,2.75-14.38,4.29-4.92,1.59-9.53,4.3-14,7a70.44,70.44,0,0,1-9.44,4.81c-3.72,1.51-6.54,4.21-9.22,6.89-6.23,6.26-13.34,11.39-20.29,16.73-.58.43-1.35.79-1.68,1.38-2.06,3.72-5.4,4.13-9.1,3.69l-5.66,0c-1-1.21-.26-2.19.51-3.07,6.09-6.88,11.68-14.2,19.33-19.61,7.09-5,13.79-10.6,20.62-16a31.9,31.9,0,0,1,5.6-3.47c8.24-4.11,16.35-8.49,24.43-12.94,6.21-3.43,12.71-6.52,19.78-7.91,3.68-.72,7-2,9.6-4.83,5.34.24,10.53,1.56,15.82,2.09a20.55,20.55,0,0,1,3.49.29,22.8,22.8,0,0,1,3.23.91Z" transform="translate(-181 -200.55)"/><path class="cls-53" d="M579.58,715.5c-.47,2.27-2.18,3.29-4.17,3.78-7.72,1.93-15.3,4.22-22.32,8.11-4.1,2.27-8.36,4.29-12.41,6.67-5,2.91-10.25,5.24-15.34,7.94-4.74,2.52-8.56,6.3-12.81,9.48-5.26,3.93-10.18,8.34-15.54,12.11-5.57,3.94-9.21,9.59-13.73,14.44-1.27,1.35-3.4,2.38-3.14,4.81l-.62,0c-5.65-.91-11.45-.35-17-1.9,2.09-2.82,5-4.69,7.59-7,7.74-7.07,15-14.56,22.11-22.3,4.52-4.94,10.21-9,16-12.62a139.3,139.3,0,0,0,12.62-8.84,29.4,29.4,0,0,1,6.53-3.7,270.79,270.79,0,0,0,26.32-14c.91-.52,1.48-1.5,2.5-1.87,3.49-.27,6.78.84,10.07,1.67a76.93,76.93,0,0,0,10.07,1.88C577.43,714.44,578.69,714.52,579.58,715.5Z" transform="translate(-181 -200.55)"/><path class="cls-54" d="M675.23,361.54l-3.72.08c-.83-8.89-2.91-17.55-5-26.17-2.34-9.61-7-18.36-11.06-27.3-4.74-10.38-11-20-15.22-30.63a21,21,0,0,0-5.51-7.58c-4.71-4.27-8.26-9.44-12.1-14.4-2.06-2.64-4-5.39-6.17-7.94-1-1.15-2.17-2.43-1-4.17L630.56,251l15.74,9.45c5.36,6.82,11.32,13.14,16.74,19.91,4,5,6.42,10.75,9.09,16.41,4.67,9.83,8.57,20,12.44,30.17a106.87,106.87,0,0,1,3.57,10.72c.42,1.55.66,3.11-.76,4.36a19.72,19.72,0,0,1-3,1.66c-5.52,2.78-8.05,7.37-8.3,13.41C676,358.57,676.5,360.23,675.23,361.54Z" transform="translate(-181 -200.55)"/><path class="cls-55" d="M615.45,243.43a4.64,4.64,0,0,0,1.3,3.44A151.29,151.29,0,0,1,628,261.45c3.26,4.63,8,7.85,11.15,12.66,1.77,2.71,2.72,5.64,3.89,8.47,1.38,3.31,3.4,6.21,5,9.34,6.31,12,12.38,24.2,17.23,36.89,3.25,8.48,4.49,17.52,6.08,26.42.37,2.06,1.54,4.25.09,6.39a68.89,68.89,0,0,1-10.73.76c-1.27-1.51-.78-3.42-1.13-5.13-1.72-8.21-3.28-16.46-5.49-24.54-1.16-4.21-3.43-8.12-5.49-12-3.69-6.86-6.15-14.25-9.67-21.14-4-7.78-6.85-16-10.34-23.92-2.6-5.9-7.3-10.45-11.52-15.23-6.17-7-12.34-14-18.41-21-.87-1-2-2-.89-3.56Z" transform="translate(-181 -200.55)"/><path class="cls-55" d="M597.84,235.87c.2,3,2.79,4.58,4.47,6.53,8.4,9.7,17.13,19.11,25.14,29.13,2.52,3.15,3.5,7.17,4.79,10.87,2.24,6.45,5.54,12.37,8.33,18.54,1.63,3.6,3,7.32,4.71,10.9,3,6.42,6.21,12.74,9.27,19.11,1.62,3.38,2,7.39,2.69,11.16,1.18,6.76,3.66,13.29,3.54,20.27l-1.78,0c-1.86.66-3.84-.07-5.71.42l-1.32.06a5.47,5.47,0,0,1-1.17-3.19c-1.51-8.87-3.91-17.57-5.2-26.49a13.57,13.57,0,0,0-3.12-6.71c-3.45-4.32-5.05-9.64-7-14.68-5.26-13.58-11.63-26.68-16.81-40.29-1.79-4.72-5.54-8.43-9-11.94-4.38-4.41-8.07-9.34-12.06-14-2.49-2.95-4.89-6-7.33-9-.88-1.08-2.18-2.13-1.2-3.83Z" transform="translate(-181 -200.55)"/><path class="cls-56" d="M589,232.72c.52,3.13,3.22,4.79,5,7.06,4,5.2,8.19,10.26,12.49,15.21,3.47,4,7,7.91,10.39,12,2.42,2.89,3.27,6.27,4.64,9.49C628,291.6,634.25,306.83,640.62,322a13.25,13.25,0,0,0,3.26,4.92c2.38,2.14,2.48,5.27,2.93,8.08q1.68,10.17,4.07,20.19c.6,2.51.74,5.13,1.09,7.69l-6.25.17a4,4,0,0,1-1.33-2.76c-1.75-8.71-3.79-17.37-5-26.19a12.07,12.07,0,0,0-3-6.38c-3.1-3.63-4.36-8.34-6.14-12.67-5.94-14.42-12.82-28.45-17.94-43.22-1.31-3.74-4.2-6.57-6.81-9.34-4.1-4.37-7.75-9.08-11.53-13.69a164.26,164.26,0,0,0-12.15-13.55c-1.39-1.35-3.08-2.77-1.6-5.1h1.26Z" transform="translate(-181 -200.55)"/><path class="cls-38" d="M582.1,362.28a122.37,122.37,0,0,1-17.63-1.16c-1.45-1.84-.68-4.06-1-6.09-1.05-6.84-1.21-13.77-1.68-20.66-.64-9.53-1.53-18.85-5-28-4.28-11.13-7.28-22.75-11.37-34-1.95-5.35-4.61-10.35-7-15.46-2-4.22-6-6.75-9.5-9.49-6-4.69-11.63-10-17.84-14.45-5.68-4.13-11-8.7-16.71-12.82-1.06-.76-2.45-1.45-1.62-3.21l11.34,0,3.78,0c1.81.84,3.84-.22,5.66.61h0a174.08,174.08,0,0,0,22.92,19.95c6.74,5.06,11.92,11.6,17,18.2,2.39,3.08,3,6.94,3.91,10.54,4.25,16.78,10.95,32.74,16.29,49.15a1.43,1.43,0,0,0,.22.58c5.67,5.48,4.42,13.08,5.57,19.74,1.28,7.39,2.6,14.83,3.23,22.34C582.8,359.55,583.23,361,582.1,362.28Z" transform="translate(-181 -200.55)"/><path class="cls-40" d="M600.83,363.06l-8.07-.17c-1-.51-2.23.12-3.26-.47-1.35-4-1.2-8.25-1.92-12.36-1.68-9.57-2.19-19.31-4.28-28.82-.18-.82-.15-1.87-.9-2.28-3.33-1.83-3.94-5.27-5-8.38-4.23-12.16-8.92-24.16-12.84-36.43-1.39-4.38-2.79-8.77-3.82-13.27-1.16-5.06-5.05-8.33-8.14-12.11-1-1.21-2.36-2.14-3.12-3.52-4.29-7.8-11.39-12.69-18.29-17.8-2.79-2-5.09-4.66-7.81-6.8a2.15,2.15,0,0,1-1.06-2.42l17,1.9c.88,1,2.1.44,3.15.63,3.12,4.83,6.25,9.67,9.55,14.38,4.17,5.94,9.12,11.23,13.94,16.59,5.19,5.77,7.55,12.68,9.88,19.76,4.47,13.62,8.51,27.42,14.72,40.41a37.15,37.15,0,0,1,1.74,4.37c.65,2,1.75,3.6,3.88,4.2a4,4,0,0,1,3,4c.88,11.53,3.65,22.74,5.87,34l.06.31C605.91,363.24,605.49,363.66,600.83,363.06Z" transform="translate(-181 -200.55)"/><path class="cls-38" d="M522.3,218.23a95.55,95.55,0,0,0,13,11.22c5.56,4.22,11,8.54,14.61,14.77,1.82,3.09,4.65,5.59,7.06,8.32a19.8,19.8,0,0,1,4.68,8.33c3.77,15,9.34,29.36,14.64,43.83.92,2.54,1.89,5.08,2.68,7.66A9.41,9.41,0,0,0,583,318.2c2,1.3,1.79,4.87,2.2,7.46,1.1,7,1.46,14,3,21,1.11,5.1,1,10.47,1.5,15.72a5.8,5.8,0,0,1-3.92.08l-3.63-.15a119.65,119.65,0,0,0-1.7-14.22c-1.28-7.89-2.28-15.83-3.32-23.75-.28-2.19-.44-4.3-2.51-5.74a4.69,4.69,0,0,1-1.6-2.27c-2.69-7.87-5-15.9-8-23.63a193.4,193.4,0,0,1-7-21.39c-1-3.61-2.32-7.1-3.09-10.78-.55-2.68-2.49-4.74-4.15-6.91a83.88,83.88,0,0,0-21.6-20.32c-2.39-1.52-4-3.89-6.34-5.58a97.68,97.68,0,0,1-7.68-6.89c-.94-.87-1.84-1.75-1.62-3.21A34.71,34.71,0,0,1,522.3,218.23Z" transform="translate(-181 -200.55)"/><path class="cls-38" d="M513.49,217.6c-1.88-.27-3.88.62-5.66-.61C509.72,217.23,511.72,216.37,513.49,217.6Z" transform="translate(-181 -200.55)"/><path class="cls-57" d="M314,718c-2.82-3.32-6.93-5.22-9.51-8.79,2-1.29,3.68-.05,5.21.87,8.41,5,17.76,8,26.35,12.58a14,14,0,0,0,12.51.2c7.17-3.2,14.89-4.23,22.27-6.53,2-.61,4-1.25,6-1.9,3-1,5.64-2.09,6.26-5.75.24-1.46,1.66-2.35,3-3.05,7-3.65,13.71-7.74,20.67-11.2,9.61-4.78,19.33-9.58,29.58-13a12.33,12.33,0,0,0,4.6-3.14,4,4,0,0,1,2.45,0c4.83,1.11,9.49,2.79,14.19,4.33a3.08,3.08,0,0,1,2,1.36,2.36,2.36,0,0,1-1.18,2.4c-3.8,2.57-7,6-11.28,7.91-6.32,2.83-12.12,6.59-17.95,10.29a57,57,0,0,1-11.43,5.17c-7.7,2.76-14.41,7.15-20.9,11.94-8,5.89-16.44,10.73-26.43,12.42-4.76.8-9.59.44-14.37,1.09-2.35.32-4.79.1-7.18.54a8.92,8.92,0,0,1-5-.34c-4.07-1.65-8.26-3-12.3-4.73-5.29-2.68-9.51-6.85-14.29-10.26Z" transform="translate(-181 -200.55)"/><path class="cls-56" d="M331.53,730.63c4.24,0,7.7,2.4,11.56,3.55.9.27,1.82.88,2.66.79,10.71-1.28,21.66-.18,32.16-3.68a58.1,58.1,0,0,0,17.58-9.82c9.08-7.17,19.46-11.64,30-15.92a31.83,31.83,0,0,0,5.9-3.49c6-4.19,12.95-6.83,19.05-10.83a41.88,41.88,0,0,0,8.92-7.2,1.59,1.59,0,0,1,.86-.47c3.5.77,7.22.9,10,3.61-.89,3.07-3.11,5.14-5.59,6.86-5.36,3.7-11.33,6.33-17.08,9.33a254.42,254.42,0,0,0-22.69,14,20.88,20.88,0,0,1-5,2.6c-7.67,2.51-14.3,6.86-20.75,11.55-.85.62-1.79,1.13-2.57,1.81-6.91,6.11-15.71,5.62-24,6.93a37.71,37.71,0,0,1-10.29.08c-4.81-.56-9.59.4-14.36,1A82.14,82.14,0,0,1,331.53,730.63Z" transform="translate(-181 -200.55)"/><path class="cls-55" d="M361.16,749.47c-1.25-.64-2.25-1.77-3.77-1.87-1.56-1.75-4-2.19-5.66-3.77.53-1.35,1.76-1.41,2.9-1.4a119.17,119.17,0,0,1,12.24.31c4.93.54,9.79-.75,14.64-1.45,2.89-.42,5.7-1.3,8.65-1.59,4.6-.47,8-3.5,11.59-6a79.08,79.08,0,0,1,15.83-8.89c5.93-2.41,11.15-6.29,16.29-10,6.16-4.49,12.88-7.85,19.57-11.29,6-3.07,11.46-7,17.33-10.2,2-1.1,3.12-3.07,4.8-4.48a3,3,0,0,1,2-.23c2.2,1,4.91.84,6.56,3,0,1.63-1.14,2.37-2.33,3.07-5.95,3.5-11.66,7.42-18,10.3a17,17,0,0,0-4.87,3.38c-4.61,4.5-10.72,6.46-16.21,9.45-2,1.1-4.2,1.94-5.45,4.08a4.37,4.37,0,0,1-1.68,1.41c-7.62,4.38-15,9.18-22.45,13.79s-15.43,6.27-23.32,8.9c-2.24.74-4.57.68-6.84.87-3.57.29-7,1.3-10.51,1.71a25.11,25.11,0,0,1-5,0C365.36,748.4,363.07,747.81,361.16,749.47Z" transform="translate(-181 -200.55)"/><path class="cls-56" d="M475.72,689.07c-1.78,4.26-6,5.6-9.45,7.86-8.22,5.41-17.4,9.15-25.7,14.34-6.24,3.91-12.24,8.34-18.59,12.09-7,4.16-14.92,6.82-21.4,12.06-2.67,2.16-5.46,4.39-9,4.82-6,.73-11.8,2.3-17.8,3.07-6.18.79-12.26-.68-18.39-.13-1.25.12-2.52-.06-3.65.65-1.31-.77-2.94-1-3.82-2.47,1.93-2.21,4.75-1.46,7.08-1.75a43.86,43.86,0,0,1,10.6.22c4.53.53,9.07-.82,13.62-1.28,1.65-.17,3.29-.5,5-.57,5.48-.22,9.31-3.84,13.59-6.52,6-3.73,11.22-8.61,18.22-10.7,6.58-2,11.89-6.42,17.53-10.11a261,261,0,0,1,24.92-13.81,30.44,30.44,0,0,0,11.63-9.66A5,5,0,0,1,475.72,689.07Z" transform="translate(-181 -200.55)"/><path class="cls-58" d="M687.21,341.49a3.59,3.59,0,0,0,.27-3.26c-2.68-9.78-6.85-19-10.48-28.42-2.86-7.38-6.33-14.49-9.87-21.55s-9-12.71-14.23-18.48a41.92,41.92,0,0,1-6.6-9.37c8,4.58,15.11,10.48,22.66,15.73,2.77,2.71,6.26,4.59,8.82,7.55,6.1,6.45,9.43,14.58,12.87,22.49,4.84,11.13,9.21,22.48,13,34,.65,2,1.77,4.34-1.36,5.52-1.12-.08-1.83-.89-2.69-1.45a15,15,0,0,0-9.13-2.46C689.38,341.89,688.2,342.49,687.21,341.49Z" transform="translate(-181 -200.55)"/><path class="cls-59" d="M702.37,345.37c1.81-1.1,1.25-2.6.75-4.14-1.94-6-4.23-11.77-6.42-17.63a241.73,241.73,0,0,0-13.22-30.3c-1.75-3.28-3.79-6.41-5.7-9.61,6.69,4.84,12.37,10.79,18.17,16.61,3,3,5.93,6.14,8.89,9.21.52,5.09,3.3,9.4,4.92,14.11,2.34,6.79,5,13.47,7.47,20.23,1.28,3.53.77,7.24.83,10.88a23.28,23.28,0,0,1-7.53,1.39c-2.14-2.28-3.41-5.31-6.13-7.08C703.57,347.9,702,347.17,702.37,345.37Z" transform="translate(-181 -200.55)"/><path class="cls-60" d="M555.66,711.1c-1.46,3.29-5,3.88-7.61,5.53a136.83,136.83,0,0,1-15.48,8.18c-12.78,6-23.74,14.65-34.82,23.14-8.09,6.2-13.8,14.79-21.45,21.44-4.17,3.64-8.25,7.38-12.4,11a4.35,4.35,0,0,1-1.43.55,73.33,73.33,0,0,1-17-2.49c-.85-1.58.34-2.41,1.34-3,7.78-4.83,14.26-11.29,21.37-17a71.55,71.55,0,0,0,10.26-10.18c3.46-4.16,7.7-7.38,11.61-11,4.65-4.32,10.56-6.75,15.73-10.32,9.28-6.42,18.26-13.42,28.8-17.84,1.5-.63,2.36-2,3.74-2.82,5.09.43,9.79,2.53,14.8,3.29A3.76,3.76,0,0,1,555.66,711.1Z" transform="translate(-181 -200.55)"/><path class="cls-59" d="M538,706.69c-.09,1.49-1.13,2.2-2.31,2.71-12,5.24-22,13.57-33,20.46-6.64,4.18-13.13,8.44-18.93,13.72-2.12,1.92-3.67,4.29-5.66,6.29a213.57,213.57,0,0,1-30.71,26c-1,.68-1.92,1.29-2,2.62-6.05-.32-11.79-2.23-17.66-3.51-.6-.12-1.22-.19-1.84-.28-3.29-1.28-6.88-1.6-10.08-3.16a2,2,0,0,1,1.95-1.31c3.44-.2,6.47-1.67,9.59-2.89,4-1.55,7.76-3.67,12.12-4.15a6.91,6.91,0,0,0,3.12-1.44c6.77-4.93,13.47-10,20.39-14.68,10.14-6.86,18.21-16,27.68-23.57,4.21-3.37,9.06-5.64,13.78-8.1a98.19,98.19,0,0,0,18.53-12.84c2.72-.52,5.08.93,7.62,1.43C533.11,705,535.92,704.91,538,706.69Z" transform="translate(-181 -200.55)"/><path class="cls-56" d="M580.21,230.17a4.24,4.24,0,0,0,1.46,4c8.26,7.47,14.61,16.56,21.63,25.08,1.26,1.52,2.84,2.7,4.2,4.13,5.32,5.61,7,12.88,9.88,19.68,5.13,12.32,10.49,24.53,15.82,36.76,1.43,3.3,2.38,6.8,5.55,9.25,1.55,1.2,1.37,3.87,1.6,5.89,1.1,9.52,4,18.7,5.37,28.15v0c-3.53.62-7.1.1-10.63.28-1.62-.18-1.54-1.57-1.7-2.62-1.37-8.68-3.2-17.27-4.87-25.9-.85-4.4-1.7-8.58-5.35-12-3.26-3-4-7.76-5.79-11.74-6.32-13.71-11.18-28-16.56-42.07-2.41-6.3-7.2-10.75-11.48-15.56-6.26-7-12.92-13.72-17.76-21.9-.82-1.4-2.18-2.72-.82-4.52C574,227.91,577.28,228.5,580.21,230.17Z" transform="translate(-181 -200.55)"/><path class="cls-57" d="M626.16,363.53h-10.7a3.8,3.8,0,0,1-1.26-2.46c-1.24-9-3.57-17.86-4.7-26.9-.39-3.13-1.44-6.11-2-9.21-.35-1.89-2.12-2.85-3.65-3.71a12.9,12.9,0,0,1-5.51-6.6,456.26,456.26,0,0,1-18.26-48.52A32.8,32.8,0,0,0,574.55,256c-7.4-9.78-15.87-18.69-23-28.7-1.08-1.52-2.88-3-1.59-5.29,2.48.78,5.19.65,7.56,1.86,3.73,2.76,6.32,6.56,9.24,10.07.8,1,1.6,1.91,2.49,2.79a69.57,69.57,0,0,1,6.28,8.89,17.73,17.73,0,0,0,4.54,5.43,5.11,5.11,0,0,1,.62.61,48.14,48.14,0,0,0,4.14,4.54,5.54,5.54,0,0,1,.55.75c3.4,3.85,4.38,8.82,5.85,13.45,4.09,12.83,9.71,25,14.88,37.4.93,2.22,1.69,4.5,2.61,6.73,1,2.51,2.48,4.3,5.23,4.83,2,2,3.36,4.37,5.53,6.27s1.66,5.1,2.16,7.71c1.49,7.81,3.21,15.57,4.41,23.43C626.42,359,627.28,361.28,626.16,363.53Z" transform="translate(-181 -200.55)"/><path class="cls-40" d="M550,222c.57,4.21,3.7,7,6.1,10,6.82,8.68,14,17.06,21,25.65a21.27,21.27,0,0,1,3.2,6.45c4.43,12.73,8.08,25.74,13.72,38.05q3.07,6.69,5.67,13.6c1.31,3.53,4.88,4.36,7.22,6.64.75.75,1.49,1.23,1.67,2.44.76,5,1.62,10.05,2.53,15.06,1.42,7.87,2.9,15.73,4.36,23.59-4.88-.06-9.78.34-14.63-.47,4.11-.13,4.1-.13,3.35-4.17q-2.79-14.86-5.56-29.74a16.34,16.34,0,0,1-.15-3.13c0-2.47-.36-4.5-3.35-5-1.81-.32-2.71-1.82-3.32-3.46-3.34-8.88-7.64-17.37-10.46-26.46-2.9-9.34-6.32-18.52-9.22-27.86-1.55-5-5-8.68-8.22-12.41-7.4-8.49-14.6-17.12-20.4-26.83a5.4,5.4,0,0,1-1.06-3.21Z" transform="translate(-181 -200.55)"/><path class="cls-57" d="M575.17,245.93l-6.29-8.82a66.67,66.67,0,0,0-6.86-8.76c-1-1.15-1.87-2.28-.7-3.81l9.44,2.51c.13.82,0,1.85.41,2.41,3.51,4.43,5.78,9.74,9.82,13.75,6.15,6.14,11.8,12.72,17.35,19.38,2.72,3.26,3.67,7.49,5.15,11.39,5.89,15.54,11.8,31.07,18.61,46.24a3.88,3.88,0,0,0,1,1.57c4.84,3.41,5.5,8.61,6.35,13.9,1.07,6.66,2.7,13.23,4,19.87.47,2.44.63,4.95.92,7.42-.27.49-.86.23-1.21.53l-7,0c-.84-5.63-1.25-11.37-2.66-16.86-1.32-5.12-1.66-10.42-3.39-15.43a21.7,21.7,0,0,1-.27-2.47c-.2-1-.36-2.77-.84-2.87-3.51-.75-3.67-4.21-5.43-6.33-3-2.25-3.63-5.78-4.89-8.95-4.5-11.29-8.12-22.93-13.61-33.82a14.56,14.56,0,0,1-1.07-2.62c-1.83-6.55-4.67-12.55-9.38-17.55-1.19-1.93-3.2-3.14-4.41-5C578,250.21,576.88,247.78,575.17,245.93Z" transform="translate(-181 -200.55)"/><path class="cls-57" d="M561.32,224.54c-.18,3.35,2.63,4.93,4.36,7.07,1.38,1.7,2.75,3.3,3.2,5.5a156.69,156.69,0,0,1-11.33-13.22C558.88,223.68,560.07,224.3,561.32,224.54Z" transform="translate(-181 -200.55)"/><path class="cls-40" d="M441.1,678.37a4,4,0,0,1-3.28,3.43c-6.8,1.39-12.38,5.58-18.76,7.91-11.65,4.26-21.61,11.82-32.91,16.77a4.52,4.52,0,0,0-2.92,4.13,3.36,3.36,0,0,1-2.49,3.25A121.31,121.31,0,0,1,359.42,720a22,22,0,0,0-5.94,1.94c-7.7,3.88-15,3.71-22.63-.65-5.41-3.1-11.4-5.21-17.12-7.79-3.1-1.4-5.51-4.3-9.27-4.24-7-5.34-12.81-11.94-18.87-18.26,3.09-.39,4.94,1.64,6.42,3.77a7.5,7.5,0,0,0,2.92,2.49c7.27,3.86,14.46,7.9,21.76,11.72,6.94,3.63,14,7,21.24,10a2.85,2.85,0,0,0,2.42,0c10.27-4.91,21.57-6.4,32.3-9.78a41.24,41.24,0,0,0,5.58-2c1.27-.61,2.71-1.46,2.23-3.33-.57-2.21.73-3.38,2.4-4.17,13.87-6.59,27-14.62,41.29-20.4,1.41-.57,2.73-1.37,4.05-2-.79-1.88-3.87-.57-3.47-3.26.14-.11.27-.2.41-.29C430.7,674.4,436.2,675.37,441.1,678.37Z" transform="translate(-181 -200.55)"/><path class="cls-61" d="M264.29,336.81l4.94-.88c2.08,1,.67,2.29,0,3.08-5.3,5.93-8.69,13.08-12.68,19.83a195.33,195.33,0,0,0-18.8,43.47,363,363,0,0,0-11.81,56.53,557.63,557.63,0,0,0-4.44,57.9c-.38,13.25,1,26.36,1.25,39.53.26,12.12,2.47,23.94,4.34,35.84-.13,4.21-.59,8.32-3.63,11.62-2.24-.53-2.32-2.54-2.69-4.19-1.88-8.4-2.87-16.95-3.94-25.48-1.74-13.95-2.14-28-2.8-42-.15-3.26.39-6.5.14-9.73a136.74,136.74,0,0,1,.58-24.12c.93-9.15,1.1-18.35,2.15-27.51,1.53-13.35,3.62-26.58,6.17-39.75,3.69-19.11,9.1-37.78,17.5-55.36,6-12.65,12.27-25.3,21.51-36.11a15.39,15.39,0,0,1,2.19-2.23A1,1,0,0,0,264.29,336.81Z" transform="translate(-181 -200.55)"/><path class="cls-62" d="M264.23,337.24c-1.78,4.32-5.6,7.18-7.92,11.16C249.22,360.59,242.4,372.84,237,386c-7,17.2-11.13,35.14-14.83,53.2-1.61,7.84-2.74,15.78-3.72,23.72-1.05,8.48-2.07,17-2.34,25.53-.26,8.35-1.77,16.67-1.45,24.94.38,9.91-.24,19.83.43,29.73,1.12,16.67,2.22,33.36,5.15,49.85.64,3.57.43,7.57,3.17,10.58.21,2.89,0,5.64-2.62,7.52-2.49-2.22-2.53-5.47-3-8.31-2-12.2-4.63-24.31-5.3-36.74-.66-12.17-2.51-24.27-2.41-36.49.08-9.25.12-18.51.67-27.74.71-11.63,1.54-23.25,2.9-34.85q2.16-18.5,5.94-36.64a248.57,248.57,0,0,1,11.1-39.38c4.72-12.2,10.8-23.76,17.14-35.15a58.81,58.81,0,0,1,8.51-12.35c1-1.09,2.42-2.35,1.58-4.27A15.61,15.61,0,0,1,264.23,337.24Z" transform="translate(-181 -200.55)"/><path class="cls-63" d="M492.71,217a2.37,2.37,0,0,0,1.23,2.07c5.52,3.23,10.11,7.68,15.16,11.52,8.79,6.68,17.27,13.77,25.81,20.78,2.7,2.21,4.19,5.31,5.83,8.4,4.86,9.21,8.18,19.05,11.14,28.88,3.22,10.68,7.69,21,9.88,31.95.66,3.39.32,6.85.66,10.29,1,10.05,1.42,20.16,2.05,30.25l-3.18-.13c-1.44-.55-3,.2-4.44-.47A241.72,241.72,0,0,1,530.4,358a4.46,4.46,0,0,0,2.42-4.61C532,341,532,328.48,531.45,316c-.14-3.53-2-6.63-3.45-9.73C522.07,294,517.81,281,511.72,268.81c-1.78-3.58-3.14-7.31-4.79-10.94A25.49,25.49,0,0,0,493.22,245c-10.71-4.58-21-10.05-31.79-14.4-5-2-10-3.72-14.18-7.29-.68-.59-1.21-.41-2-.21-1.14.29-2.52.71-2.94-1.12,2.1-1.39,4.79-.62,6.93-1.87,6.33-.26,12.54-1.53,18.85-2C476.32,217.49,484.49,216.85,492.71,217Z" transform="translate(-181 -200.55)"/><path class="cls-64" d="M442.35,222c.35.47.89.81,1.36.6,3-1.37,4.82.74,6.92,2.22,4.51,3.16,10,4.26,14.87,6.55,8.14,3.8,16.21,7.78,24.51,11.21a51.15,51.15,0,0,1,12.42,7.68c3.17,2.54,4.75,6.08,6.35,9.6,3.47,7.59,7.23,15.08,10.1,22.89,3.62,9.84,8.49,19.1,12.33,28.82a14.82,14.82,0,0,1,1.18,5.78c-.12,9.73.92,19.44.71,29.19-.07,2.65.45,5.38.59,8.09s-.66,3.74-3.29,3.38l-2.47-.15c-1-.51-2.22.11-3.24-.47a304,304,0,0,1-30.21-3.78c2,.23,2.76-.66,2.67-2.72q-.86-18.83-.68-37.67a7.71,7.71,0,0,0-2.7-5.49c-3-3-6-6.15-9.13-9.11-5.26-5-10.21-10.18-13.63-16.66-2.11-4-5.72-6.84-8.49-10.34-2.93-3.72-5.77-7.5-7.49-11.85-3-7.71-9.43-9.73-16.65-10.7-4.84-.65-9.69-1.34-14.51-2.09-.9-.15-2.18-.48-2.5-1.12-1.66-3.27-4.62-3.83-7.78-4.24-.89-.12-2.16-.45-2.52-1.09-1.84-3.29-4.76-5.63-7.11-8.45,5-2.4,10.41-3.46,15.67-5,1.29-.39,2.56-.84,3.84-1.27C429.77,224.54,435.94,222.68,442.35,222Z" transform="translate(-181 -200.55)"/><path class="cls-54" d="M390.75,763.34q-7.12-3.15-14.26-6.3a4.53,4.53,0,0,1-2.12-1.24c2.32-1.94,5.29-2.32,8-2.38,7-.14,13.16-3.33,19.75-4.9,5-1.21,9.73-3.25,14.74-4.47s8.75-4.87,13-7.45c3.83-2.3,7.85-4.48,10.73-8.1a4.55,4.55,0,0,1,1.78-1.27c6.9-3,12.49-8.05,18.69-12.14,7.1-4.67,14.63-8.62,21.93-13,3.94-2.35,8.11-4.41,11-8.23,3.5,0,6.6,1.58,9.86,2.53,1.68.5,3.36,1,5.06,1.49A5.39,5.39,0,0,1,511,699c.46,1.91-1,2.55-2.23,3.32-3.49,2.12-7.06,4.14-10.67,6a45.4,45.4,0,0,0-12,9c-5.29,5.63-12,9.07-18.34,13.07-9,5.67-18.29,11.09-25.78,18.89-3.59,3.73-8.66,4.55-13.11,6.54-9.81,4.42-20.62,5.43-30.75,8.79a3.64,3.64,0,0,1-3-.09Z" transform="translate(-181 -200.55)"/><path class="cls-65" d="M395.14,764.61c6.65-1.76,13.22-4,20-5.15,7.53-1.32,14.13-5,21.23-7.33a11.66,11.66,0,0,0,4.78-2.93c8.77-9,19.48-15.34,30.17-21.68,4.6-2.72,9.15-5.38,12.85-9.36,5.55-6,12.5-10,19.57-13.89,2.58-1.42,5.73-2.16,7.25-5.13a22.28,22.28,0,0,1,12,3.78c0,1.33-1,2.06-1.9,2.74-7.91,6-16.56,10.84-25.34,15.43a31.71,31.71,0,0,0-7.24,5.38c-5.81,5.55-11.92,10.79-17.83,16.23-3.46,3.17-7.81,5.45-11.59,8.42-4.9,3.87-10.15,7.3-15.27,10.89a9.85,9.85,0,0,1-4.8,2.14c-4.88.47-9,3.13-13.43,4.87-3.15,1.24-6.42,1.68-9.62,2.52A107.12,107.12,0,0,1,395.14,764.61Z" transform="translate(-181 -200.55)"/><path class="cls-55" d="M494,694.11c-.63,2.7-2.76,4-4.91,5.31-11,6.94-22.88,12.57-33.35,20.43-4.18,3.13-8.82,5.56-13.14,8.41-3.65,2.4-6.83,5.65-10.61,8s-7.33,5.27-11.39,7c-8.14,3.46-16.94,5.11-25.2,8.2-6.86,2.57-14.15,2.19-21,4.31-4.19-1.72-8.37-3.44-12-6.24-.05-2,1.49-1.64,2.62-1.6,3,.11,5.91.59,9,.06,11.28-1.93,22.79-3.08,33.29-8a117.91,117.91,0,0,0,13.55-7.75c3.26-2.07,6.55-4.12,9.7-6.34,7.59-5.34,15.29-10.42,23.75-14.37,3.14-1.45,5.32-4.68,8.52-6.31,6.52-3.32,12.7-7.24,19-10.9a9.8,9.8,0,0,0,3.18-3c3.07-.59,5.54,1.23,8.28,2A1.85,1.85,0,0,1,494,694.11Z" transform="translate(-181 -200.55)"/><path class="cls-55" d="M485.16,691.59c-.12,1.79-1.6,2.29-2.86,3-7,4.11-14.45,7.71-21,12.52-6.38,4.69-13.62,7.73-20.1,12-5,3.32-9.85,6.93-14.93,10.17-7.1,4.51-14,9.57-22,12.38-7.75,2.7-15.61,5.36-24,5.23-2,0-3.5,1.19-5.42,1.38-3.12.31-6.17.82-9.3,0a2.46,2.46,0,0,0-3.21,1.26l-1.22-.09c1.33-3.58,4.4-1.85,6.47-1.65a22.06,22.06,0,0,0,8.86-.88c2.64-.84,5.38-.77,8-1.08a69.54,69.54,0,0,0,23-6.58,130.52,130.52,0,0,0,18.75-11.1c1.52-1.11,3.29-1.87,4.76-3a115.67,115.67,0,0,1,23.1-14.06c3.25-1.51,5.22-5,8.64-6.49,6.66-3,12.62-7.26,19-10.79a10.84,10.84,0,0,0,2.14-2.23A.91.91,0,0,1,485.16,691.59Z" transform="translate(-181 -200.55)"/><path class="cls-66" d="M774,394.73c-1.55-10.41-2.13-20.94-4.3-31.26-1.52-7.2-2.88-14.44-5.42-21.37a10.5,10.5,0,0,1-.89-4.88c1.45-1.5,2.91-3,4.36-4.51,1.82.19,2.3,1.59,2.73,3a324.85,324.85,0,0,1,10.85,57.65c.14,1.35.48,2.72-.43,4C778,398.17,775.77,397,774,394.73Z" transform="translate(-181 -200.55)"/><path class="cls-67" d="M780.39,397.5c.84-3.65-.29-7.21-.73-10.75-1-8.12-2.2-16.22-3.62-24.29-1.59-9.13-4.52-17.91-6.41-26.95-.25-1.23-1.16-1.93-1.88-2.8l3.73-5.73c1.49,4.62,2.91,9.27,4.5,13.86,3.21,9.24,4.08,19,6.27,28.46,2.15,9.3,2.42,18.9,4.32,28.25.33,1.6.73,3.53-.52,5.11-.83.66-1.44.22-2-.37C784.19,399.66,781.09,399.49,780.39,397.5Z" transform="translate(-181 -200.55)"/><path class="cls-68" d="M671.48,655.75c7.61-1.42,15.37-2,22.92-3.78,2.2-.53,4.45-.87,6.66-1.3,3,.19,1.49,1.49.47,2.31-4.5,3.68-9.07,7.29-13.64,10.89q-18.63,14.68-38.56,27.59c-.73.48-1.78.82-1.77,2a4.25,4.25,0,0,1-2.46,1.35c-5,.51-10.05.17-15.07.23-3-.14-6.07,0-9.1,0a9.58,9.58,0,0,1-3.65-.37c-1.49-1-.38-1.79.29-2.49a14,14,0,0,1,3.11-2.12A500.81,500.81,0,0,0,671.48,655.75Z" transform="translate(-181 -200.55)"/><path class="cls-69" d="M712.48,647c-.91-2.16.86-3.58,1.89-4.69,6.48-6.86,10.58-15.17,14.88-23.39,6-11.54,9.27-24.12,13.3-36.4a258.4,258.4,0,0,0,7.82-30.26c.2-1,.85-2-.21-2.88a1.18,1.18,0,0,1,.4-1.4c3.76-3.09,6.54-7,9.36-10.9.5-.69,1-1.4,2-1.08,1.19,1,1,2.23.64,3.44-2,7.33-3.76,14.73-5.94,22-6.23,5.05-7.28,9.45-4,16.9-2.49,5.1-3.94,10.61-5.6,16a155.26,155.26,0,0,1-14.38,32c-3.19,5.5-6.57,11-11.24,15.44a23,23,0,0,0-2,2.8A21.49,21.49,0,0,1,712.48,647Z" transform="translate(-181 -200.55)"/><path class="cls-70" d="M645.68,694.1c.45-.73,1.19-.6,1.88-.63l15.74-1.25c.94-.75,2.22.14,3.15-.63h.63a2.88,2.88,0,0,1-.66,4.13,6.56,6.56,0,0,0-2.37,5.25c.29,4.27-1.32,7.88-3,11.55a5.09,5.09,0,0,0-.26,3.62l-.63.63a143.48,143.48,0,0,1-19.51,1.88,4.75,4.75,0,0,1,.39-6.06,12.39,12.39,0,0,0,2.82-6.45,17.07,17.07,0,0,1,2.38-5.76C647.5,698.09,647.58,696,645.68,694.1Z" transform="translate(-181 -200.55)"/><path class="cls-71" d="M719.38,644.54a3.91,3.91,0,0,1,1.28-3.34c6.12-6.34,10.54-13.8,14.66-21.57a159.61,159.61,0,0,0,9.51-21.36c2-5.57,3.59-11.29,5.48-16.9.4-1.19.61-2.76,2.3-3.07a21.09,21.09,0,0,0,5.13,4.34,3.19,3.19,0,0,1,.14,3,152.61,152.61,0,0,1-8.42,22.24,134.45,134.45,0,0,1-18.76,29.88,20.39,20.39,0,0,0-1.87,2.89A38.2,38.2,0,0,1,719.38,644.54Z" transform="translate(-181 -200.55)"/><path class="cls-62" d="M728.83,640.65c-.66-1.7.62-2.72,1.48-3.75a135.44,135.44,0,0,0,21.16-35.63,127.87,127.87,0,0,0,6.27-18.63c2,1.11,4.17.55,6.26.8a162.57,162.57,0,0,1-9.39,23.82c-4.12,8.45-9.38,16.21-14.79,23.86-1.55,2.19-5.14,2.89-4.72,6.5A24.71,24.71,0,0,1,728.83,640.65Z" transform="translate(-181 -200.55)"/><path class="cls-36" d="M666.45,691.59c-.89,1-2.09.47-3.15.63C664.18,691.17,665.39,691.74,666.45,691.59Z" transform="translate(-181 -200.55)"/><path class="cls-33" d="M772.8,565.75l-2.55-3.08c-.51-2,.65-3.66,1-5.48,2.81-13.53,6.75-26.81,8.88-40.48,1.77-11.36,3.44-22.71,4.57-34.18,1.28-12.95,1.42-25.9,2.14-38.84a132.82,132.82,0,0,0-1.6-29.06c-.18-3.08,1.45-5.37,3.29-7.56a2.22,2.22,0,0,1,1.27,2c1.65,16.57,1.54,33.21,1.14,49.81a318.78,318.78,0,0,1-2.53,32.22c-1.51,12-3.15,24.13-5.84,36s-5.21,23.55-8.43,35.19A28.44,28.44,0,0,1,772.8,565.75Z" transform="translate(-181 -200.55)"/><path class="cls-72" d="M788.56,407.07c-.57,2.52-2.16,4.59-3.14,6.93-.06,2.88-2.5,4.18-4.06,6.06-1.51,1.51-3.51,2.22-5.32,3.25a15.68,15.68,0,0,1-2.15.93c-2,.88-4.22.39-6.26,1.07s-4-.13-6.06-.36a48.45,48.45,0,0,1-9.14-2.7c-5.69-2.43-11.41-4.49-17.8-4.31-10.38.28-16.75,8-14.83,18.25a26.77,26.77,0,0,0,2.8,7.62c.52,1,1.63,2.15,0,3.19a1.47,1.47,0,0,1-1.18-.35c-5.3-5.71-9.1-12.24-8.37-20.26,1-10.65,10.19-16.72,21.76-14.88,4.59.72,8.85,2.5,13.14,4.18s8.86,3.13,13.69,3.15c9.58,0,16-4.62,20-13.07.64-1.37.82-3.11,2.57-3.73l1.86.62C787.05,404,790.46,404,788.56,407.07Z" transform="translate(-181 -200.55)"/><path class="cls-61" d="M776,422.81l5-3.15c1.83-.69,1.81.8,2.06,1.83.54,2.15.31,4.38.49,6.57.93,10.87.28,21.71-.13,32.59-.48,12.8-2.42,25.42-3.49,38.14-.66,7.71-2.4,15.29-3.69,22.94-1.57,9.3-4,18.41-6,27.62-.86,3.85-1.7,7.74-3.71,11.24l-5-.65c-1-1.55-.26-3.08.12-4.55,3.06-11.57,5.75-23.2,7.85-35,3-16.95,4.95-34,6.28-51.15a317.31,317.31,0,0,0,.51-32.05C776.14,432.41,775.16,427.63,776,422.81Z" transform="translate(-181 -200.55)"/><path class="cls-62" d="M766.53,560.59c0-2.58,1.26-4.82,1.82-7.22,3.66-15.69,7.06-31.4,9.64-47.32,1.89-11.6,2.57-23.31,4-34.95,1.07-8.58,1-17.41,1.27-26.14.27-7.76-.78-15.46-1-23.19,0-.95.1-2-1.26-2.11l4.41-5.66c1.7.74,1.68,2.59,1.67,3.79-.07,7.35,1.53,14.67.78,22-1.09,10.62.24,21.31-1.22,31.9-1.8,13.07-2.24,26.26-4.65,39.33-2.27,12.29-4.94,24.46-7.66,36.65-1.13,5.07-1.85,10.25-4.09,15Z" transform="translate(-181 -200.55)"/><path class="cls-73" d="M776,422.81a4.22,4.22,0,0,1,.6,1.37c.42,8.2,1.4,16.42,1.06,24.59-.56,13.09-1.21,26.16-2.62,39.23-1.81,16.68-4.74,33.12-7.91,49.54-1.46,7.54-3.71,14.93-5.6,22.4l-4.85,1.46c-1.28-.76-.33-1.7-.12-2.49,1.76-6.64,3.58-13.27,5.37-19.9.27-1,.56-2.06-.41-2.9a2.41,2.41,0,0,1,.32-2.34c1.67-3,2.54-6.25,3.58-9.46a33.1,33.1,0,0,0,1.53-8.25c.1-1.22-.12-2.55,1.1-3.39,1.93-4.15,2-8.67,2.51-13.07,1.19-10.92,3-21.81,3-32.8,0-9.72,1.63-19.4.38-29.15-.47-3.72,0-7.53-.63-11.28a3.39,3.39,0,0,1,.81-2.93Z" transform="translate(-181 -200.55)"/><path class="cls-74" d="M763.37,580.65c-4.44.32-7.28-1.32-8.92-5.16a9.63,9.63,0,0,1,2-10.44c2.7-2.55,6.42-3,10.1-1.24a2.78,2.78,0,0,1-1.59,1.76,4.38,4.38,0,0,1-1.2.28c-5.13.46-5.21.46-5.08,5.74,0,1.74-.82,3.72.82,5.21,1.24-1.14.11-3,1.24-4.14,2.78.11,2.83,2.62,3.82,4.32A4.69,4.69,0,0,1,763.37,580.65Z" transform="translate(-181 -200.55)"/><path class="cls-75" d="M765.17,565.37c.07-.83.36-1.49,1.34-1.56,5.44,2.83,6.56,8.86,2.58,13.87a1.5,1.5,0,0,1-1.28.29c-1.62-.78-2.17-2.39-2.94-3.83-.36-.67-.55-1.46.17-2C768.23,569.94,766.82,567.67,765.17,565.37Z" transform="translate(-181 -200.55)"/><path class="cls-76" d="M767.92,577.65l1.17,0a6.78,6.78,0,0,1-5.72,3c-.21-1.34.51-2.51.7-3.78C765.38,577,766.56,577.73,767.92,577.65Z" transform="translate(-181 -200.55)"/><path class="cls-77" d="M516.62,553.67c-5.47-3.6-9.17-8.64-11.89-14.48-1.76-1.88-1.8-4.39-2.58-6.93-3.71,6.81-9.12,12-14.54,17.23-13.61,10.13-28.56,12.69-44.79,7.93a9.22,9.22,0,0,1-5-3.07c-6.23-4-10.31-9.62-13-16.38-1.61-1.55-1.61-3.75-2.4-6.14-5.56,8.49-12,15.77-20.64,20.88-14.7,7.73-29.95,9.3-45.77,3.91a16.3,16.3,0,0,1-6.77-4.37c-13.17-10-17-24.15-17-39.73.05-32.28,7.93-62.42,25.76-89.57,9.4-14.29,21.34-25.82,37.8-31.85a53,53,0,0,1,25.07-2.8c8.67,1.06,15.95,4.84,21.34,11.89a19,19,0,0,1,4.36,7.12c.46-.57.62-1.23,1.23-1.53,3.33-12.53,4.87-13.69,18-13.69,8.25,0,16.51.15,24.75-.08,3.08-.09,3.62.85,2.61,3.45a7.79,7.79,0,0,0-.28,1.53c.65,1.13.2,2.25-.07,3.35-6,25.54-12.23,51.06-18.19,76.62-1.66,7.13-3.43,14.23-4.95,21.39-1,5-2.43,9.86-2.56,15a15,15,0,0,0,4.86,12c5.6,2.62,10.88,1.49,15.72-1.79a32.41,32.41,0,0,0,13.87-19.52Q513.94,453.15,526,402.15c1.71-7.14,5.28-10.06,12.63-10.06h32.69c3.73,0,3.72,0,2.85,3.67-.1.4-.12.82-.18,1.23.67,1.13.22,2.25,0,3.35q-8.06,33.46-16,67c-2.3,9.69-4.63,19.36-6.77,29.08a73.28,73.28,0,0,0-2.38,15.14c-.12,5.24,1.16,9.69,4.86,13.4,6.9,3.34,13.44,2.05,19.66-1.75s10.36-9.67,13.76-16c5.46-10.22,7.36-21.55,10-32.62,5.89-24.33,11.68-48.68,17.54-73,1.63-6.73,5.14-9.41,12.1-9.41h33c3.85,0,3.84,0,3,3.66a8.55,8.55,0,0,0-.13,1.24c.58,1.48.09,2.9-.25,4.31q-9.47,39.38-18.73,78.81c-1.88,7.94-3.8,15.87-5.63,23.83-1.7,7.14-3.51,14.26-5,21.44-1.73,6.92-3.41,13.87-4.94,20.83-2,7.72-3.76,15.5-5.57,23.26-1.42,6.16-3.18,12.22-5.07,18.25-2.46,6.34-4.55,12.84-7.75,18.89a156.32,156.32,0,0,1-10.08,17.83A108.75,108.75,0,0,1,585,641.69c-6.82,6.95-14.85,12.21-23.41,16.76a96.51,96.51,0,0,1-42,10.12c-8.27.13-16.53.06-24.64-2-5.3-1.32-10.51-2.82-14.79-6.46-4.45-3.89-8.64-8-10.45-13.88-3.09-12,1.28-21.73,9.41-30.26,9.9-10.39,22.05-17.54,34.66-24,18.94-9.71,38.82-17.09,59-23.71,2.67-.87,4.13-2,4.62-4.94.84-5.15,2.24-10.19,3.4-15.29-.42-4,1.25-7.55,2-11.31a2.55,2.55,0,0,1,.18-.53,3.78,3.78,0,0,1,.25-.49c-.27-.1-.19.22-.35.3a53.48,53.48,0,0,1-58.49,21.71C521.43,557,518.6,556.07,516.62,553.67Z" transform="translate(-181 -200.55)"/><path class="cls-78" d="M337.21,648.14a43.33,43.33,0,0,0,4.7,0c3-.33,3.11,1.13,2.13,3.3-.51,1.13-1.06,2.27-1.65,3.37-1.48,2.76-.72,4.26,2.53,4.66,5.35.67,10.71,1.33,16.08,1.86,7.24.73,14.4,2,21.56,3.2,1.29,2.57-.82,3.23-2.39,3.75-6.59,2.15-12.81,5.22-19.24,7.75-6,2.37-11.46,5.49-15.91,10.35a79.2,79.2,0,0,1-10.08,9c-4,3.09-4.39,3.14-8.37-.14-3.79-3.14-7.29-6.63-11.19-9.65-4.31-3.33-8.84-6.4-12.58-10.38-4.38-4.66-9.91-8-14.2-12.75-1.4-1.55-2.28-3.26-1.7-5.42,2.8-.58,5.19-2.46,8.13-2.6,1.3-.7,1.68.26,1.94,1.17.38,1.31,1.22,1.52,2.39,1.21s1.18-1.21,1-2.2a2,2,0,0,1,.41-2A133.25,133.25,0,0,1,337.21,648.14Z" transform="translate(-181 -200.55)"/><path class="cls-38" d="M286.9,657c.93,4.75,4.46,7.71,8.06,10.14,3.77,2.55,6.71,5.91,9.91,9,5.18,4.9,11.34,8.49,16.49,13.39,2.17,2.07,4.35,4.17,6.75,6,2.11,1.65,3.59,1.59,5.41,0,3.23-2.8,6.83-5.27,9.62-8.45C348.79,680.67,356,677,363.75,674c5.53-2.18,10.91-4.72,16.59-6.5,1.4-.43,2.44-1.25,2.22-3l11.06,2a1.67,1.67,0,0,1,1.48,1.74,2.53,2.53,0,0,1-1.64,2.47c-4.58,2.05-9,4.57-13.84,5.85-5.22,1.41-9.59,4.57-14.74,6.05-3.89,1.12-7.44,3.25-11.45,4.19-2.13.51-3.75,2.24-5.33,3.75-3.16,3-6.22,6.16-9.3,9.26-2.7,2.73-8.14,3.11-12.11.41a71,71,0,0,0-10.44-5.63c-3.62-1.67-6.16-4.92-9.28-7.34-4.68-3.63-8.56-8.3-13.1-12.14s-9.46-7.19-13.73-11.33c-.74-.72-1.38-1.56-2.07-2.33Z" transform="translate(-181 -200.55)"/><path class="cls-79" d="M577.06,656.13l3.83.33c1.22.75,3.49-.77,3.82,1s-1.91,2.46-3.31,3.23a442,442,0,0,1-43.13,20.81,63.06,63.06,0,0,0-6.19,3c-4,.38-7.71-1.43-11.64-1.56-5.45-1.37-10.89-2.81-16.45-3.67-5.48-1.14-10.83-2.87-16.37-3.78-5.72-.81-11-3.36-16.82-3.87-2.19-.79-4.68-.86-6.41-2.72,1.76-2.7,5-1.94,7.4-3.08,3.12-1.46,7-1.06,9.6-3.83,1.31-.33,2.17.62,3.08,1.21,8.06,5.25,17.07,7.13,26.48,8.08,12.69,1.29,25.08-.15,37.38-3.12A82.68,82.68,0,0,0,570.62,659C572.92,658.36,574.34,655.75,577.06,656.13Z" transform="translate(-181 -200.55)"/><path class="cls-80" d="M424.73,674l-9.44-2.52q-8.3-1.92-16.58-3.86a1.41,1.41,0,0,1-.76-.47c-1.33-1.69.06-7.78,2-8.78,1.37-.72,3-1.17,2.73-3.25a263.4,263.4,0,0,1,26.76,5.78c2.39.65,4.82,1.17,7.23,1.76.79,1.51-.3,2.22-1.37,2.46a7,7,0,0,0-5.13,4.45c-.51,1.18-1.73,1.72-2.87,2.25A8.73,8.73,0,0,0,424.73,674Z" transform="translate(-181 -200.55)"/><path class="cls-81" d="M571.39,659.32c-12.32,7.62-25.85,11.39-40.15,12.78a98.52,98.52,0,0,1-32.12-1.75A44.92,44.92,0,0,1,481.39,662c-.45-.61-.89-1.23-1.33-1.84,6.15,2.86,12.35,5.46,19.16,6.44,21.26,3.07,41.73.72,61.26-8.51.48-.22,1-.36,1.46-.54a32.8,32.8,0,0,1,7.14-.15C570.12,657.54,571.85,657.23,571.39,659.32Z" transform="translate(-181 -200.55)"/><path class="cls-69" d="M247.22,617.94c1.54,6.14,3.29,12.22,6.26,17.86a86.32,86.32,0,0,1,5.07,10.36l-8.18,4.51c.27-1.41-.76-2.32-1.38-3.37-4.78-8.11-7.41-17.18-11.47-25.62a9.78,9.78,0,0,1-.36-3.06C240.42,617,243.73,616.18,247.22,617.94Z" transform="translate(-181 -200.55)"/><path class="cls-82" d="M464.39,668.91l6.29,1.93a2.77,2.77,0,0,1-1.87,4c-4.34,1.13-5.62,5-7.88,8-.32.41-.6.85-.94,1.24h-.64L443,679c-1.27-1.77-.3-3.07,1.11-3.91,2.83-1.68,5.38-3.5,6.53-6.8.36-1,1.59-1.28,2.44-1.88Z" transform="translate(-181 -200.55)"/><path class="cls-83" d="M453.06,666.41c-1.24,1.63-2.64,3.1-3.18,5.22-.42,1.63-2.2,2-3.48,2.85-1.69,1.08-3.92,1.77-3.42,4.52l-1.88-.63L424.73,674c0-.32-.06-.86,0-.91,4.24-1.65,4.89-7.41,9.61-8.46,1.22-.26,2.24-.48,2.3-2a87.76,87.76,0,0,1,14,3.18C451.44,666.06,452.26,666.21,453.06,666.41Z" transform="translate(-181 -200.55)"/><path class="cls-38" d="M300.73,652.59a9.57,9.57,0,0,0,.19,1.52c.77,2.8-.78,4.52-3.59,4-1-.18-1-.91-1-1.64,0-1,0-1.91-1.3-2.05C296.72,653.17,298.82,653.17,300.73,652.59Z" transform="translate(-181 -200.55)"/><path class="cls-77" d="M220.83,611a30.79,30.79,0,0,0,2.62-7.52,53.4,53.4,0,0,0,3.28-11.26c-.67-3.25.89-6.12,1.51-9.15a64.82,64.82,0,0,0,1.94-8.15c1.35-5.59,2.71-11.18,3.86-16.82,2.47-9.84,4.55-19.78,6.89-29.64q11.92-51.66,23.85-103.31c4-17.37,8.21-34.69,11.92-52.13a73.32,73.32,0,0,0,1.45-23.12,2.44,2.44,0,0,1,.41-2.06c.29-.74,1-.7,1.57-.69,14.5.15,29,.27,43.51.47A13.65,13.65,0,0,1,336,354.82c2.07,2.33,2.22,5.11,1.75,8-1.24,7.56-3.26,14.94-5,22.37q-12.21,52.14-24.41,104.28c-1.61,6.29-3.11,12.61-4.45,19-2.45,9.82-4.78,19.66-6.91,29.55-2,7.92-3.85,15.9-5.65,23.87-1.23,4.11-1.78,8.38-3,12.48-.73,2.36-.46,3.58,2.33,3.24a1.9,1.9,0,0,1,1.45.5c23.26-1.55,46.42.71,69.6,2.05q10.5.6,21,.69c12.92.1,25.52-1.27,36.86-9.51.34,2.62.63,4.83.92,7,1.09,1.36.82,3,.67,4.5-.72,7.88-3.3,15-8.78,20.88-7.69,8.53-17.78,11.84-28.76,13.3-12.08,1.6-24.07,0-36.07-.9-12.22-.91-24.43-2-36.65-3-8.38-.66-16.77-.66-25.13-.85-9.38-.21-18.84.18-28.25.72s-19,1.27-28.52,2.13a6.42,6.42,0,0,1-3.1-.34c-1.74,0-3.51-.13-5.16.62-.91-.09-1.32-.39-.85-1.4A29,29,0,0,0,220.83,611Z" transform="translate(-181 -200.55)"/><path class="cls-41" d="M202.53,538c-1.33-2.77-.38-5.7-.6-8.55-.15-2,0-4,0-5.93,1.33,2.77.38,5.71.6,8.55C202.65,534,202.53,536,202.53,538Z" transform="translate(-181 -200.55)"/><path class="cls-41" d="M204.42,565.7c-1.21-1.33-.39-2.94-.63-4.41C205,562.61,204.17,564.23,204.42,565.7Z" transform="translate(-181 -200.55)"/><path class="cls-41" d="M203.79,558.14c-1.14-1.1-.42-2.52-.63-3.77C204.3,555.47,203.59,556.89,203.79,558.14Z" transform="translate(-181 -200.55)"/><path class="cls-41" d="M206.93,585.84c-1.13-1.1-.42-2.52-.62-3.77C207.45,583.17,206.73,584.58,206.93,585.84Z" transform="translate(-181 -200.55)"/><path class="cls-41" d="M203.16,550.59c-1.14-1.1-.42-2.51-.63-3.78C203.67,547.92,203,549.33,203.16,550.59Z" transform="translate(-181 -200.55)"/><path class="cls-41" d="M205.68,577.65c-1.05-.88-.48-2.09-.63-3.14C206.1,575.39,205.53,576.59,205.68,577.65Z" transform="translate(-181 -200.55)"/><path class="cls-84" d="M225.84,614.75c7.72-1.45,15.57-1.82,23.39-2.25,11.71-.65,23.45-1.18,35.17-1.18,21.07,0,42,1.94,63,3.8,12.91,1.14,25.85,2.63,38.85.55,10-1.61,18.81-5.5,26-12.81a6.39,6.39,0,0,1,6.91,1.25c-4,6.37-9.81,10.49-16.67,13.15-9.28,3.59-18.91,4.52-28.87,4-7.82-.41-15.65-.83-23.45-1.47-8.11-.67-16.19-1.58-24.29-2.33-3.33-.31-6.67-.41-10-.65a410.11,410.11,0,0,0-43.65-.58c-8.32.31-16.7.51-25,1.71-3.39-.35-6.7.58-10.06.68-2.16-.39-4.18.62-6.3.63-2.15-.3-4.22,1.29-6.48.27C224.87,617.91,225.35,616.33,225.84,614.75Z" transform="translate(-181 -200.55)"/><path class="cls-85" d="M241.6,528.66q-2.94,15-6.85,29.7c-1.57-1-1.57-2.63-1.61-4.2-.22-8.48-1.08-16.95-1.12-25.41-.05-10.78.3-21.57.91-32.35s1.31-21.54,2.69-32.25c3.18-24.8,7.22-49.42,15.5-73.12,6.43-18.38,14.58-35.95,25.87-51.94a24.68,24.68,0,0,1,4.86-5.73c1.52-.89,3.21-.6,4.85-.65s2.37.66,1.29,2.23c-2.47,3.58-5.43,6.86-7.21,10.85-.54,1.21-3-.09-2.22,2.08l.18,1.84c.1,1.86-1.39,3-2.16,4.4A247.25,247.25,0,0,0,253.19,417q-4.71,21.08-7.29,42.46c-1.28,10.48-2.4,21-3,31.58-.68,11.51-.72,23-1.3,34.53C241.53,526.62,242.18,527.64,241.6,528.66Z" transform="translate(-181 -200.55)"/><path class="cls-47" d="M281.85,333.36c-1.72,3.83-4.64,6.86-6.91,10.34-8.26,12.67-14.63,26.22-20.24,40.25-5.88,14.72-9.55,30-12.78,45.41a252.44,252.44,0,0,0-4.2,26.48c-.78,7.75-2.05,15.45-3,23.18-.43,3.62-.38,7.29-.57,10.93-.32,5.93-1.1,11.85-.85,17.83.21,4.79-.43,9.62-.44,14.38,0,11.06.7,22.11,1.16,33.16a15.58,15.58,0,0,0,.71,3,154.59,154.59,0,0,1-3.88,16.78c-2,0-1.92-1.57-2.21-2.83A86.11,86.11,0,0,1,227,556.4c-.37-10.15-1.57-20.29-1.32-30.41.49-19.25,1.08-38.49,3.41-57.66a470.69,470.69,0,0,1,10.16-56.57,207.47,207.47,0,0,1,15.89-43.25c3.81-7.59,7.64-15.16,12.1-22.39,2.42-3.9,5.66-7.28,7.52-11.55A20.48,20.48,0,0,1,281.85,333.36Z" transform="translate(-181 -200.55)"/><path class="cls-49" d="M274.74,334.57c1.39,1,.26,1.94-.26,2.65a166.45,166.45,0,0,0-15.6,25.69c-3.25,6.74-6.55,13.44-9.41,20.39a221.21,221.21,0,0,0-9.42,28.84,411.65,411.65,0,0,0-8.59,44.75c-1.42,10-2.28,20-3.21,30.05-1,10.33-.57,20.71-1.39,31-.65,8.32,0,16.51.39,24.71.43,10.07.39,20.23,2.32,30.21.18,1,.29,1.85,1.3,2.3a38.11,38.11,0,0,1-1.89,8.18c-2.53-.14-2.49-2.19-2.75-3.86a160.73,160.73,0,0,1-2.41-22.17c-.2-11.21-1.92-22.38-1.32-33.58.66-12.12.72-24.25,1.53-36.38a461.51,461.51,0,0,1,7.5-56c3.59-18.63,8.75-36.89,16.47-54.36a299.48,299.48,0,0,1,16.84-31.59c2.08-3.51,5.31-6.24,6.75-10.15C272.55,334.5,273.67,334.66,274.74,334.57Z" transform="translate(-181 -200.55)"/><path class="cls-86" d="M271.59,335.2c1.32.9.64,1.72-.09,2.58-6.35,7.58-10.88,16.3-15.6,24.9-8.58,15.66-14.5,32.37-19.07,49.56A318.9,318.9,0,0,0,229,451.69c-1.57,11.63-3.29,23.24-4,35-.57,9.91-.49,19.85-1.3,29.69-.77,9.14,0,18.16.32,27.21.47,12.13,1,24.3,3,36.32.23,1.39.56,2.67,1.91,3.4l-2.25,8.93c-2-2.9-1.46-6.38-2.07-9.57-3-15.76-2.75-31.8-4-47.72-.89-11.42,0-22.78.38-34.11s1.35-22.64,2.85-33.91c1.77-13.37,3.6-26.72,6.49-39.87,2.42-11.05,5.07-22.09,9-32.78,3.2-8.75,6.49-17.46,10.82-25.68,4.66-8.86,9.85-17.44,14.91-26.08a30.54,30.54,0,0,1,3.48-4c.62-.73,1.79-1.37.66-2.57C269.81,335,270.8,335.41,271.59,335.2Z" transform="translate(-181 -200.55)"/><path class="cls-77" d="M784.19,402a8.86,8.86,0,0,0-.58,1.1c-5.56,14.56-17.11,19.92-32,14.87-5.64-1.9-11-4.65-16.94-5.63-8.77-1.45-16.58,2.1-19.55,9.06a18.06,18.06,0,0,0,.14,14.08,32.31,32.31,0,0,0,7.29,11.23,4.17,4.17,0,0,1,1.61.95c7.57,8.08,16.24,15.05,23.73,23.22a18.31,18.31,0,0,0,3.25,3.78,8,8,0,0,1,.82,1c1.09,1.6,2.34,3.09,3.43,4.71,9.33,13.53,11.32,28,5.71,43.51-4.4,11-11.43,19.67-21.73,25.64-11.32,6.85-23.81,9.56-36.83,10-16.7.61-32.69-2.41-47.54-10.39-1.26-.68-2.72-1.15-3.45-2.57a1,1,0,0,0-.2-.24c-5.86-4.15-5.86-4.14-1.93-10.27,7.33-11.43,17.16-14.56,29.79-9.39,6.18,2.53,12,5.94,18.72,7.12,5.11.9,10.2,1.26,15.25-.28,7.61-2.35,11.37-8.89,9.56-16.67s-7.13-13.64-12.51-19.25C702,489.11,693,481.35,685.67,472c-7-8.92-12.1-18.66-12.28-30.3-.34-22.38,11.52-39.67,32.89-47.89,15-5.76,30.57-6.73,46.41-4.66,1.24.16,2.49.27,3.74.4l10.08,2.5,7.49,2.69,6.39,2.77C781.77,398.92,785.25,398.57,784.19,402Z" transform="translate(-181 -200.55)"/><path class="cls-87" d="M532.37,684c2.46-2.93,6.23-3.47,9.45-4.87q20.7-9,40.48-19.81c.76-.42,1.68-.82,2-1.84-.92-1.14-2.53,0-3.42-1,7.7.35,15.39.88,23.09,1,12.21.21,24.43.16,36.65.22.89,2-.84,2.6-1.93,3.35q-13.59,9.32-27.83,17.64c-8.31,4.84-16.8,9.36-25.2,14.06a5.9,5.9,0,0,1-1.5.32c-5.38,0-10.59-1.49-15.93-1.82-7.12-.91-14.16-2.34-21.26-3.43-1.24-.19-2.48-.3-3.72-.4a52.55,52.55,0,0,1-8.15-1.65C534,685.48,532.85,685.28,532.37,684Z" transform="translate(-181 -200.55)"/><path class="cls-77" d="M702.37,345.37l2.4,3.15c3.4,3.75,3.22,8.37,2.61,12.8-1.44,10.51-6.48,18.91-15.74,24.44-2.11,1.26-4.31,2.62-7,1.93-2.06,0-4.13.87-6.2,0-1-.42-2.12-.77-1.17-2.18,2.75-4.07,1.94-8.43.92-12.74-.88-3.77-1.95-7.49-2.95-11.23a50,50,0,0,1,.34-7.47c1.21-6.56,5.37-10.6,11.64-12.58A16.48,16.48,0,0,1,702.37,345.37Z" transform="translate(-181 -200.55)"/><path class="cls-88" d="M585.88,692.22c1.94-2.15,4.65-3.14,7.09-4.44a511.62,511.62,0,0,0,45.86-27.69c.88-.61,1.73-1.2,1.8-2.4,6.26-.17,12.5-1,18.78-.77,1.23-.61,2.61.07,3.84-.46,2.77,0,5.44-1,8.23-.71-1.19,3.22-4.39,4.35-6.81,6.11A493.94,493.94,0,0,1,620,691.29c-1.21.7-2.66,1.33-3.27,2.81-2.67,1.74-5.63.71-8.45.89a11.1,11.1,0,0,1-2.23-.23c-2.28-.7-4.62-.36-6.94-.37-3,.16-6-.79-9-.67a9.93,9.93,0,0,1-2.05-.28A3.85,3.85,0,0,1,585.88,692.22Z" transform="translate(-181 -200.55)"/><path class="cls-72" d="M307.56,489.5c2.19-9.67,4.32-19.36,6.58-29q11.08-47.3,22.24-94.55a20.08,20.08,0,0,0-.4-11.11c3.84,1.47,5.07,4.83,5.57,8.39a20.75,20.75,0,0,1-.47,7.78q-8.2,34.22-16.21,68.47-5.81,24.66-11.54,49.33a8.47,8.47,0,0,1-.62,1.38A5,5,0,0,1,307.56,489.5Z" transform="translate(-181 -200.55)"/><path class="cls-72" d="M637.3,503.94q8.12-34.44,16.27-68.89c3-12.7,6.11-25.37,9.17-38.06,5.67,0,5.66,0,4.35,5.53q-7.44,31.35-14.88,62.7c-3.05,12.89-6,25.79-9.05,38.68a7.1,7.1,0,0,1-.63,1.38C640.77,504.92,638.83,505.23,637.3,503.94Z" transform="translate(-181 -200.55)"/><path class="cls-72" d="M468.88,498.33c3.18-13.85,6.31-27.72,9.56-41.55q6.82-29,13.81-58a18.8,18.8,0,0,1,.6-1.79c5.79,0,5.74,0,4.39,5.59q-8.83,36.81-17.6,73.63c-1.7,7.18-3.06,14.43-5.17,21.51C472.72,499,470.73,498,468.88,498.33Z" transform="translate(-181 -200.55)"/><path class="cls-72" d="M550.39,496.38q8.16-34.62,16.32-69.24c2.38-10.06,4.88-20.1,7.32-30.15,5.78,0,5.76,0,4.42,5.58q-9.13,38-18.22,76.09c-1.47,6.16-2.5,12.42-4.55,18.44C553.84,497.42,552,497.79,550.39,496.38Z" transform="translate(-181 -200.55)"/><path class="cls-89" d="M651.53,546.64a94.49,94.49,0,0,0,37.08,11.68c17.89,1.68,35-.6,50.9-9.6,3.91-1.05,6.73-.4,8.13,1.86-9,6.89-19.35,10.35-30.5,12-17.63,2.67-34.5.17-50.93-6.34a67.34,67.34,0,0,1-13.94-7.8C651.71,548.09,650.54,547.75,651.53,546.64Z" transform="translate(-181 -200.55)"/><path class="cls-89" d="M583.45,536.25l-2.76,11.82c-8.06,7.4-17.22,12.82-28.12,14.73-12.22,2.13-23.87,1-34.21-6.67-.79-.59-2.1-1-1.74-2.46,18.86,10.36,47.3,5.84,64.12-16l2.09-2.74C584.05,534.89,583.58,535.65,583.45,536.25Z" transform="translate(-181 -200.55)"/><path class="cls-72" d="M684.63,387.69c14.86-3.6,22.69-19.33,22.23-30.7a26.93,26.93,0,0,0-2.09-8.47,13.17,13.17,0,0,1,5.76,7.59c3,8.95,0,16.87-4.61,24.24a26.14,26.14,0,0,1-15,11.6,15,15,0,0,1-4.92.65c-1.53-.08-3.61.44-4.13-1.34S683.19,388.51,684.63,387.69Z" transform="translate(-181 -200.55)"/><path class="cls-90" d="M437.83,554.35c17.08,7.74,33.16,5.66,48.38-4.92.42-.29.89-.53,1.33-.79,2.67-.07,5.55-1.26,7.75,1.34-9.56,9.88-21.46,14-34.94,13.73-7.14-.17-14.07-1.78-20-6.26C439.34,556.65,437.74,556.16,437.83,554.35Z" transform="translate(-181 -200.55)"/><path class="cls-91" d="M349.22,552.25c16.85,9.76,33.81,8.19,50.81.47l2-.9c2.22-.86,4.48-.32,6.71-.07,1,.1,2.16.42,1.52,2-7.8,5.86-16.61,8.6-26.3,9.63a48.26,48.26,0,0,1-24.71-3.45C355.33,558.2,351.64,556,349.22,552.25Z" transform="translate(-181 -200.55)"/><path class="cls-92" d="M747.64,550.58c-2.38-2-5.45-1.1-8.13-1.86a52.91,52.91,0,0,0,20.79-24.57c2.05-1.29,3.92-1.19,5.62.63-.69,4.08-2.55,7.71-4.43,11.33-3.29,4.82-6.76,9.48-11.33,13.22C749.29,549.68,748.75,550.7,747.64,550.58Z" transform="translate(-181 -200.55)"/><path class="cls-93" d="M571.39,659.32c-.45-1.66-1.83-.92-2.85-1.09-2.18-.36-4.52.74-6.6-.68a108.17,108.17,0,0,0,22.67-16.32c2.74-.67,5.36-.58,7.67,1.29-4.39,5.31-9.82,9.44-15.22,13.61Z" transform="translate(-181 -200.55)"/><path class="cls-94" d="M296,537.91q3.54-14.77,7.07-29.55c1.9-1.07,3.61-.61,5.2.68a302.76,302.76,0,0,1-6.92,29.61C299.52,539,297.65,539.36,296,537.91Z" transform="translate(-181 -200.55)"/><path class="cls-95" d="M410.25,553.71c-.13-1.11-.9-1.3-1.79-1.22a24.45,24.45,0,0,1-6.44-.67,64.93,64.93,0,0,0,20.68-22c.78,3.06,1.44,5.62,2.1,8.18A43.2,43.2,0,0,1,410.25,553.71Z" transform="translate(-181 -200.55)"/><path class="cls-96" d="M419.13,604.11l-6.91-1.25c5.89-7.14,8.29-15.44,8.21-24.56,4-2.3,4.16-2.16,4.34,2.46.28,7.26,0,14.39-3.83,20.87C420.41,602.52,420.16,603.6,419.13,604.11Z" transform="translate(-181 -200.55)"/><path class="cls-97" d="M592.28,642.52l-7.67-1.29a145.67,145.67,0,0,0,14.47-17c2.25,0,4.95-1.49,6.27,1.8C601.57,632,597.68,637.85,592.28,642.52Z" transform="translate(-181 -200.55)"/><path class="cls-90" d="M296,537.91c1.76.43,3.72-.6,5.35.74q-2.52,11.26-5,22.53a8.84,8.84,0,0,1-.6,1.39c-2,1.23-3.73.8-5.33-.73Q293.23,549.89,296,537.91Z" transform="translate(-181 -200.55)"/><path class="cls-98" d="M468.88,498.33c1.63-2.38,3.78.08,5.59-.61-1.3,6.95-3.23,13.8-3.59,20.9-.11,2.23.68,4.5,1.06,6.76-4.13-1.71-5.35-5.26-5.63-9.25C465.88,510,467.21,504.15,468.88,498.33Z" transform="translate(-181 -200.55)"/><path class="cls-99" d="M605.35,626c-1.58-2.37-4.46-.26-6.27-1.8,3.52-5.78,7-11.57,10-17.65a4.51,4.51,0,0,1,4.35-.57c1.12.39,2,1,1.4,2.49A81.58,81.58,0,0,1,605.35,626Z" transform="translate(-181 -200.55)"/><path class="cls-98" d="M550.39,496.38c1.74.41,3.67-.6,5.29.72-.25,5.08-2,9.9-2.71,14.93a35.86,35.86,0,0,0,.77,12.88c-4-1.88-5.25-5.45-5.64-9.43C547.45,509,548.74,502.64,550.39,496.38Z" transform="translate(-181 -200.55)"/><path class="cls-100" d="M621.85,569.46c1.65-7.81,3.37-15.6,5.58-23.28,3.21-1.48,4.52-1.14,5,1.28a161.78,161.78,0,0,1-5,21.4C625.57,569,623.71,569.19,621.85,569.46Z" transform="translate(-181 -200.55)"/><path class="cls-101" d="M637.3,503.94c1.74.46,3.94-.88,5.23,1.34q-2.21,10-4.41,20a6.68,6.68,0,0,1-.63,1.36c-2,.34-3.84.42-5.27-1.34Q634.75,514.64,637.3,503.94Z" transform="translate(-181 -200.55)"/><path class="cls-102" d="M495.29,550c-2.41-1.47-5.35.18-7.75-1.34a76.22,76.22,0,0,0,14.88-18.14c.86,3.23,1.59,6,2.31,8.69A48.12,48.12,0,0,1,495.29,550Z" transform="translate(-181 -200.55)"/><path class="cls-103" d="M614.83,608.5c-1-3.46-3.85-1.22-5.75-1.92q3.84-9.42,7.66-18.85c2-1,4-1.93,5.65.64C620.38,595.27,618.29,602.14,614.83,608.5Z" transform="translate(-181 -200.55)"/><path class="cls-104" d="M632.22,525.33c1.66.83,3.68.26,5.27,1.34a164.33,164.33,0,0,1-5,20.79c-1.14-2.56-3.39-.74-5-1.28Q629.82,535.76,632.22,525.33Z" transform="translate(-181 -200.55)"/><path class="cls-105" d="M622.39,588.37c-1.76-1.28-3.77-.36-5.65-.64q2.55-9.13,5.11-18.27c1.69-1.84,3.59-1.62,5.59-.6C626.18,575.47,624.91,582.08,622.39,588.37Z" transform="translate(-181 -200.55)"/><path class="cls-106" d="M308.3,509l-5.2-.68c1.2-6.36,2.64-12.65,4.46-18.86a14.28,14.28,0,0,1,5.15.67A118.56,118.56,0,0,1,308.3,509Z" transform="translate(-181 -200.55)"/><path class="cls-107" d="M290.41,561.84c1.8.11,3.48,1,5.33.73-1.52,5.08-1.65,10.51-3.7,15.47-5.65.58-5.66.58-4.39-4.8C288.55,569.44,289.49,565.64,290.41,561.84Z" transform="translate(-181 -200.55)"/><path class="cls-108" d="M447.8,405.78c-.22,1.19-.45,2.39-.68,3.58-1.67-3.16-3.23-6.19-4.91-9.17C444.87,401.26,445.55,404.31,447.8,405.78Z" transform="translate(-181 -200.55)"/><path class="cls-56" d="M633.12,363.51l1.21-.53,11.39.06C641.54,363.92,637.32,363.46,633.12,363.51Z" transform="translate(-181 -200.55)"/><path class="cls-40" d="M585.73,362.43l3.92-.08c1,.18,2.19-.35,3.11.54C590.41,362.86,588,363.21,585.73,362.43Z" transform="translate(-181 -200.55)"/><path class="cls-55" d="M653.29,362.84c1.84-.95,3.81-.27,5.71-.42C657.15,363.21,655.2,362.88,653.29,362.84Z" transform="translate(-181 -200.55)"/><path class="cls-38" d="M556.85,360.52c1.47.14,3-.51,4.44.47C559.79,361,558.26,361.26,556.85,360.52Z" transform="translate(-181 -200.55)"/><path class="cls-68" d="M663.25,656.46c-1.18.94-2.55.36-3.84.46C660.61,656.06,662,656.44,663.25,656.46Z" transform="translate(-181 -200.55)"/><path class="cls-63" d="M524.69,357.39c1.1.06,2.27-.42,3.24.47A5.26,5.26,0,0,1,524.69,357.39Z" transform="translate(-181 -200.55)"/><path class="cls-109" d="M645.68,694.1c2.52.8,3.32,2.64,2,5.26-1.55,3.16-3.53,6.12-3.47,9.87a3.06,3.06,0,0,1-1.15,2.14c-2.61,1.88-2.67,4.51-2.46,7.28-2.86,1.33-5.88.31-8.82.64h-3.14a19.24,19.24,0,0,1-7.56,0h-.62c-.73-.88-.37-1.81,0-2.68,1.29-3.64,2.43-7.42,4.29-10.76a46.3,46.3,0,0,0,4.1-10.79c.24-.46.71-.65,1.1-.95Z" transform="translate(-181 -200.55)"/><path class="cls-110" d="M629.31,694.74a22.09,22.09,0,0,1-3,9.92,74.13,74.13,0,0,0-5.81,14.62c-5.9.45-11.75-.66-17.63-.63h0c-.93-.77-2.2.11-3.15-.62h-3.78c-1.07-1.38-.22-2.63.41-3.75,2.67-4.66,4.53-9.78,8.18-13.9,1.56-1.77,2.06-4.27,3.38-6.27H620.5C623.39,695,626.42,693.87,629.31,694.74Z" transform="translate(-181 -200.55)"/><path class="cls-50" d="M621.12,719.28h7.56A9.86,9.86,0,0,1,621.12,719.28Z" transform="translate(-181 -200.55)"/><path class="cls-111" d="M607.91,694.11c.06,3.1-1.83,5.35-3.45,7.68A60.17,60.17,0,0,0,595.94,718l-16.36-2.53a5,5,0,0,1-3.14-.62,73.8,73.8,0,0,1,5.67-10.64c1.65-2.77,3.92-5.17,4.83-8.4.37-1.31,1.7-2.08,2.71-3,3.19-.42,6.26.93,9.44.62,2.25.88,4.68-.21,6.93.63Z" transform="translate(-181 -200.55)"/><path class="cls-51" d="M599.72,718c1.06.15,2.27-.42,3.15.62C601.81,718.51,600.61,719.08,599.72,718Z" transform="translate(-181 -200.55)"/><path class="cls-112" d="M589.65,692.85q-6.1,11.31-13.21,22c-6.33,0-12.15-2.65-18.31-3.48-.82-.11-1.64-.2-2.47-.3l-2.52-.63c-.78-1,0-1.77.47-2.5,4-5.78,8.54-11.23,13.07-16.62.41-.49,1.09-.61,1.56-1,5.5.26,10.84,1.91,16.38,1.89.93.77,2.2-.11,3.15.63Z" transform="translate(-181 -200.55)"/><path class="cls-113" d="M460,684c1.57-3.88,2.76-8.09,7.57-9.36,2-.52,2.76-2,3.12-3.83,4.93.33,9.54,2,14.24,3.32a23,23,0,0,0,2.76.44c1,.56,1.38,1.53.59,2.3-2.11,2.08-2.77,5.45-5.92,6.6-1.39.51-1.86,1.86-2.5,3.06a5.45,5.45,0,0,1-2.24,2.51h-1.89l-5.67-1.89C466.7,686.13,463.34,685.09,460,684Z" transform="translate(-181 -200.55)"/><path class="cls-114" d="M477.61,689.07c1.51-2.71,2.7-5.37,5.71-7.26,2.09-1.31,4.63-3.78,4.36-7.21,4.65,1.06,9.4,1.75,13.9,3.43a10.51,10.51,0,0,0,2.46.35,3.15,3.15,0,0,1-1,3.38c-2.2,2.2-3.42,5.18-5.92,7.14-1.72,1.36-1.57,4.12-3.74,5.2l-8.18-2.51H483.9C481.9,690.51,479.5,690.43,477.61,689.07Z" transform="translate(-181 -200.55)"/><path class="cls-115" d="M568.24,690.33q-7.07,9.12-14.16,18.24a3,3,0,0,0-.94,1.9q-7.54-1.89-15.1-3.78c-2.63-.18-5-1.29-7.56-1.88-1.18-1.89.14-3.11,1.21-4.35,2.64-3,4.75-6.53,8-9.11,1.53-1.21,2.34-3.14,3.41-4.79,6.33.31,12.47,2,18.73,2.78C564,689.61,566.1,690,568.24,690.33Z" transform="translate(-181 -200.55)"/><path class="cls-116" d="M543.07,686.56c.1,3.36-2.63,4.87-4.48,7-3.09,3.48-6.7,6.59-8.11,11.28-2.53-.59-4.92-1.71-7.55-1.89l-12-3.78c-.69,0-1.42.11-1.88-.62-.8-2.19.82-3.77,1.95-4.83,3.67-3.45,6.34-7.64,9.38-11.55,4.09,0,7.9,1.71,12,1.89A63.29,63.29,0,0,0,543.07,686.56Z" transform="translate(-181 -200.55)"/><path class="cls-57" d="M584.62,256.63c3.78,2.95,6.79,6.51,8,11.21,1.82,6.8,5.52,12.79,7.93,19.33,3.15,8.58,6.48,17.1,9.81,25.61.91,2.32,2.11,4.53,3.17,6.79-3.32.67-4.24-1.62-5.21-4.08C603,302,596.74,288.79,591.91,275,589.73,268.8,588.23,262.29,584.62,256.63Z" transform="translate(-181 -200.55)"/><path class="cls-57" d="M575.17,245.93c2.24,1.39,3.31,3.83,5,5.66C577.35,250.75,576.44,248.18,575.17,245.93Z" transform="translate(-181 -200.55)"/><path class="cls-57" d="M580.21,251.59c1.71,1.47,3.74,2.65,4.41,5C582.91,255.16,580.87,254,580.21,251.59Z" transform="translate(-181 -200.55)"/><path class="cls-117" d="M520.41,682.14c-.17,2.3-1.62,4-3,5.53-1.92,2.12-3.33,4.63-5.8,6.36-1.25.9-1.69,3-2.51,4.49-5.25-.75-10-3-15.11-4.41h-.63c1.55-4.63,5.17-7.83,8.1-11.47a27,27,0,0,0,2.6-4.25A147.55,147.55,0,0,1,520.41,682.14Z" transform="translate(-181 -200.55)"/><path class="cls-88" d="M629.31,694.74c-2.93-.32-6,.69-8.81-.64h9.44Z" transform="translate(-181 -200.55)"/><path class="cls-46" d="M747.36,471.36c-8.06-8.43-17.25-15.7-24.83-24.61,1.14-1.27-.39-1.86-.78-2.63-3.54-7-4.88-14-.09-21,2.75-4,6.79-5.62,11.46-6,7-.57,13.4,1.38,19.57,4.43,1.32.84,1.49,2.23,1.51,3.59.17,11.49,1.37,22.94,1.34,34.44,0,4.91-.88,9.78-.7,14.71,0,1,0,2.21-1.13,2.74-1.31.64-1.63-1-2.58-1.28l-.39-.56A13.37,13.37,0,0,0,747.36,471.36Z" transform="translate(-181 -200.55)"/><path class="cls-85" d="M751.13,475.76c2.07,1.25,3,1,2.86-1.76-.39-7,1.19-14,.55-21-.94-10.47-.53-21-1.85-31.47,2.92.88,5.75,2.08,8.81,2.52,1.77.44,2.12,1.79,2.19,3.35.37,7.81,1.25,15.65,1.1,23.43-.2,10.94-.41,21.9-1.14,32.84a5.21,5.21,0,0,1-1.48,3.68c-1.91,1.18-2.6-.47-3.37-1.58a33.66,33.66,0,0,0-4.31-5.62Z" transform="translate(-181 -200.55)"/><path class="cls-69" d="M760.88,487.64a3.84,3.84,0,0,0,1.86-3.73c-.3-6.9,1-13.74.69-20.64-.14-3.22.29-6.46.4-9.66a157.24,157.24,0,0,0-.88-18.39c-.21-2.62-.15-5.22-.16-7.82a3.77,3.77,0,0,0-1.29-3.32c2.09.29,4.14.86,6.29.61,3-.35,3.28-.13,3.45,3.07.57,10.64,1.46,21.22.84,31.93-.69,11.81-1.2,23.6-2.73,35.33-.23,1.85-.27,3.8-1.88,5.16a1.3,1.3,0,0,1-2-.87c-1.3-3.73-3.13-7.21-4.77-10.77A1.12,1.12,0,0,1,760.88,487.64Z" transform="translate(-181 -200.55)"/><path class="cls-86" d="M766.54,500.23c1.85-1,1.66-3,1.78-4.43.65-8,1.86-15.92,2.15-24,.26-7.39.9-14.8,1-22.18.08-7.71-.78-15.41-1.13-23.12-.08-1.93-1.25-1.85-2.54-1.84,1.92-1.28,4.33-.16,6.3-1.25.82,5.58.44,11.23,1.13,16.83.54,4.44-.35,9-.36,13.43,0,8.06-.37,16.11-.91,24.12-.73,10.67-2.43,21.27-3.78,31.89a19.56,19.56,0,0,1-1.16,3.57c0,.08-.11.14-.16.21l-.43-.68C766.37,508.83,766.27,504.56,766.54,500.23Z" transform="translate(-181 -200.55)"/><path class="cls-118" d="M766.54,500.23c1.2,4.11,1.26,8.39,1.88,12.58-1.28,2.61-.3,5.53-1.2,8.22-.42,1.25-.4,2.66-1.3,3.75a15.05,15.05,0,0,0-5.62-.63c3.68-11.1,4.38-22.18-.09-33.27a87.18,87.18,0,0,0-5.72-10.7c2.12.14,2.43,2.26,3.62,3.41a23.33,23.33,0,0,1,2.77,4.05A48.51,48.51,0,0,1,766.54,500.23Z" transform="translate(-181 -200.55)"/><path class="cls-119" d="M767.92,577.65c-1.63,1.45-2.79.58-3.85-.78-1.61-.91-1-3.6-3.19-4-.87,1.74.16,3.71-.62,5.46-1.52.16-2.58,0-2.45-2.07a85.71,85.71,0,0,0,0-8.78c-.08-1.84.6-2.43,2.35-2.27s3.34.14,5,.2A3.54,3.54,0,0,1,768,569c.06,2.19-1.31,3.14-3.17,3.93Z" transform="translate(-181 -200.55)"/><path class="cls-76" d="M760.26,578.29c.67-1.77-.37-3.73.62-5.46C760.6,574.65,761.52,576.58,760.26,578.29Z" transform="translate(-181 -200.55)"/><path class="cls-46" d="M431,419.12c3.33,4.38,4,9.59,4.28,14.81.7,12.26-1.53,24.2-4.32,36.05-3,12.64-6.58,25.09-12.55,36.72-3,5.91-6.6,11.44-11.94,15.58-6.76,5.25-15,6-21.29,1.86-2.8-4.37-3-9.35-2.77-14.19a98.26,98.26,0,0,1,1.33-14.31A178.36,178.36,0,0,1,390.59,466c3.94-12.31,8.85-24.18,16.43-34.78,3.19-4.45,6.75-8.55,11.61-11.29A14.28,14.28,0,0,1,431,419.12Z" transform="translate(-181 -200.55)"/><path class="cls-46" d="M569.55,594c-2.88,12.22-5.68,24.48-13.07,35-6.91,9.84-16.05,16.1-28.34,16.92-5.15.35-10.23-.08-14.64-3.27-2.87-5.53-1.57-13,3.42-18.74,1.9-2.19,3.9-4.31,6-6.35,5.12-3.57,10.41-6.85,15.66-10.22a30.09,30.09,0,0,1,5.54-2.82c7.16-3.5,14.32-7,21.66-10.07C567,593.9,568.14,592.92,569.55,594Z" transform="translate(-181 -200.55)"/><path class="cls-72" d="M431,419.12c-1.12.91-2.22-.05-3.26-.17-8.42-.9-13.54,4.33-18,10.06-11.19,14.37-17,31.19-21.59,48.58-1.52,5.82-2.27,11.79-3.72,17.61-1.81.27-3.58.4-4.88-1.26a167.34,167.34,0,0,1,14.68-51.89c3.8-8.18,8.24-16,14.88-22.28,3.48-3.3,7.33-5.92,12.44-5.77C425.58,414.11,428.84,415.62,431,419.12Z" transform="translate(-181 -200.55)"/><path class="cls-103" d="M569.55,594c-5.13,1.41-9.73,4.07-14.58,6.15-3.62,1.56-7.11,3.44-10.65,5.18-1.5-.92-3.2-.83-4.84-1-1.36-.14-2.75-.2-3.57-1.56,11.24-6.53,23.25-11.37,35.48-16.61A25.25,25.25,0,0,1,569.55,594Z" transform="translate(-181 -200.55)"/><path class="cls-120" d="M535.91,602.72a14.81,14.81,0,0,0,5.21.77c1.35,0,2.78,0,3.2,1.79-6.53,2.85-12.24,7.08-18.13,11-.87.57-1.76,1.09-2.64,1.64-1.45-.08-2.86.55-4.31.17-1.25-.33-2.81-.33-2.71-2.28C522.24,610.33,528.9,606.27,535.91,602.72Z" transform="translate(-181 -200.55)"/><path class="cls-121" d="M516.53,615.81c.9,1.44,2.34,1.47,3.8,1.52,1.1,0,2.3-.41,3.22.59-4,4.56-9,8.37-10.33,14.83a25.93,25.93,0,0,0,.28,9.86c-5.32-3.7-7-9.19-4.68-16A23.45,23.45,0,0,1,516.53,615.81Z" transform="translate(-181 -200.55)"/><path class="cls-98" d="M379.57,493.94c1.51.88,3.44.12,4.88,1.26-.39,4.44-.79,8.89-1.16,13.33a41.4,41.4,0,0,0,1.2,12.35c.24,1.09,1.07,2,.71,3.26-4.51-2.89-5.87-7.5-6.33-12.37A70.57,70.57,0,0,1,379.57,493.94Z" transform="translate(-181 -200.55)"/><path class="cls-122" d="M583.45,536.25c-.2-.44-.42-.89-.62-1.34.15-.48.62-1.29.84-1.07C584.42,534.59,584,535.48,583.45,536.25Z" transform="translate(-181 -200.55)"/><path class="cls-46" d="M241.6,528.66c-1.39-5.69-.53-11.48-.61-17.22-.07-4.59.27-9.19.58-13.78.78-11.22,1.62-22.41,2.91-33.6,1.39-12.12,3.15-24.17,5.43-36.1a276.7,276.7,0,0,1,7.53-30.68,257.42,257.42,0,0,1,18.05-43,18.91,18.91,0,0,1,3.25-4.56c1.64,7.66.59,15.25-1.09,22.7Q266.19,423.23,254.42,474q-6.07,26.47-12.22,52.92C242.05,527.5,241.8,528.08,241.6,528.66Z" transform="translate(-181 -200.55)"/><path class="cls-85" d="M747.36,471.36c1.71.76,3.15,1.77,3.38,3.84A15.87,15.87,0,0,1,747.36,471.36Z" transform="translate(-181 -200.55)"/><path class="cls-111" d="M587.77,692.85c-1.07-.15-2.27.41-3.15-.63h1.26C586.57,692.24,587.31,692.11,587.77,692.85Z" transform="translate(-181 -200.55)"/><path class="cls-110" d="M606,694.1c-2.3-.33-4.72.72-6.93-.63C601.4,693.81,603.81,692.76,606,694.1Z" transform="translate(-181 -200.55)"/><path class="cls-123" d="M761.92,567c1.9.15,3.29.34,3.24,2s-1.46,1.7-2.75,1.79c-1.45.11-2-.35-2-1.9S761.11,566.83,761.92,567Z" transform="translate(-181 -200.55)"/></svg>