<svg width="457" height="404" xmlns="http://www.w3.org/2000/svg" xmlns:xlink="http://www.w3.org/1999/xlink" xml:space="preserve" overflow="hidden"><defs><clipPath id="clip0"><rect x="169" y="178" width="457" height="404"/></clipPath></defs><g clip-path="url(#clip0)" transform="translate(-169 -178)"><path d="M357.944 775.132 349.967 793.562 345.753 793.562 337.8 775.132 342.408 775.132 348.016 788.299 353.705 775.132 357.944 775.132Z" fill="#606060" transform="matrix(1 0 0 1.00034 -11.6733 -33.1035)"/><path d="M371.923 787.43 361.207 787.43C361.601 789.192 363.101 790.266 365.257 790.266 366.582 790.321 367.87 789.826 368.816 788.897L370.996 791.266C369.685 792.767 367.717 793.562 365.151 793.562 360.232 793.562 357.075 790.479 357.075 786.265 357.075 782.051 360.355 778.977 364.626 778.977 368.791 778.977 372.005 781.764 372.005 786.356 372.005 786.667 371.956 787.118 371.931 787.462M361.158 785.06 368.119 785.06C367.781 783.133 365.945 781.846 364.018 782.184 362.549 782.441 361.399 783.591 361.142 785.06" fill="#606060" transform="matrix(1 0 0 1.00034 -11.6733 -33.1035)"/><path d="M373.686 786.249C373.686 781.986 376.965 778.96 381.581 778.96 384.557 778.96 386.902 780.247 387.927 782.568L384.737 784.273C384.133 783.073 382.9 782.32 381.556 782.33 379.39 782.429 377.713 784.266 377.813 786.432 377.905 788.46 379.528 790.083 381.556 790.176 382.905 790.196 384.144 789.436 384.737 788.225L387.927 789.963C386.902 792.226 384.557 793.546 381.581 793.546 376.973 793.546 373.686 790.512 373.686 786.249" fill="#606060" transform="matrix(1 0 0 1.00034 -11.6733 -33.1035)"/><path d="M399.642 792.668C398.641 793.292 397.476 793.603 396.297 793.562 392.952 793.562 391.009 791.849 391.009 788.479L391.009 782.658 388.82 782.658 388.82 779.501 391.009 779.501 391.009 776.05 395.109 776.05 395.109 779.501 398.634 779.501 398.634 782.658 395.109 782.658 395.109 788.397C394.978 789.293 395.6 790.125 396.496 790.255 396.62 790.273 396.746 790.277 396.871 790.266 397.461 790.267 398.035 790.081 398.511 789.733Z" fill="#606060" transform="matrix(1 0 0 1.00034 -11.6733 -33.1035)"/><path d="M427.829 779.182 427.829 782.969C427.485 782.969 427.223 782.912 426.911 782.912 424.64 782.912 423.14 784.15 423.14 786.864L423.14 793.554 419.04 793.554 419.04 779.395 422.967 779.395 422.967 781.264C423.968 779.895 425.648 779.182 427.837 779.182" fill="#606060" transform="matrix(1 0 0 1.00034 -11.6733 -33.1035)"/><path d="M429.01 791.43 430.428 788.217C432.217 789.452 434.337 790.121 436.512 790.135 439.037 790.135 440.062 789.315 440.062 788.159 440.062 784.716 429.346 787.085 429.346 780.239 429.346 777.107 431.879 774.5 437.118 774.5 439.359 774.456 441.57 775.023 443.513 776.14L442.193 779.419C440.646 778.5 438.885 778 437.086 777.968 434.56 777.968 433.585 778.919 433.585 780.075 433.585 783.47 444.3 781.133 444.3 787.897 444.3 790.98 441.751 793.636 436.487 793.636 433.56 793.636 430.609 792.767 428.977 791.504" fill="#606060" transform="matrix(1 0 0 1.00034 -11.6733 -33.1035)"/><path d="M460.763 787.43 450.048 787.43C450.441 789.192 451.941 790.266 454.147 790.266 455.469 790.322 456.755 789.826 457.697 788.897L459.886 791.266C458.372 792.857 456.232 793.698 454.04 793.562 449.121 793.562 445.956 790.479 445.956 786.265 445.956 782.051 449.236 778.977 453.507 778.977 457.672 778.977 460.886 781.764 460.886 786.356 460.886 786.667 460.829 787.118 460.804 787.462M450.039 785.06 457.016 785.06C456.678 783.133 454.842 781.846 452.916 782.184 451.447 782.441 450.297 783.591 450.039 785.06" fill="#606060" transform="matrix(1 0 0 1.00034 -11.6733 -33.1035)"/><path d="M477.374 787.43 466.658 787.43C467.052 789.192 468.552 790.266 470.716 790.266 472.038 790.322 473.324 789.826 474.266 788.897L476.455 791.266C474.941 792.857 472.802 793.698 470.61 793.562 465.691 793.562 462.526 790.479 462.526 786.265 462.526 782.051 465.805 778.977 470.085 778.977 474.242 778.977 477.464 781.764 477.464 786.356 477.464 786.667 477.406 787.118 477.382 787.462M466.617 785.06 473.594 785.06C473.256 783.133 471.42 781.846 469.493 782.184 468.025 782.441 466.875 783.591 466.617 785.06" fill="#606060" transform="matrix(1 0 0 1.00034 -11.6733 -33.1035)"/><path d="M486.269 788.003 484.301 789.955 484.301 793.562 480.194 793.562 480.194 774.025 484.301 774.025 484.301 785.085 490.303 779.395 495.197 779.395 489.303 785.396 495.722 793.562 490.746 793.562 486.269 788.003Z" fill="#606060" transform="matrix(1 0 0 1.00034 -11.6733 -33.1035)"/><path d="M419.401 795.489 419.401 795.489 415.302 791.389C414.674 792.123 413.929 792.746 413.096 793.234 412.965 793.333 412.834 793.431 412.695 793.521L417.032 797.858C417.684 798.512 418.743 798.514 419.397 797.862 420.051 797.21 420.053 796.151 419.401 795.497" fill="#606060" transform="matrix(1 0 0 1.00034 -11.6733 -33.1035)"/><path d="M409.932 778.099C410.259 777.842 410.663 777.701 411.079 777.698L411.252 777.698C410.467 777.13 409.377 777.262 408.751 778.001L408.538 778.001C408.597 777.89 408.628 777.766 408.628 777.64 408.625 777.314 408.428 777.021 408.128 776.894 408.369 777.222 408.401 777.658 408.21 778.018 403.929 778.331 400.712 782.055 401.025 786.336 401.338 790.617 405.062 793.834 409.344 793.521 413.625 793.208 416.841 789.483 416.528 785.202 416.263 781.579 413.524 778.623 409.932 778.083M407.062 780.116C407.665 780.113 408.258 780.266 408.784 780.559 409.336 780.194 409.983 780 410.645 780.002 411.624 780.001 412.556 780.422 413.203 781.158 412.558 780.593 411.731 780.281 410.875 780.28 410.252 780.278 409.641 780.442 409.104 780.756 408.989 780.821 408.882 780.895 408.776 780.969L408.48 780.78C407.936 780.452 407.312 780.279 406.677 780.28 406.257 780.282 405.841 780.357 405.447 780.502 405.955 780.244 406.517 780.112 407.087 780.116M412.522 786.487C413.302 788.545 412.265 790.845 410.207 791.624 408.149 792.404 405.849 791.367 405.07 789.309 404.726 788.4 404.726 787.396 405.07 786.487 403.593 785.613 403.103 783.708 403.977 782.23 404.85 780.753 406.756 780.264 408.233 781.137 408.438 781.259 408.628 781.403 408.8 781.568 410.033 780.374 412 780.405 413.194 781.638 414.388 782.871 414.356 784.838 413.123 786.032 412.942 786.207 412.74 786.36 412.522 786.487" fill="#F84D10" transform="matrix(1 0 0 1.00034 -11.6733 -33.1035)"/><path d="M412.326 783.584C412.326 784.3 411.746 784.88 411.03 784.88 410.315 784.88 409.735 784.3 409.735 783.584 409.735 782.869 410.315 782.289 411.03 782.289 411.17 782.289 411.308 782.312 411.44 782.355 411.277 782.708 411.432 783.127 411.785 783.29 411.88 783.334 411.984 783.356 412.088 783.355 412.156 783.363 412.225 783.363 412.293 783.355 412.302 783.439 412.302 783.525 412.293 783.609" fill="#444444" transform="matrix(1 0 0 1.00034 -11.6733 -33.1035)"/><path d="M407.472 783.584C407.472 784.128 407.032 784.568 406.488 784.568 405.945 784.568 405.504 784.128 405.504 783.584 405.504 783.041 405.945 782.601 406.488 782.601 406.595 782.602 406.7 782.621 406.8 782.658 406.77 782.728 406.753 782.803 406.751 782.879 406.755 783.175 406.996 783.412 407.292 783.412 407.343 783.421 407.396 783.421 407.447 783.412 407.456 783.478 407.456 783.544 407.447 783.609" fill="#444444" transform="matrix(1 0 0 1.00034 -11.6733 -33.1035)"/><path d="M399.757 784.683 400.643 784.683 400.643 785.568 399.757 785.568Z" fill="#606060" transform="matrix(1 0 0 1.00034 -11.6733 -33.1035)"/><path d="M416.86 784.683 417.745 784.683 417.745 785.568 416.86 785.568Z" fill="#606060" transform="matrix(1 0 0 1.00034 -11.6733 -33.1035)"/><path d="M417.401 785.044 417.196 785.044C417.341 780.378 413.676 776.477 409.01 776.332 404.344 776.186 400.444 779.851 400.298 784.517 400.293 784.693 400.293 784.868 400.298 785.044L400.093 785.044C400.24 780.264 404.234 776.509 409.013 776.656 413.586 776.797 417.26 780.471 417.401 785.044" fill="#606060" transform="matrix(1 0 0 1.00034 -11.6733 -33.1035)"/><path d="M408.308 776.05 409.194 776.05 409.194 776.935 408.308 776.935Z" fill="#606060" transform="matrix(1 0 0 1.00034 -11.6733 -33.1035)"/><path d="M402.684 776.394 414.81 776.394 414.81 776.591 402.684 776.591Z" fill="#606060" transform="matrix(1 0 0 1.00034 -11.6733 -33.1035)"/><path d="M403.004 776.534C403.004 776.688 402.879 776.812 402.725 776.812 402.571 776.812 402.446 776.688 402.446 776.534 402.446 776.38 402.571 776.255 402.725 776.255 402.879 776.255 403.004 776.38 403.004 776.534" fill="#606060" transform="matrix(1 0 0 1.00034 -11.6733 -33.1035)"/><path d="M415.089 776.534C415.089 776.688 414.964 776.812 414.81 776.812 414.656 776.812 414.531 776.688 414.531 776.534 414.531 776.38 414.656 776.255 414.81 776.255 414.964 776.255 415.089 776.38 415.089 776.534" fill="#606060" transform="matrix(1 0 0 1.00034 -11.6733 -33.1035)"/><path d="M502.265 792.685C502.2 793.62 501.389 794.325 500.454 794.26 499.609 794.201 498.937 793.529 498.879 792.685 498.944 791.75 499.754 791.045 500.69 791.11 501.534 791.169 502.206 791.84 502.265 792.685Z" fill="#606060" transform="matrix(1 0 0 1.00034 -11.6733 -33.1035)"/><path d="M283.296 782.846 285.845 791.578 288.502 782.846 291.683 782.846 287.633 794.521 284.288 794.521 283.091 791.086 282.033 787.2 281 791.086 279.795 794.521 276.458 794.521 272.359 782.846 275.556 782.846 278.221 791.578 280.738 782.846Z" fill="#606060" transform="matrix(1 0 0 1.00034 -11.6733 -33.1035)"/><path d="M304.784 782.846 307.326 791.578 309.99 782.846 313.188 782.846 309.088 794.521 305.809 794.521 304.612 791.086 303.579 787.2 302.53 791.086 301.333 794.521 297.988 794.521 293.888 782.846 297.094 782.846 299.75 791.578 302.275 782.846Z" fill="#606060" transform="matrix(1 0 0 1.00034 -11.6733 -33.1035)"/><path d="M326.306 782.846 328.847 791.578 331.512 782.846 334.693 782.846 330.643 794.521 327.298 794.521 326.092 791.086 325.059 787.2 324.026 791.086 322.821 794.521 319.476 794.521 315.377 782.846 318.574 782.846 321.239 791.578 323.756 782.846Z" fill="#606060" transform="matrix(1 0 0 1.00034 -11.6733 -33.1035)"/><path d="M339.497 792.849C339.497 793.786 338.737 794.546 337.8 794.546 336.863 794.546 336.103 793.786 336.103 792.849 336.103 791.911 336.863 791.152 337.8 791.152 338.737 791.152 339.497 791.911 339.497 792.849Z" fill="#606060" transform="matrix(1 0 0 1.00034 -11.6733 -33.1035)"/><path d="M514.251 792.685C513.088 793.901 511.465 794.568 509.783 794.521 506.413 794.521 503.609 792.504 503.609 788.381 503.609 784.257 506.413 782.232 509.783 782.232 511.361 782.179 512.887 782.806 513.972 783.953L512.16 785.864C511.523 785.283 510.694 784.956 509.832 784.945 508.021 784.907 506.522 786.344 506.484 788.155 506.482 788.23 506.483 788.305 506.487 788.381 506.359 790.119 507.664 791.633 509.403 791.761 509.524 791.77 509.645 791.772 509.766 791.767 510.708 791.804 511.625 791.458 512.308 790.807Z" fill="#606060" transform="matrix(1 0 0 1.00034 -11.6733 -33.1035)"/><path d="M527.303 788.471C527.303 791.808 524.598 794.513 521.261 794.513 517.924 794.513 515.218 791.808 515.219 788.471 515.219 785.146 517.904 782.446 521.228 782.428 524.463 782.309 527.183 784.835 527.302 788.07 527.307 788.204 527.307 788.337 527.303 788.471ZM518.096 788.471C518.096 790.242 519.154 791.89 521.253 791.89 523.352 791.89 524.409 790.25 524.409 788.471 524.496 786.662 523.101 785.124 521.291 785.037 521.279 785.037 521.266 785.036 521.253 785.036 519.491 785.048 518.074 786.487 518.087 788.248 518.087 788.322 518.09 788.397 518.096 788.471Z" fill="#606060" transform="matrix(1 0 0 1.00034 -11.6733 -33.1035)"/><path d="M537.01 794.521 537.01 788.307C537.01 786.782 536.191 785.388 534.633 785.388 533.075 785.388 532.173 786.782 532.173 788.307L532.173 794.521 529.304 794.521 529.304 782.896 531.968 782.896 532.173 784.306C532.815 783.236 533.993 782.606 535.24 782.666 536.731 782.574 538.114 783.446 538.675 784.831 539.463 783.445 540.969 782.625 542.561 782.715 545.84 782.715 547.48 784.74 547.48 788.225L547.48 794.48 544.611 794.48 544.611 788.225C544.611 786.692 543.971 785.396 542.422 785.396 540.96 785.459 539.827 786.694 539.889 788.156 539.891 788.192 539.893 788.229 539.896 788.266L539.896 794.48Z" fill="#606060" transform="matrix(1 0 0 1.00034 -11.6733 -33.1035)"/><text fill="#606060" font-family="Arial,Arial_MSFontService,sans-serif" font-weight="400" font-size="15" transform="matrix(0.819863 0 0 0.820138 260.521 733)">D</text><text fill="#606060" font-family="Arial,Arial_MSFontService,sans-serif" font-weight="400" font-size="15" transform="matrix(0.819863 0 0 0.820138 268.843 733)">o</text><text fill="#606060" font-family="Arial,Arial_MSFontService,sans-serif" font-weight="400" font-size="15" transform="matrix(0.819863 0 0 0.820138 275.615 733)">wn</text><text fill="#606060" font-family="Arial,Arial_MSFontService,sans-serif" font-weight="400" font-size="15" transform="matrix(0.819863 0 0 0.820138 291.57 733)">l</text><text fill="#606060" font-family="Arial,Arial_MSFontService,sans-serif" font-weight="400" font-size="15" transform="matrix(0.819863 0 0 0.820138 294.013 733)">o</text><text fill="#606060" font-family="Arial,Arial_MSFontService,sans-serif" font-weight="400" font-size="15" transform="matrix(0.819863 0 0 0.820138 300.908 733)">a</text><text fill="#606060" font-family="Arial,Arial_MSFontService,sans-serif" font-weight="400" font-size="15" transform="matrix(0.819863 0 0 0.820138 307.122 733)">d </text><text fill="#606060" font-family="Arial,Arial_MSFontService,sans-serif" font-weight="700" font-size="15" transform="matrix(0.819863 0 0 0.820138 316.92 733)">P</text><text fill="#606060" font-family="Arial,Arial_MSFontService,sans-serif" font-weight="700" font-size="15" transform="matrix(0.819863 0 0 0.820138 324.208 733)">N</text><text fill="#606060" font-family="Arial,Arial_MSFontService,sans-serif" font-weight="700" font-size="15" transform="matrix(0.819863 0 0 0.820138 332.989 733)">G PSD</text><text fill="#606060" font-family="Arial,Arial_MSFontService,sans-serif" font-weight="700" font-size="15" transform="matrix(0.819863 0 0 0.820138 368.883 733)"> </text><text fill="#606060" font-family="Arial,Arial_MSFontService,sans-serif" font-weight="700" font-size="15" transform="matrix(0.819863 0 0 0.820138 371.219 733)">S</text><text fill="#606060" font-family="Arial,Arial_MSFontService,sans-serif" font-weight="700" font-size="15" transform="matrix(0.819863 0 0 0.820138 378.18 733)">V</text><text fill="#606060" font-family="Arial,Arial_MSFontService,sans-serif" font-weight="700" font-size="15" transform="matrix(0.819863 0 0 0.820138 386.174 733)">G EPS</text><text fill="#606060" font-family="Arial,Arial_MSFontService,sans-serif" font-weight="400" font-size="15" transform="matrix(0.819863 0 0 0.820138 420.337 733)">  </text><text fill="#606060" font-family="Arial,Arial_MSFontService,sans-serif" font-weight="400" font-size="15" transform="matrix(0.819863 0 0 0.820138 425.748 733)">F</text><text fill="#606060" font-family="Arial,Arial_MSFontService,sans-serif" font-weight="400" font-size="15" transform="matrix(0.819863 0 0 0.820138 431.807 733)">o</text><text fill="#606060" font-family="Arial,Arial_MSFontService,sans-serif" font-weight="400" font-size="15" transform="matrix(0.819863 0 0 0.820138 438.579 733)">r</text><text fill="#606060" font-family="Arial,Arial_MSFontService,sans-serif" font-weight="400" font-size="15" transform="matrix(0.819863 0 0 0.820138 443.048 733)">m</text><text fill="#606060" font-family="Arial,Arial_MSFontService,sans-serif" font-weight="400" font-size="15" transform="matrix(0.819863 0 0 0.820138 453.476 733)">a</text><text fill="#606060" font-family="Arial,Arial_MSFontService,sans-serif" font-weight="400" font-size="15" transform="matrix(0.819863 0 0 0.820138 459.625 733)">t</text><text fill="#606060" font-family="Arial,Arial_MSFontService,sans-serif" font-weight="400" font-size="15" transform="matrix(0.819863 0 0 0.820138 464.11 733)">s In</text><text fill="#606060" font-family="Arial,Arial_MSFontService,sans-serif" font-weight="400" font-size="15" transform="matrix(0.819863 0 0 0.820138 481.991 733)"> </text><text fill="#606060" font-family="Arial,Arial_MSFontService,sans-serif" font-weight="400" font-size="15" transform="matrix(0.819863 0 0 0.820138 484.336 733)">Si</text><text fill="#606060" font-family="Arial,Arial_MSFontService,sans-serif" font-weight="400" font-size="15" transform="matrix(0.819863 0 0 0.820138 493.846 733)">n</text><text fill="#606060" font-family="Arial,Arial_MSFontService,sans-serif" font-weight="400" font-size="15" transform="matrix(0.819863 0 0 0.820138 500.454 733)">g</text><text fill="#606060" font-family="Arial,Arial_MSFontService,sans-serif" font-weight="400" font-size="15" transform="matrix(0.819863 0 0 0.820138 507.546 733)">l</text><text fill="#606060" font-family="Arial,Arial_MSFontService,sans-serif" font-weight="400" font-size="15" transform="matrix(0.819863 0 0 0.820138 509.998 733)">e Zip</text><path d="M499.797 256.183C534.887 256.183 563.344 404.209 563.344 587.022L614.545 587.022C614.545 390.206 562.894 230.882 499.649 230.882 463.51 230.882 431.601 278.622 410.497 353.615 389.435 278.622 357.46 230.882 321.657 230.882 258.405 230.882 206.876 390.058 206.876 586.875L258.068 586.875C258.068 404.045 286.231 256.183 321.321 256.183 356.411 256.183 384.901 392.919 384.901 561.606L435.798 561.606C435.798 392.952 464.412 256.215 499.494 256.215" fill="#FFCC00" transform="matrix(1 0 0 1.00034 -11.6733 -33.1035)"/></g></svg>