<svg id="Layer_1" data-name="Layer 1" xmlns="http://www.w3.org/2000/svg" viewBox="0 0 619.07 638"><defs><style>.cls-1,.cls-2,.cls-3,.cls-4{fill-rule:evenodd;}.cls-2{fill:#fade2c;}.cls-3{fill:#fe0a0b;}.cls-4{fill:#2a9d49;}</style></defs><title>Pizza Hut Logo Vector</title><path class="cls-1" d="M489,458.29c-9.79,1.32-22.84,3.91-32.58.33-10.71-4-12.14-9.61-9.93-14.67a10.55,10.55,0,0,1,5.89-5.38c2.58-1,5.39-.41,8-.27,9,.27,18-1.37,26.53-3,7.06-1.26,15.25-3,22.63-3.89,6-.68,16.87-1.32,21.29-1.54,0,0,13.36-.69,16.74,7.37A17,17,0,0,1,547,449.1c-7.09,14.37-21.91,33.06-32.69,44.17-9.23,9.47-18.75,18.46-27.31,27.81l-5.64,5.69c5-1.81,18.29-3.12,28.82-4.44,18.86-2.23,61.24,3.95,64.93,4,19.19.82,33.61.18,49.43-7a5.83,5.83,0,0,1,7.72,1.59,4.89,4.89,0,0,1-1.81,6.89C612,544,587.8,545.78,564.46,547.6c-11.71.81-68.11,1.23-79.42,3.22-7.35,1.32-29.61,6.32-35.9,9.21-10.5,5-18.16,1.9-21.47-4.35a14,14,0,0,1-.71-10.8l1.35-3.13c6.4-14,18.31-25.34,29-35.34L474,490.31c13.35-12.74,27.07-25.88,39.06-37.06a179.32,179.32,0,0,1-24.09,5Z" transform="translate(-190.47 -181)"/><path class="cls-2" d="M396.24,818.86c14.69,1.21,28.65-5.61,41.56-12.28,76.46-39.59,128.25-65.24,210.34-101.1,27.58-12.06,54.53-19.77,81.91-29.57a3.81,3.81,0,0,0,2.78-4.35,3.51,3.51,0,0,0-4.37-2.63C608.28,680.9,500.35,738.27,394.1,791a14,14,0,0,0-12.88,15,13.86,13.86,0,0,0,15,12.83Z" transform="translate(-190.47 -181)"/><path class="cls-1" d="M683.21,540.44c1.39-7.71-1-11.7-4.15-13.67-3.89-2.6-9.61-.11-12.21,4.06-7.49,12.42-16.88,26.83-23.52,40.51-6.43,1.52-12.79,3.2-19.13,4.65-2,.4-6,.82-7.71,0-2.38-1.32-7.75-1.68-11.7,2.45S600.37,588,605.93,592c5.28,3.76,17.19,4.49,26.84,3.91-10.71,29.66-15.51,61.66-9.9,92.56,1.84,4.62,2.75,6.38,6,6.3a6.11,6.11,0,0,0,6.07-6.3c9.81-35.09,17.14-64.65,29.58-99.47a285.25,285.25,0,0,0,30.21-12.65c20.51-10.07,31.36-11.42,50-23.59,2.05-1.08,3.05-3.2,2.15-4.73s-3.12-2-5.15-1c-22.44,6-45,9.89-67.52,16.32,2.63-6.43,7.71-15.35,9-22.9Z" transform="translate(-190.47 -181)"/><path class="cls-1" d="M415.83,451.13c-15.72,28.66-45,58.73-35.56,93.93,1.46,5.32,5.81,10.25,10.76,14.06.77.64,6.36,3.18,9.91,1.31s2.35-7.07,2.86-9.32c7.95-34.39,37.65-68.22,25.55-104.15-1.35-4.13-3.32-5-6.8-4.86-5.3.33-5.52,7-6.72,9Z" transform="translate(-190.47 -181)"/><path class="cls-1" d="M577.21,595.76a224.68,224.68,0,0,1-11.34,21.47c-13.07,17.54-30,30.88-48.1,43.31,3.47-12.22,6.61-24.92,3.09-37.46,0,0-1.25-7.75-10-14.8a15.42,15.42,0,0,0-7.17-3,41.08,41.08,0,0,0-16.48,1.41c-3.05.64-5.56,2.76-5.78,5-.27,3.73,3.69,4.43,5.21,5.27,8.83,5.13,7.7,9.74,7.7,9.74-2.43,16.06-10.64,30.7-9.67,47.36a23.81,23.81,0,0,0,1.84,7.63,21.21,21.21,0,0,0,8.39,10.32c6.62,3.66,12.1,2.62,12.1,2.62,26.39-6,42.18-25.9,56.07-47.74,1.09,15,6.94,29.66,21.84,36.46,4,1.35,6.57,2.36,9.13-.27,2.31-2.53,1.76-3.86.62-8.21-3.47-20.56-3.74-42.67.39-63.73l.31-1.58s2.08-11.48-1.19-16.55a8.36,8.36,0,0,0-6-4.69s-7.18-.9-11,7.53Z" transform="translate(-190.47 -181)"/><path class="cls-1" d="M567.33,407.6a13,13,0,0,0-3.18-.72c-5.69-.1-8.77,3.15-9.47,7.7,0,0-.84,4,2.09,9.39a18.91,18.91,0,0,0,3.91,4.52,13.53,13.53,0,0,0,7.49,3.09,86.38,86.38,0,0,0,22.41-.72c8.11-1.44,19.22-3.36,30.9-5.55-13.76,11.91-27.52,23.06-40.66,36.29-10.73,10.84-22.55,20-29.7,33.53-2,3.77-2.36,7.79-2.2,11.88,0,0,.55,8.08,8,5.36,3.43-1.32,11.93-2.83,11.93-2.83,32.89-6.38,68.66,6.59,98.65-17.91,4.22-3.44,6.56-6.11,5.63-9.47-1-3.54-5.34-2.85-8.76-1.55-20,5.17-40.29-1-60.34-.35a18.11,18.11,0,0,0,1.51-1.79c14.44-15,25.77-26.83,35.66-38.18,10.38-11.88,11.64-13.43,15.73-20.36,0,0,6-8.93,2.55-15.51-3.35-4.94-14.42-10.93-32.52-7.07-41.81,9-56.43,10.74-56.43,10.74a9.38,9.38,0,0,1-3.16-.49Z" transform="translate(-190.47 -181)"/><path class="cls-1" d="M807.17,451.13a7.35,7.35,0,0,0,.44-5.67c-.29-.95-1.17-1.66-3.67-2,0,0-1.17-.5-15-1.59-6.83-.59-8.5-3.67-9.87-6.16a24.49,24.49,0,0,1,.47-13.16c2.09-7,3.61-13.61,5.1-20.74.9-4.42.26-9.74-2.76-12.41a5.71,5.71,0,0,0-7-1.68,15.92,15.92,0,0,0-5,2.89c-35-8.87-85.27,32.49-93.77,55.35-8.11,21.53-1.33,29.26-1.33,29.26,18.31,21.67,53.85,3.36,78-19.7,14.18,14.71,32.77,8.86,49.49.18,0,0,3.86-2.52,4.88-4.53Zm-56.71-29.39c-1.17,4.26-4.22,9.67-3.63,13.6-14.49,8.61-34.12,22.46-39,16.87-3.89-5.69,16.89-34,46.18-40.3a74.25,74.25,0,0,0-3.51,9.83Z" transform="translate(-190.47 -181)"/><path class="cls-1" d="M308.17,700.18a113.64,113.64,0,0,0,21.66,3.31c-2.54,10.12-4.74,20.89-7.33,35.18-2.56,10.38-1.9,38.05,9.06,40.19s21.82-4.67,24.38-15c6.6-22.07,10.27-44.53,15.06-66.92,3.23-1.13,6.51-2.27,9.87-3.58,15.28-5.9,28.76-11.88,41.08-18-3.47,13.43-6.12,27.37-3.58,40.51,1.42,7.57,1.15,14.06,11.09,15.36,7.29.93,16.25-6.64,18.53-13.86A79.86,79.86,0,0,0,451.36,706c4-18.42,7.58-36.33,10.71-54,5.95-4.05,11.78-8.22,17.41-12.61,2-1.15,5.68-5,4.62-7.31a3.84,3.84,0,0,0-5.46-1.95c-4.37,2.08-9.14,4.06-13.87,5.94a510,510,0,0,0,6.28-55.56c.13-3.05,1.63-10.47-3.1-11.88s-7.18.22-9.81,4.63l-3.7,6.48c-16.1,27.71-20.32,47.94-25.22,68.21-16.41,4.78-33.33,9-49.45,13.39,3.55-13.25,5.63-21.95,8.22-35.78,2.8-14.66,13.75-39,7.53-48.12a3.38,3.38,0,0,0-2.53-1.65c-1.19-.27-3.06,1.07-3.9,1.78-20.56,18.69-31.85,50.33-42.14,75.82-2.76,6.8-5.12,12.85-7.18,18.44-10.82,2.17-21.57,3.89-32.28,6.82-4.57,1.06-8.53,4-8.66,9.3a12.16,12.16,0,0,0,9.34,12.26Z" transform="translate(-190.47 -181)"/><path class="cls-1" d="M256.14,494.86C235,522,225.62,554.77,212.39,587.44c-9.89,24.69-15.17,49.29-19.26,75.44-1.92,12.26-4.11,24.31-1.39,37.7,1,5.19,3.91,10.62,8.92,10.4,4.09-.33,9.52-3.91,11.18-7.87.79-2.16,3.44-5.47,4.17-7.57,9.05-24.56,14.42-42.56,22.73-67.22,5.58-16.35,14.31-36.71,19-54.22,6.47-24.36,17.6-47.22,18.55-72.64.18-5.56-1.34-12-6.93-13.87s-9.92,2.83-13.25,7.27Z" transform="translate(-190.47 -181)"/><path class="cls-1" d="M243.39,496.62c27-9,42.56-6.67,63.14-1.59,6.43,1.55,12.2,6,16.59,11.33,7.31,9.21,6.14,20.87,1.28,31.34-11.52,24.69-33.48,35.94-57.29,44.37-7.92,2.8-10.68,8.44-6.51,10.07,6.38,2.63,13.23.82,17,.22,23.85-3.84,38.91-9.82,58.5-26.85,23.36-20.45,36.37-51.07,21.58-79.24-10.78-20.5-33-32.86-56.05-33.19-26.79-.36-61.73,6.44-72.55,30-2.26,5-3,7.88-.67,12.28,2.76,5.08,9.35,3.09,14.93,1.23Z" transform="translate(-190.47 -181)"/><path class="cls-3" d="M793.92,325c-.55-1.63-2.41-3.27-3.91-4.17-36-25.58-106.67-47.48-152-66L634.93,249v-.09c-5.43-19.5-39.09-64.35-43.41-62.91-56.43,14.88-93.18,26.25-148.53,45.49l-8.74,2.63a7.69,7.69,0,0,0-5.9,4.45l-1.85,3.72c-10.18,24.36-27.52,44.28-36.09,69.52-.11.05-1.24,1.5-1.28,1.5-62.76,24.76-114.66,64.95-166.85,107.22l-2.74,2.08a8.86,8.86,0,0,0-3,4.85l-.48,2.37a8.74,8.74,0,0,0,5.72,10l6.56,1.08C292.14,422.11,354,406.36,419.14,392.8c.65-.48,3.23-2.23,3.85-2.76,19.92-15.45,43.35-23.32,51.67-18.41,3.14,1.81,3.72,5.25,2.23,9.71,17.49-3.18,34.83-6.31,52.37-9.11,34.74-5.68,68.85-9.81,104.08-13.81,36.82-4.13,72.24-6.76,109.65-9.43a83.76,83.76,0,0,0,12.24-1.44c7.77-1.72,34.76-5.49,39.17-17.75.69-1.66.2-2.94-.48-4.84Z" transform="translate(-190.47 -181)"/><path class="cls-1" d="M429.08,245.3l1.31-2.43-4.69,2.81,5.37-.82c51.26-12.74,102.6-25.39,152-44.12a7.34,7.34,0,0,0-4.34-14C529.22,199,480.49,214.29,432,230.18l-7.73,2.16A7,7,0,0,0,419,236l-1.53,3.1c-9.56,20.65-22.61,39.59-30.14,61.26a2.24,2.24,0,0,0,1.14,2.65,1.38,1.38,0,0,0,1.79-.55s25.05-38.79,38.78-57.16Z" transform="translate(-190.47 -181)"/><path class="cls-1" d="M607.37,182.58c6,24.36,10.6,49.36,15.7,74l.67,3.09c.5,1.81.3,4.48,8.81,8.48l.57.22c12.92,6.25,27,7.4,40.9,11.7,43.33,13.47,83.75,28.56,125.66,42.85a7.15,7.15,0,1,0,5.21-13.32c-51.52-23.67-109.31-44.14-164.92-56l-.78-.22c-10.51-23-16-50.07-29.75-71.67a1.19,1.19,0,0,0-1.43-.66,1.22,1.22,0,0,0-.64,1.52Z" transform="translate(-190.47 -181)"/><path class="cls-1" d="M220.28,444.37q98.78-29.94,199.51-51.23a29,29,0,0,1,3-2.41c19.88-15.52,42.64-24.05,50.95-19.19,3.31,2,3.84,5.63,2,10.42,14.06-2.58,28.07-5.12,42.18-7.46,34.3-5.72,68-9.94,102.92-13.89,36.46-4.13,71.44-6.67,108.47-9.3A42.06,42.06,0,0,0,739.39,349c7.12-2.25,12.94-9.34,12-17.45s-9.32-12.52-16.89-13.47a29.23,29.23,0,0,0-8.44-.28c-72,8.48-142.33,17.42-212.76,31.25-89.78,17.47-178.91,38.18-265.57,67.77,43.13-36.41,90.75-66.58,138.56-96.06a3.46,3.46,0,0,0,1.5-4.64,3.18,3.18,0,0,0-4.35-1.72c-62.06,25.35-117.62,65.5-169.14,108.9l-2.63,2.18a9.66,9.66,0,0,0-4.09,6.58l0,.73c-.79,4.4,1.52,8.64,6.18,10.6,0,0,2,1.26,6.59.95Z" transform="translate(-190.47 -181)"/><path class="cls-4" d="M447.88,420.1c3.05-5,16.85-17.27,30.32-41.8,1.1-2,2.07-4.77.33-6.67s-4.37-1.22-6.83-.47c-19.72,6.67-38.6,13.43-47.48,35.38-2,4.86-1.67,14.84,4.86,18.2a14.33,14.33,0,0,0,18.8-4.64Z" transform="translate(-190.47 -181)"/></svg>